{
.appVersion = "3309";
.formatVersion = 3;
axes = (
{
name = Weight;
tag = wght;
}
);
customParameters = (
{
name = panose;
value = (
3,
5,
9,
2,
4,
3,
2,
0,
0,
4
);
},
{
name = fsType;
value = (
);
},
{
name = "Use Typo Metrics";
value = 1;
},
{
name = "Enforce Compatibility Check";
value = 0;
}
);
date = "2013-08-22 21:28:00 +0000";
familyName = "Life Savers";
featurePrefixes = (
{
automatic = 1;
code = "languagesystem DFLT dflt;

languagesystem latn dflt;
languagesystem latn CAT;
";
name = Languagesystems;
}
);
features = (
{
automatic = 1;
code = "feature locl;
feature subs;
feature sinf;
feature sups;
feature frac;
feature ordn;
feature salt;
feature ss01;
";
tag = aalt;
},
{
automatic = 1;
code = "script latn;
language CAT;
lookup locl_latn_0 {
	sub  l' periodcentered' l by ldot;
	sub  L' periodcentered' L by Ldot;
} locl_latn_0;
";
tag = locl;
},
{
automatic = 1;
code = "sub zero by zeroinferior;
sub one by oneinferior;
sub two by twoinferior;
sub three by threeinferior;
sub four by fourinferior;
sub five by fiveinferior;
sub six by sixinferior;
sub seven by seveninferior;
sub eight by eightinferior;
sub nine by nineinferior;
";
tag = subs;
},
{
automatic = 1;
code = "sub zero by zeroinferior;
sub one by oneinferior;
sub two by twoinferior;
sub three by threeinferior;
sub four by fourinferior;
sub five by fiveinferior;
sub six by sixinferior;
sub seven by seveninferior;
sub eight by eightinferior;
sub nine by nineinferior;
";
tag = sinf;
},
{
automatic = 1;
code = "sub zero by zerosuperior;
sub one by onesuperior;
sub two by twosuperior;
sub three by threesuperior;
sub four by foursuperior;
sub five by fivesuperior;
sub six by sixsuperior;
sub seven by sevensuperior;
sub eight by eightsuperior;
sub nine by ninesuperior;
";
tag = sups;
},
{
automatic = 1;
code = "sub one slash eight by oneeighth;
sub one slash four by onequarter;
sub three slash eight by threeeighths;
sub one slash two by onehalf;
sub five slash eight by fiveeighths;

glyphs = (
{
glyphname = A;
kernLeft = Aacute;
kernRight = Aacute;
lastChange = "2024-06-13 14:31:09 +0000";
layers = (
{
layerId = m01;
shapes = (
{
closed = 1;
nodes = (
(402,823.667,o),
(387,838,o),
(359,838,cs),
(324.333,838,o),
(314.333,822.667,o),
(305,792,cs),
(284.502,726.405,o),
(251.09,598.326,o),
(213,460,cs),
(175.492,323.786,o),
(134.319,181.005,o),
(107,101,cs),
(97.667,74.333,o),
(82,65.667,o),
(58,63,cs),
(54.446,63,o),
(35.539,57,o),
(1,57,cs),
(-12.333,57,o),
(-28,47.333,o),
(-28,30,cs),
(-28,11.333,o),
(-17,0,o),
(-5,0,cs),
(273,0,ls),
(299.667,0,o),
(307,14.333,o),
(307,29,cs),
(307,53,o),
(295.333,61,o),
(274,61,cs),
(250.667,61,o),
(232.833,62.333,o),
(220.5,65,cs),
(208.167,67.667,o),
(202,71.667,o),
(202,77,cs),
(202,98.202,o),
(218.883,167.573,o),
(238,214,c),
(470,214,l),
(467.773,222.165,o),
(517,58.814,o),
(517,35,cs),
(517,-16.343,o),
(464,4.508,o),
(464,-33,cs),
(464,-43.667,o),
(471,-55,o),
(495,-55,cs),
(742,-55,ls),
(764.667,-55,o),
(777,-49,o),
(777,-25,cs),
(777,-2.333,o),
(751.667,3,o),
(733,3,cs),
(648.169,3,o),
(619.061,7.727,o),
(613,35,cs),
(410,793,l),
(410,793,l)
);
},
{
closed = 1;
nodes = (
(385.454,565.914,o),
(421.464,413.633,o),
(453,298,c),
(420.39,298,o),
(415.185,296,o),
(358,296,cs),
(304.25,296,o),
(314.344,298,o),
(262,298,c),
(284.238,378.864,o),
(315.184,510.424,o),
(362,691,c)
);
}
);
userData = {
assembly = "PUSHB[ ]	/* 6 values pushed */
69 1 8 7 1 66
MPPEM[ ]	/* MeasurePixelPerEm */
PUSHB[ ]	/* 1 value pushed */
45
LT[ ]	/* LessThan */
IF[ ]	/* If */
NPUSHB[ ]	/* 33 values pushed */
0 8 0 2 3 8 2 90 0 0 0 1 0 1 87 0 7 7 20 67 6 5 2 3 3 4 83 0 4 4 13 4 68
ELSE[ ]	/* Else */
NPUSHB[ ]	/* 33 values pushed */
0 7 8 7 106 0 8 0 2 3 8 2 90 0 0 0 1 0 1 87 6 5 2 3 3 4 83 0 4 4 13 4 68
EIF[ ]	/* EndIf */
NPUSHB[ ]	/* 11 values pushed */
168 44 19 36 52 39 28 52 51 9 24
CALL[ ]	/* CallFunction */";
};
width = 710;
},
{
layerId = "62092E79-60F6-4D0B-8A38-B9DDC6B60A9E";
shapes = (
{
closed = 1;
nodes = (
(384,830,o),
(372.333,837,o),
(353,837,cs),
(329,837,o),
(319.667,826.667,o),
(317,816,cs),
(293.137,737.253,o),
(267.659,639.167,o),
(219.5,466.5,cs),
(174.121,303.799,o),
(138.041,173.116,o),
(108,89,cs),
(100,65,o),
(87,53.667,o),
(59,51,cs),
(59.845,51,o),
(15.196,45,o),
(-12,45,cs),
(-25.333,45,o),
(-37,37.333,o),
(-37,24,cs),
(-37,9.333,o),
(-26,0,o),
(-14,0,cs),
(253,0,ls),
(279.667,0,o),
(287,12,o),
(287,24,cs),
(287,44,o),
(271.333,49,o),
(258,49,cs),
(223.943,49,o),
(182,48.548,o),
(182,65,cs),
(182,92.498,o),
(208.252,175.15,o),
(225,223,c),
(473,223,l),
(477.089,206.644,o),
(489.528,168.266,o),
(503,115.5,cs),
(517.884,57.204,o),
(526,23.825,o),
(526,15,cs),
(526,-32.87,o),
(455,-13.632,o),
(455,-39,cs),
(455,-44.333,o),
(457.167,-48.333,o),
(461.5,-51,cs),
(465.833,-53.667,o),
(474,-55,o),
(486,-55,cs),
(719,-55,ls),
(741.667,-55,o),
(754,-49.667,o),
(754,-31,cs),
(754,-12.333,o),
(731.667,-9,o),
(713,-9,cs),
(649,-9,o),
(608,-7.667,o),
(600,23,cs),
(388,816,l),
(388,816,l)
);
},
{
closed = 1;
nodes = (
(381.348,597.479,o),
(430.777,393.353,o),
(458,289,c),
(442.667,288.333,o),
(426.833,288,o),
(410.5,288,cs),
(394.167,288,o),
(378.333,288,o),
(363,288,cs),
(342.333,288,o),
(322.5,288,o),
(303.5,288,cs),
(284.5,288,o),
(264.667,288.333,o),
(244,289,c),
(254.823,332.292,o),
(278.404,424.346,o),
(303.5,516,cs),
(330.088,613.105,o),
(346.703,679.672,o),
(356,715,c)
);
}
);
userData = {
assembly = "PUSHB[ ]	/* 6 values pushed */
70 1 8 7 1 66
MPPEM[ ]	/* MeasurePixelPerEm */
PUSHB[ ]	/* 1 value pushed */
45
LT[ ]	/* LessThan */
IF[ ]	/* If */
NPUSHB[ ]	/* 33 values pushed */
0 8 0 2 3 8 2 90 0 0 0 1 0 1 87 0 7 7 20 67 6 5 2 3 3 4 83 0 4 4 13 4 68
ELSE[ ]	/* Else */
NPUSHB[ ]	/* 33 values pushed */
0 7 8 7 106 0 8 0 2 3 8 2 90 0 0 0 1 0 1 87 6 5 2 3 3 4 83 0 4 4 13 4 68
EIF[ ]	/* EndIf */
NPUSHB[ ]	/* 11 values pushed */
105 44 19 36 52 56 30 52 34 9 24
CALL[ ]	/* CallFunction */";
};
width = 698;
},
{
layerId = "E59D8378-1062-4241-9A8F-EEB295F00E05";
shapes = (
{
closed = 1;
nodes = (
(686,-55,ls),
(709.333,-55,o),
(721,-50.333,o),
(721,-41,cs),
(721,-29,o),
(703.667,-29,o),
(685,-29,cs),
(653,-29,o),
(628.667,-27,o),
(612,-23,cs),
(595.333,-19,o),
(585.333,-10.333,o),
(582,3,cs),
(365,816,ls),
(361,830.667,o),
(351.667,835,o),
(345,835,cs),
(334.333,835,o),
(326.667,826.667,o),
(324,816,cs),
(309.578,766.966,o),
(264.676,604.466,o),
(224.5,456.5,cs),
(181.443,297.923,o),
(145.981,172.147,o),
(110,69,cs),
(100.667,45,o),
(90.333,33.667,o),
(61,31,cs),
(62.152,31,o),
(9.218,25,o),
(-30,25,cs),
(-43.333,25,o),
(-50,21.333,o),
(-50,14,cs),
(-50,3.333,o),
(-39,0,o),
(-27,0,cs),
(225,0,ls),
(238.333,0,o),
(247.333,1.667,o),
(252,5,cs),
(256.667,8.333,o),
(259,11.667,o),
(259,15,cs),
(259,29.667,o),
(238.333,29,o),
(225,29,cs),
(204.985,29,o),
(154,26.126,o),
(154,45,cs),
(154,74.195,o),
(186.968,172.749,o),
(206,238,c),
(477,238,l),
(481.265,218.806,o),
(496.406,169.833,o),
(511,112.5,cs),
(528.276,44.631,o),
(538,5.656,o),
(538,-5,cs),
(538,-37.488,o),
(442,-16.276,o),
(442,-41,cs),
(442,-46.333,o),
(444.167,-50,o),
(448.5,-52,cs),
(452.833,-54,o),
(461,-55,o),
(473,-55,cs)
);
},
{
closed = 1;
nodes = (
(298.667,272,o),
(259.333,272.667,o),
(218,274,c),
(233.077,338.616,o),
(254.142,418.105,o),
(284,529.5,cs),
(313.705,640.323,o),
(333.8,709,o),
(343,755,c),
(373.763,642.203,o),
(431.478,410.882,o),
(465,274,c),
(423.667,272.667,o),
(381.333,272,o),
(340,272,cs)
);
}
);
userData = {
assembly = "PUSHB[ ]	/* 6 values pushed */
69 1 9 8 1 66
MPPEM[ ]	/* MeasurePixelPerEm */
PUSHB[ ]	/* 1 value pushed */
45
LT[ ]	/* LessThan */
IF[ ]	/* If */
NPUSHB[ ]	/* 34 values pushed */
0 9 0 3 4 9 3 90 2 1 0 0 1 0 1 87 0 8 8 20 67 7 6 2 4 4 5 83 0 5 5 13 5 68
ELSE[ ]	/* Else */
NPUSHB[ ]	/* 34 values pushed */
0 8 9 8 106 0 9 0 3 4 9 3 90 2 1 0 0 1 0 1 87 7 6 2 4 4 5 83 0 5 5 13 5 68
EIF[ ]	/* EndIf */
NPUSHB[ ]	/* 13 values pushed */
82 76 44 18 51 52 56 25 20 51 34 10 24
CALL[ ]	/* CallFunction */";
};
width = 681;
}
);
note = A;
unicode = 65;
},
{
glyphname = Aacute;
kernLeft = Aacute;
kernRight = Aacute;
lastChange = "2024-06-13 14:31:09 +0000";
layers = (
{
layerId = m01;
shapes = (
{
closed = 1;
nodes = (
(449,953.333,o),
(434.667,972,o),
(408,972,cs),
(370.323,972,o),
(294,899.498,o),
(294,872,cs),
(294,856,o),
(309,841,o),
(329,841,cs),
(362.423,841,o),
(449,896.957,o),
(449,936,cs)
);
},
{
closed = 1;
nodes = (
(402,823.667,o),
(387,838,o),
(359,838,cs),
(324.333,838,o),
(314.333,822.667,o),
(305,792,cs),
(284.502,726.405,o),
(251.09,598.326,o),
(213,460,cs),
(175.492,323.786,o),
(134.319,181.005,o),
(107,101,cs),
(97.667,74.333,o),
(82,65.667,o),
(58,63,cs),
(54.446,63,o),
(35.539,57,o),
(1,57,cs),
(-12.333,57,o),
(-28,47.333,o),
(-28,30,cs),
(-28,11.333,o),
(-17,0,o),
(-5,0,cs),
(273,0,ls),
(299.667,0,o),
(307,14.333,o),
(307,29,cs),
(307,53,o),
(295.333,61,o),
(274,61,cs),
(250.667,61,o),
(232.833,62.333,o),
(220.5,65,cs),
(208.167,67.667,o),
(202,71.667,o),
(202,77,cs),
(202,98.202,o),
(218.883,167.573,o),
(238,214,c),
(470,214,l),
(467.773,222.165,o),
(517,58.814,o),
(517,35,cs),
(517,-16.343,o),
(464,4.508,o),
(464,-33,cs),
(464,-43.667,o),
(471,-55,o),
(495,-55,cs),
(742,-55,ls),
(764.667,-55,o),
(777,-49,o),
(777,-25,cs),
(777,-2.333,o),
(751.667,3,o),
(733,3,cs),
(648.169,3,o),
(619.061,7.727,o),
(613,35,cs),
(410,793,l),
(410,793,l)
);
},
{
closed = 1;
nodes = (
(385.454,565.914,o),
(421.464,413.633,o),
(453,298,c),
(420.39,298,o),
(415.185,296,o),
(358,296,cs),
(304.25,296,o),
(314.344,298,o),
(262,298,c),
(284.238,378.864,o),
(315.184,510.424,o),
(362,691,c)
);
}
);
userData = {
assembly = "PUSHB[ ]	/* 6 values pushed */
85 1 10 9 1 66
MPPEM[ ]	/* MeasurePixelPerEm */
PUSHB[ ]	/* 1 value pushed */
45
LT[ ]	/* LessThan */
IF[ ]	/* If */
NPUSHB[ ]	/* 43 values pushed */
0 1 0 1 106 0 0 9 0 106 0 10 0 4 5 10 4 90 0 2 0 3 2 3 87 0 9 9 20 67 8 7 2 5 5 6 83 0 6 6 13 6 68
ELSE[ ]	/* Else */
NPUSHB[ ]	/* 43 values pushed */
0 1 0 1 106 0 0 9 0 106 0 9 10 9 106 0 10 0 4 5 10 4 90 0 2 0 3 2 3 87 8 7 2 5 5 6 83 0 6 6 13 6 68
EIF[ ]	/* EndIf */
NPUSHB[ ]	/* 15 values pushed */
100 90 82 80 19 36 52 39 28 52 53 38 36 11 24
CALL[ ]	/* CallFunction */";
};
width = 710;
},
{
layerId = "62092E79-60F6-4D0B-8A38-B9DDC6B60A9E";
shapes = (
{
closed = 1;
nodes = (
(429,959.667,o),
(417,972,o),
(397,972,cs),
(367.753,972,o),
(291,903.873,o),
(291,877,cs),
(291,863.667,o),
(300.333,854,o),
(315,854,cs),
(341.12,854,o),
(429,908.21,o),
(429,941,cs)
);
},
{
closed = 1;
nodes = (
(384,830,o),
(372.333,837,o),
(353,837,cs),
(329,837,o),
(319.667,826.667,o),
(317,816,cs),
(293.137,737.253,o),
(267.659,639.167,o),
(219.5,466.5,cs),
(174.121,303.799,o),
(138.041,173.116,o),
(108,89,cs),
(100,65,o),
(87,53.667,o),
(59,51,cs),
(59.845,51,o),
(15.196,45,o),
(-12,45,cs),
(-25.333,45,o),
(-37,37.333,o),
(-37,24,cs),
(-37,9.333,o),
(-26,0,o),
(-14,0,cs),
(253,0,ls),
(279.667,0,o),
(287,12,o),
(287,24,cs),
(287,44,o),
(271.333,49,o),
(258,49,cs),
(223.943,49,o),
(182,48.548,o),
(182,65,cs),
(182,92.498,o),
(208.252,175.15,o),
(225,223,c),
(473,223,l),
(477.089,206.644,o),
(489.528,168.266,o),
(503,115.5,cs),
(517.884,57.204,o),
(526,23.825,o),
(526,15,cs),
(526,-32.87,o),
(455,-13.632,o),
(455,-39,cs),
(455,-44.333,o),
(457.167,-48.333,o),
(461.5,-51,cs),
(465.833,-53.667,o),
(474,-55,o),
(486,-55,cs),
(719,-55,ls),
(741.667,-55,o),
(754,-49.667,o),
(754,-31,cs),
(754,-12.333,o),
(731.667,-9,o),
(713,-9,cs),
(649,-9,o),
(608,-7.667,o),
(600,23,cs),
(388,816,l),
(388,816,l)
);
},
{
closed = 1;
nodes = (
(381.348,597.479,o),
(430.777,393.353,o),
(458,289,c),
(442.667,288.333,o),
(426.833,288,o),
(410.5,288,cs),
(394.167,288,o),
(378.333,288,o),
(363,288,cs),
(342.333,288,o),
(322.5,288,o),
(303.5,288,cs),
(284.5,288,o),
(264.667,288.333,o),
(244,289,c),
(254.823,332.292,o),
(278.404,424.346,o),
(303.5,516,cs),
(330.088,613.105,o),
(346.703,679.672,o),
(356,715,c)
);
}
);
userData = {
assembly = "PUSHB[ ]	/* 6 values pushed */
86 1 10 9 1 66
MPPEM[ ]	/* MeasurePixelPerEm */
PUSHB[ ]	/* 1 value pushed */
45
LT[ ]	/* LessThan */
IF[ ]	/* If */
NPUSHB[ ]	/* 43 values pushed */
0 1 0 1 106 0 0 9 0 106 0 10 0 4 5 10 4 90 0 2 0 3 2 3 87 0 9 9 20 67 8 7 2 5 5 6 83 0 6 6 13 6 68
ELSE[ ]	/* Else */
NPUSHB[ ]	/* 43 values pushed */
0 1 0 1 106 0 0 9 0 106 0 9 10 9 106 0 10 0 4 5 10 4 90 0 2 0 3 2 3 87 8 7 2 5 5 6 83 0 6 6 13 6 68
EIF[ ]	/* EndIf */
NPUSHB[ ]	/* 15 values pushed */
99 93 84 82 19 36 52 56 30 52 36 38 36 11 24
CALL[ ]	/* CallFunction */";
};
width = 698;
},
{
layerId = "E59D8378-1062-4241-9A8F-EEB295F00E05";
shapes = (
{
closed = 1;
nodes = (
(686,-55,ls),
(709.333,-55,o),
(721,-50.333,o),
(721,-41,cs),
(721,-29,o),
(703.667,-29,o),
(685,-29,cs),
(653,-29,o),
(628.667,-27,o),
(612,-23,cs),
(595.333,-19,o),
(585.333,-10.333,o),
(582,3,cs),
(365,816,ls),
(361,830.667,o),
(351.667,835,o),
(345,835,cs),
(334.333,835,o),
(326.667,826.667,o),
(324,816,cs),
(309.578,766.966,o),
(264.676,604.466,o),
(224.5,456.5,cs),
(181.443,297.923,o),
(145.981,172.147,o),
(110,69,cs),
(100.667,45,o),
(90.333,33.667,o),
(61,31,cs),
(62.152,31,o),
(9.218,25,o),
(-30,25,cs),
(-43.333,25,o),
(-50,21.333,o),
(-50,14,cs),
(-50,3.333,o),
(-39,0,o),
(-27,0,cs),
(225,0,ls),
(238.333,0,o),
(247.333,1.667,o),
(252,5,cs),
(256.667,8.333,o),
(259,11.667,o),
(259,15,cs),
(259,29.667,o),
(238.333,29,o),
(225,29,cs),
(204.985,29,o),
(154,26.126,o),
(154,45,cs),
(154,74.195,o),
(186.968,172.749,o),
(206,238,c),
(477,238,l),
(481.265,218.806,o),
(496.406,169.833,o),
(511,112.5,cs),
(528.276,44.631,o),
(538,5.656,o),
(538,-5,cs),
(538,-37.488,o),
(442,-16.276,o),
(442,-41,cs),
(442,-46.333,o),
(444.167,-50,o),
(448.5,-52,cs),
(452.833,-54,o),
(461,-55,o),
(473,-55,cs)
);
},
{
closed = 1;
nodes = (
(298.667,272,o),
(259.333,272.667,o),
(218,274,c),
(233.077,338.616,o),
(254.142,418.105,o),
(284,529.5,cs),
(313.705,640.323,o),
(333.8,709,o),
(343,755,c),
(373.763,642.203,o),
(431.478,410.882,o),
(465,274,c),
(423.667,272.667,o),
(381.333,272,o),
(340,272,cs)
);
},
{
closed = 1;
nodes = (
(311.311,875,o),
(401,928.367,o),
(401,950,cs),
(401,968.667,o),
(392.667,972,o),
(382,972,cs),
(362.012,972,o),
(287,910.697,o),
(287,886,cs),
(287,878.667,o),
(289.667,875,o),
(295,875,cs)
);
}
);
userData = {
assembly = "PUSHB[ ]	/* 6 values pushed */
84 1 11 10 1 66
MPPEM[ ]	/* MeasurePixelPerEm */
PUSHB[ ]	/* 1 value pushed */
45
LT[ ]	/* LessThan */
IF[ ]	/* If */
NPUSHB[ ]	/* 44 values pushed */
0 1 0 1 106 0 0 10 0 106 0 11 0 5 6 11 5 90 4 1 2 0 3 2 3 87 0 10 10 20 67 9 8 2 6 6 7 83 0 7 7 13 7 68
ELSE[ ]	/* Else */
NPUSHB[ ]	/* 44 values pushed */
0 1 0 1 106 0 0 10 0 106 0 10 11 10 106 0 11 0 5 6 11 5 90 4 1 2 0 3 2 3 87 9 8 2 6 6 7 83 0 7 7 13 7 68
EIF[ ]	/* EndIf */
NPUSHB[ ]	/* 17 values pushed */
97 91 81 79 67 66 51 52 56 25 20 51 36 37 36 12 24
CALL[ ]	/* CallFunction */";
};
width = 681;
}
);
note = Aacute;
unicode = 193;
},
{
glyphname = Abreve;
kernLeft = Aacute;
kernRight = Aacute;
lastChange = "2024-06-13 14:31:17 +0000";
layers = (
{
layerId = m01;
shapes = (
{
closed = 1;
nodes = (
(402,823.667,o),
(387,838,o),
(359,838,cs),
(324.333,838,o),
(314.333,822.667,o),
(305,792,cs),
(284.502,726.405,o),
(251.09,598.326,o),
(213,460,cs),
(175.492,323.786,o),
(134.319,181.005,o),
(107,101,cs),
(97.667,74.333,o),
(82,65.667,o),
(58,63,cs),
(54.446,63,o),
(35.539,57,o),
(1,57,cs),
(-12.333,57,o),
(-28,47.333,o),
(-28,30,cs),
(-28,11.333,o),
(-17,0,o),
(-5,0,cs),
(273,0,ls),
(299.667,0,o),
(307,14.333,o),
(307,29,cs),
(307,53,o),
(295.333,61,o),
(274,61,cs),
(250.667,61,o),
(232.833,62.333,o),
(220.5,65,cs),
(208.167,67.667,o),
(202,71.667,o),
(202,77,cs),
(202,98.202,o),
(218.883,167.573,o),
(238,214,c),
(470,214,l),
(467.773,222.165,o),
(517,58.814,o),
(517,35,cs),
(517,-16.343,o),
(464,4.508,o),
(464,-33,cs),
(464,-43.667,o),
(471,-55,o),
(495,-55,cs),
(742,-55,ls),
(764.667,-55,o),
(777,-49,o),
(777,-25,cs),
(777,-2.333,o),
(751.667,3,o),
(733,3,cs),
(648.169,3,o),
(619.061,7.727,o),
(613,35,cs),
(410,793,l),
(410,793,l)
);
},
{
closed = 1;
nodes = (
(385.454,565.914,o),
(421.464,413.633,o),
(453,298,c),
(420.39,298,o),
(415.185,296,o),
(358,296,cs),
(304.25,296,o),
(314.344,298,o),
(262,298,c),
(284.238,378.864,o),
(315.184,510.424,o),
(362,691,c)
);
},
{
closed = 1;
nodes = (
(495,967.667,o),
(477,971,o),
(457,971,cs),
(439.667,971,o),
(425,956.667,o),
(425,942,cs),
(425,936.667,o),
(420.5,931.5,o),
(411.5,926.5,cs),
(402.5,921.5,o),
(388.333,919,o),
(369,919,cs),
(338.535,919,o),
(310,926.638,o),
(310,942,cs),
(310,964.667,o),
(296.667,971,o),
(274,971,cs),
(251.333,971,o),
(242,958.333,o),
(242,941,cs),
(242,898.333,o),
(287.333,862,o),
(374,862,cs),
(425.962,862,o),
(495,888.821,o),
(495,941,cs)
);
}
);
userData = {
assembly = "PUSHB[ ]	/* 6 values pushed */
69 1 8 7 1 66
MPPEM[ ]	/* MeasurePixelPerEm */
PUSHB[ ]	/* 1 value pushed */
45
LT[ ]	/* LessThan */
IF[ ]	/* If */
NPUSHB[ ]	/* 47 values pushed */
12 1 10 11 10 106 0 11 0 9 7 11 9 91 0 8 0 2 3 8 2 90 0 0 0 1 0 1 87 0 7 7 20 67 6 5 2 3 3 4 83 0 4 4 13 4 68
ELSE[ ]	/* Else */
NPUSHB[ ]	/* 50 values pushed */
12 1 10 11 10 106 0 7 9 8 9 7 8 104 0 11 0 9 7 11 9 91 0 8 0 2 3 8 2 90 0 0 0 1 0 1 87 6 5 2 3 3 4 83 0 4 4 13 4 68
EIF[ ]	/* EndIf */
NPUSHB[ ]	/* 19 values pushed */
115 113 109 107 101 99 95 93 168 44 19 36 52 39 28 52 51 13 24
CALL[ ]	/* CallFunction */";
};
width = 710;
},
{
layerId = "62092E79-60F6-4D0B-8A38-B9DDC6B60A9E";
shapes = (
{
closed = 1;
nodes = (
(384,830,o),
(372.333,837,o),
(353,837,cs),
(329,837,o),
(319.667,826.667,o),
(317,816,cs),
(293.137,737.253,o),
(267.659,639.167,o),
(219.5,466.5,cs),
(174.121,303.799,o),
(138.041,173.116,o),
(108,89,cs),
(100,65,o),
(87,53.667,o),
(59,51,cs),
(59.845,51,o),
(15.196,45,o),
(-12,45,cs),
(-25.333,45,o),
(-37,37.333,o),
(-37,24,cs),
(-37,9.333,o),
(-26,0,o),
(-14,0,cs),
(253,0,ls),
(279.667,0,o),
(287,12,o),
(287,24,cs),
(287,44,o),
(271.333,49,o),
(258,49,cs),
(223.943,49,o),
(182,48.548,o),
(182,65,cs),
(182,92.498,o),
(208.252,175.15,o),
(225,223,c),
(473,223,l),
(477.089,206.644,o),
(489.528,168.266,o),
(503,115.5,cs),
(517.884,57.204,o),
(526,23.825,o),
(526,15,cs),
(526,-32.87,o),
(455,-13.632,o),
(455,-39,cs),
(455,-44.333,o),
(457.167,-48.333,o),
(461.5,-51,cs),
(465.833,-53.667,o),
(474,-55,o),
(486,-55,cs),
(719,-55,ls),
(741.667,-55,o),
(754,-49.667,o),
(754,-31,cs),
(754,-12.333,o),
(731.667,-9,o),
(713,-9,cs),
(649,-9,o),
(608,-7.667,o),
(600,23,cs),
(388,816,l),
(388,816,l)
);
},
{
closed = 1;
nodes = (
(381.348,597.479,o),
(430.777,393.353,o),
(458,289,c),
(442.667,288.333,o),
(426.833,288,o),
(410.5,288,cs),
(394.167,288,o),
(378.333,288,o),
(363,288,cs),
(342.333,288,o),
(322.5,288,o),
(303.5,288,cs),
(284.5,288,o),
(264.667,288.333,o),
(244,289,c),
(254.823,332.292,o),
(278.404,424.346,o),
(303.5,516,cs),
(330.088,613.105,o),
(346.703,679.672,o),
(356,715,c)
);
},
{
closed = 1;
nodes = (
(480,971,o),
(463,972,o),
(450,972,cs),
(435,972,o),
(424,960,o),
(424,945,cs),
(424,928,o),
(399,910,o),
(360,910,cs),
(330,910,o),
(295,919,o),
(295,945,cs),
(295,965,o),
(286,972,o),
(267,972,cs),
(250,972,o),
(241,963,o),
(241,944,cs),
(241,903,o),
(287,865,o),
(363,865,cs),
(414,865,o),
(480,892,o),
(480,944,cs)
);
}
);
userData = {
assembly = "PUSHB[ ]	/* 6 values pushed */
71 1 8 7 1 66
MPPEM[ ]	/* MeasurePixelPerEm */
PUSHB[ ]	/* 1 value pushed */
45
LT[ ]	/* LessThan */
IF[ ]	/* If */
NPUSHB[ ]	/* 47 values pushed */
12 1 10 11 10 106 0 11 0 9 7 11 9 91 0 8 0 2 3 8 2 90 0 0 0 1 0 1 87 0 7 7 20 67 6 5 2 3 3 4 83 0 4 4 13 4 68
ELSE[ ]	/* Else */
NPUSHB[ ]	/* 50 values pushed */
12 1 10 11 10 106 0 7 9 8 9 7 8 104 0 11 0 9 7 11 9 91 0 8 0 2 3 8 2 90 0 0 0 1 0 1 87 6 5 2 3 3 4 83 0 4 4 13 4 68
EIF[ ]	/* EndIf */
NPUSHB[ ]	/* 19 values pushed */
114 112 108 106 100 98 95 93 105 44 19 36 52 56 30 52 35 13 35
CALL[ ]	/* CallFunction */";
};
width = 698;
},
{
layerId = "E59D8378-1062-4241-9A8F-EEB295F00E05";
shapes = (
{
closed = 1;
nodes = (
(686,-55,ls),
(709.333,-55,o),
(721,-50.333,o),
(721,-41,cs),
(721,-29,o),
(703.667,-29,o),
(685,-29,cs),
(653,-29,o),
(628.667,-27,o),
(612,-23,cs),
(595.333,-19,o),
(585.333,-10.333,o),
(582,3,cs),
(365,816,ls),
(361,830.667,o),
(351.667,835,o),
(345,835,cs),
(334.333,835,o),
(326.667,826.667,o),
(324,816,cs),
(309.578,766.966,o),
(264.676,604.466,o),
(224.5,456.5,cs),
(181.443,297.923,o),
(145.981,172.147,o),
(110,69,cs),
(100.667,45,o),
(90.333,33.667,o),
(61,31,cs),
(62.152,31,o),
(9.218,25,o),
(-30,25,cs),
(-43.333,25,o),
(-50,21.333,o),
(-50,14,cs),
(-50,3.333,o),
(-39,0,o),
(-27,0,cs),
(225,0,ls),
(238.333,0,o),
(247.333,1.667,o),
(252,5,cs),
(256.667,8.333,o),
(259,11.667,o),
(259,15,cs),
(259,29.667,o),
(238.333,29,o),
(225,29,cs),
(204.985,29,o),
(154,26.126,o),
(154,45,cs),
(154,74.195,o),
(186.968,172.749,o),
(206,238,c),
(477,238,l),
(481.265,218.806,o),
(496.406,169.833,o),
(511,112.5,cs),
(528.276,44.631,o),
(538,5.656,o),
(538,-5,cs),
(538,-37.488,o),
(442,-16.276,o),
(442,-41,cs),
(442,-46.333,o),
(444.167,-50,o),
(448.5,-52,cs),
(452.833,-54,o),
(461,-55,o),
(473,-55,cs)
);
},
{
closed = 1;
nodes = (
(298.667,272,o),
(259.333,272.667,o),
(218,274,c),
(233.077,338.616,o),
(254.142,418.105,o),
(284,529.5,cs),
(313.705,640.323,o),
(333.8,709,o),
(343,755,c),
(373.763,642.203,o),
(431.478,410.882,o),
(465,274,c),
(423.667,272.667,o),
(381.333,272,o),
(340,272,cs)
);
},
{
closed = 1;
nodes = (
(400.017,875,o),
(458,899.402,o),
(458,948,cs),
(458,969.333,o),
(449.667,972,o),
(439,972,cs),
(427.667,972,o),
(422,964.333,o),
(422,949,cs),
(422,922.229,o),
(383.336,900,o),
(347,900,cs),
(304.691,900,o),
(273,909.669,o),
(273,949,cs),
(273,965,o),
(270.667,972,o),
(256,972,cs),
(244.667,972,o),
(239,964,o),
(239,948,cs),
(239,908,o),
(287,875,o),
(347,875,cs)
);
}
);
userData = {
assembly = "PUSHB[ ]	/* 6 values pushed */
97 1 13 12 1 66
MPPEM[ ]	/* MeasurePixelPerEm */
PUSHB[ ]	/* 1 value pushed */
45
LT[ ]	/* LessThan */
IF[ ]	/* If */
NPUSHB[ ]	/* 48 values pushed */
3 1 1 2 1 106 0 2 0 0 12 2 0 91 0 13 0 7 8 13 7 90 6 1 4 0 5 4 5 87 0 12 12 20 67 11 10 2 8 8 9 83 0 9 9 13 9 68
ELSE[ ]	/* Else */
NPUSHB[ ]	/* 51 values pushed */
3 1 1 2 1 106 0 12 0 13 0 12 13 104 0 2 0 0 12 2 0 91 0 13 0 7 8 13 7 90 6 1 4 0 5 4 5 87 11 10 2 8 8 9 83 0 9 9 13 9 68
EIF[ ]	/* EndIf */
NPUSHB[ ]	/* 21 values pushed */
110 104 94 92 80 79 77 74 71 68 56 25 20 51 36 37 38 35 36 14 24
CALL[ ]	/* CallFunction */";
};
width = 681;
}
);
note = Abreve;
unicode = 258;
},
{
glyphname = Acircumflex;
kernLeft = Aacute;
kernRight = Aacute;
lastChange = "2024-06-13 14:31:09 +0000";
layers = (
{
layerId = m01;
shapes = (
{
closed = 1;
nodes = (
(498.667,832,o),
(501,842.667,o),
(501,852,cs),
(501,894.309,o),
(393.018,972,o),
(368,972,cs),
(357.004,972,o),
(322.131,950.323,o),
(295,928.5,cs),
(264.333,903.833,o),
(236,871.333,o),
(236,846,cs),
(236,839.333,o),
(239.667,832,o),
(249,832,cs),
(256.333,832,o),
(271.333,836.333,o),
(294,845,cs),
(316.667,853.667,o),
(341.333,865.333,o),
(368,880,c),
(394.667,865.333,o),
(419.5,853.667,o),
(442.5,845,cs),
(465.5,836.333,o),
(480.667,832,o),
(488,832,cs)
);
},
{
closed = 1;
nodes = (
(402,823.667,o),
(387,838,o),
(359,838,cs),
(324.333,838,o),
(314.333,822.667,o),
(305,792,cs),
(284.502,726.405,o),
(251.09,598.326,o),
(213,460,cs),
(175.492,323.786,o),
(134.319,181.005,o),
(107,101,cs),
(97.667,74.333,o),
(82,65.667,o),
(58,63,cs),
(54.446,63,o),
(35.539,57,o),
(1,57,cs),
(-12.333,57,o),
(-28,47.333,o),
(-28,30,cs),
(-28,11.333,o),
(-17,0,o),
(-5,0,cs),
(273,0,ls),
(299.667,0,o),
(307,14.333,o),
(307,29,cs),
(307,53,o),
(295.333,61,o),
(274,61,cs),
(250.667,61,o),
(232.833,62.333,o),
(220.5,65,cs),
(208.167,67.667,o),
(202,71.667,o),
(202,77,cs),
(202,98.202,o),
(218.883,167.573,o),
(238,214,c),
(470,214,l),
(467.773,222.165,o),
(517,58.814,o),
(517,35,cs),
(517,-16.343,o),
(464,4.508,o),
(464,-33,cs),
(464,-43.667,o),
(471,-55,o),
(495,-55,cs),
(742,-55,ls),
(764.667,-55,o),
(777,-49,o),
(777,-25,cs),
(777,-2.333,o),
(751.667,3,o),
(733,3,cs),
(648.169,3,o),
(619.061,7.727,o),
(613,35,cs),
(410,793,l),
(410,793,l)
);
},
{
closed = 1;
nodes = (
(385.454,565.914,o),
(421.464,413.633,o),
(453,298,c),
(420.39,298,o),
(415.185,296,o),
(358,296,cs),
(304.25,296,o),
(314.344,298,o),
(262,298,c),
(284.238,378.864,o),
(315.184,510.424,o),
(362,691,c)
);
}
);
userData = {
assembly = "NPUSHB[ ]	/* 10 values pushed */
3 1 10 2 91 1 11 0 2 66
MPPEM[ ]	/* MeasurePixelPerEm */
PUSHB[ ]	/* 1 value pushed */
45
LT[ ]	/* LessThan */
IF[ ]	/* If */
NPUSHB[ ]	/* 48 values pushed */
0 2 10 2 106 1 12 2 0 10 11 10 0 11 104 0 11 0 5 6 11 5 90 0 3 0 4 3 4 87 0 10 10 20 67 9 8 2 6 6 7 83 0 7 7 13 7 68
ELSE[ ]	/* Else */
NPUSHB[ ]	/* 45 values pushed */
0 2 10 2 106 0 10 0 10 106 1 12 2 0 11 0 106 0 11 0 5 6 11 5 90 0 3 0 4 3 4 87 9 8 2 6 6 7 83 0 7 7 13 7 68
EIF[ ]	/* EndIf */
NPUSHB[ ]	/* 30 values pushed */
1 0 106 96 88 86 74 73 70 68 64 61 57 55 48 47 35 32 28 25 15 13 7 5 0 21 1 21 13 15
CALL[ ]	/* CallFunction */";
};
width = 710;
},
{
layerId = "62092E79-60F6-4D0B-8A38-B9DDC6B60A9E";
shapes = (
{
closed = 1;
nodes = (
(486,848,o),
(489,855.667,o),
(489,865,cs),
(489,899.091,o),
(384.266,972,o),
(358,972,cs),
(335.488,972,o),
(228,901.1,o),
(228,861,cs),
(228,852.333,o),
(231.667,848,o),
(239,848,cs),
(255.596,848,o),
(319.191,875.171,o),
(358,898,c),
(420.496,861.237,o),
(469.286,848,o),
(478,848,cs)
);
},
{
closed = 1;
nodes = (
(384,830,o),
(372.333,837,o),
(353,837,cs),
(329,837,o),
(319.667,826.667,o),
(317,816,cs),
(293.137,737.253,o),
(267.659,639.167,o),
(219.5,466.5,cs),
(174.121,303.799,o),
(138.041,173.116,o),
(108,89,cs),
(100,65,o),
(87,53.667,o),
(59,51,cs),
(59.845,51,o),
(15.196,45,o),
(-12,45,cs),
(-25.333,45,o),
(-37,37.333,o),
(-37,24,cs),
(-37,9.333,o),
(-26,0,o),
(-14,0,cs),
(253,0,ls),
(279.667,0,o),
(287,12,o),
(287,24,cs),
(287,44,o),
(271.333,49,o),
(258,49,cs),
(223.943,49,o),
(182,48.548,o),
(182,65,cs),
(182,92.498,o),
(208.252,175.15,o),
(225,223,c),
(473,223,l),
(477.089,206.644,o),
(489.528,168.266,o),
(503,115.5,cs),
(517.884,57.204,o),
(526,23.825,o),
(526,15,cs),
(526,-32.87,o),
(455,-13.632,o),
(455,-39,cs),
(455,-44.333,o),
(457.167,-48.333,o),
(461.5,-51,cs),
(465.833,-53.667,o),
(474,-55,o),
(486,-55,cs),
(719,-55,ls),
(741.667,-55,o),
(754,-49.667,o),
(754,-31,cs),
(754,-12.333,o),
(731.667,-9,o),
(713,-9,cs),
(649,-9,o),
(608,-7.667,o),
(600,23,cs),
(388,816,l),
(388,816,l)
);
},
{
closed = 1;
nodes = (
(381.348,597.479,o),
(430.777,393.353,o),
(458,289,c),
(442.667,288.333,o),
(426.833,288,o),
(410.5,288,cs),
(394.167,288,o),
(378.333,288,o),
(363,288,cs),
(342.333,288,o),
(322.5,288,o),
(303.5,288,cs),
(284.5,288,o),
(264.667,288.333,o),
(244,289,c),
(254.823,332.292,o),
(278.404,424.346,o),
(303.5,516,cs),
(330.088,613.105,o),
(346.703,679.672,o),
(356,715,c)
);
}
);
userData = {
assembly = "NPUSHB[ ]	/* 10 values pushed */
5 1 0 2 95 1 11 10 2 66
MPPEM[ ]	/* MeasurePixelPerEm */
PUSHB[ ]	/* 1 value pushed */
45
LT[ ]	/* LessThan */
IF[ ]	/* If */
NPUSHB[ ]	/* 45 values pushed */
0 2 0 2 106 1 12 2 0 10 0 106 0 11 0 5 6 11 5 90 0 3 0 4 3 4 87 0 10 10 20 67 9 8 2 6 6 7 83 0 7 7 13 7 68
ELSE[ ]	/* Else */
NPUSHB[ ]	/* 45 values pushed */
0 2 0 2 106 1 12 2 0 10 0 106 0 10 11 10 106 0 11 0 5 6 11 5 90 0 3 0 4 3 4 87 9 8 2 6 6 7 83 0 7 7 13 7 68
EIF[ ]	/* EndIf */
NPUSHB[ ]	/* 30 values pushed */
1 0 108 102 93 91 79 78 75 73 69 66 62 59 51 50 36 33 29 27 18 16 11 9 0 24 1 24 13 15
CALL[ ]	/* CallFunction */";
};
width = 698;
},
{
layerId = "E59D8378-1062-4241-9A8F-EEB295F00E05";
shapes = (
{
closed = 1;
nodes = (
(686,-55,ls),
(709.333,-55,o),
(721,-50.333,o),
(721,-41,cs),
(721,-29,o),
(703.667,-29,o),
(685,-29,cs),
(653,-29,o),
(628.667,-27,o),
(612,-23,cs),
(595.333,-19,o),
(585.333,-10.333,o),
(582,3,cs),
(365,816,ls),
(361,830.667,o),
(351.667,835,o),
(345,835,cs),
(334.333,835,o),
(326.667,826.667,o),
(324,816,cs),
(309.578,766.966,o),
(264.676,604.466,o),
(224.5,456.5,cs),
(181.443,297.923,o),
(145.981,172.147,o),
(110,69,cs),
(100.667,45,o),
(90.333,33.667,o),
(61,31,cs),
(62.152,31,o),
(9.218,25,o),
(-30,25,cs),
(-43.333,25,o),
(-50,21.333,o),
(-50,14,cs),
(-50,3.333,o),
(-39,0,o),
(-27,0,cs),
(225,0,ls),
(238.333,0,o),
(247.333,1.667,o),
(252,5,cs),
(256.667,8.333,o),
(259,11.667,o),
(259,15,cs),
(259,29.667,o),
(238.333,29,o),
(225,29,cs),
(204.985,29,o),
(154,26.126,o),
(154,45,cs),
(154,74.195,o),
(186.968,172.749,o),
(206,238,c),
(477,238,l),
(481.265,218.806,o),
(496.406,169.833,o),
(511,112.5,cs),
(528.276,44.631,o),
(538,5.656,o),
(538,-5,cs),
(538,-37.488,o),
(442,-16.276,o),
(442,-41,cs),
(442,-46.333,o),
(444.167,-50,o),
(448.5,-52,cs),
(452.833,-54,o),
(461,-55,o),
(473,-55,cs)
);
},
{
closed = 1;
nodes = (
(298.667,272,o),
(259.333,272.667,o),
(218,274,c),
(233.077,338.616,o),
(254.142,418.105,o),
(284,529.5,cs),
(313.705,640.323,o),
(333.8,709,o),
(343,755,c),
(373.763,642.203,o),
(431.478,410.882,o),
(465,274,c),
(423.667,272.667,o),
(381.333,272,o),
(340,272,cs)
);
},
{
closed = 1;
nodes = (
(241.501,875,o),
(313.211,908.207,o),
(344,928,c),
(398.215,890.467,o),
(465.669,875,o),
(464,875,cs),
(469.333,875,o),
(472,878.667,o),
(472,886,cs),
(472,910.708,o),
(369.596,972,o),
(344,972,cs),
(320.629,972,o),
(217,910.79,o),
(217,886,cs),
(217,878.667,o),
(219.667,875,o),
(225,875,cs)
);
}
);
userData = {
assembly = "NPUSHB[ ]	/* 10 values pushed */
5 1 0 2 93 1 12 11 2 66
MPPEM[ ]	/* MeasurePixelPerEm */
PUSHB[ ]	/* 1 value pushed */
45
LT[ ]	/* LessThan */
IF[ ]	/* If */
NPUSHB[ ]	/* 46 values pushed */
0 2 0 2 106 1 13 2 0 11 0 106 0 12 0 6 7 12 6 90 5 1 3 0 4 3 4 87 0 11 11 20 67 10 9 2 7 7 8 83 0 8 8 13 8 68
ELSE[ ]	/* Else */
NPUSHB[ ]	/* 46 values pushed */
0 2 0 2 106 1 13 2 0 11 0 106 0 11 12 11 106 0 12 0 6 7 12 6 90 5 1 3 0 4 3 4 87 10 9 2 7 7 8 83 0 8 8 13 8 68
EIF[ ]	/* EndIf */
NPUSHB[ ]	/* 32 values pushed */
1 0 106 100 90 88 76 75 73 70 67 64 60 57 49 48 39 38 34 31 28 26 18 16 11 9 0 23 1 23 14 15
CALL[ ]	/* CallFunction */";
};
width = 681;
}
);
note = Acircumflex;
unicode = 194;
},
{
glyphname = Adieresis;
kernLeft = Aacute;
kernRight = Aacute;
lastChange = "2024-06-13 14:31:09 +0000";
layers = (
{
layerId = m01;
shapes = (
{
closed = 1;
nodes = (
(197,868.333,o),
(222.667,841,o),
(256,841,cs),
(285.675,841,o),
(323,855.646,o),
(323,911,cs),
(323,947,o),
(295,972,o),
(263,972,cs),
(216.034,972,o),
(197,930.847,o),
(197,907,cs)
);
},
{
closed = 1;
nodes = (
(404,857.333,o),
(429.667,830,o),
(463,830,cs),
(492.675,830,o),
(530,844.646,o),
(530,900,cs),
(530,937.333,o),
(502,961,o),
(470,961,cs),
(423.034,961,o),
(404,919.847,o),
(404,896,cs)
);
},
{
closed = 1;
nodes = (
(402,823.667,o),
(387,838,o),
(359,838,cs),
(324.333,838,o),
(314.333,822.667,o),
(305,792,cs),
(284.502,726.405,o),
(251.09,598.326,o),
(213,460,cs),
(175.492,323.786,o),
(134.319,181.005,o),
(107,101,cs),
(97.667,74.333,o),
(82,65.667,o),
(58,63,cs),
(54.446,63,o),
(35.539,57,o),
(1,57,cs),
(-12.333,57,o),
(-28,47.333,o),
(-28,30,cs),
(-28,11.333,o),
(-17,0,o),
(-5,0,cs),
(273,0,ls),
(299.667,0,o),
(307,14.333,o),
(307,29,cs),
(307,53,o),
(295.333,61,o),
(274,61,cs),
(250.667,61,o),
(232.833,62.333,o),
(220.5,65,cs),
(208.167,67.667,o),
(202,71.667,o),
(202,77,cs),
(202,98.202,o),
(218.883,167.573,o),
(238,214,c),
(470,214,l),
(467.773,222.165,o),
(517,58.814,o),
(517,35,cs),
(517,-16.343,o),
(464,4.508,o),
(464,-33,cs),
(464,-43.667,o),
(471,-55,o),
(495,-55,cs),
(742,-55,ls),
(764.667,-55,o),
(777,-49,o),
(777,-25,cs),
(777,-2.333,o),
(751.667,3,o),
(733,3,cs),
(648.169,3,o),
(619.061,7.727,o),
(613,35,cs),
(410,793,l),
(410,793,l)
);
},
{
closed = 1;
nodes = (
(385.454,565.914,o),
(421.464,413.633,o),
(453,298,c),
(420.39,298,o),
(415.185,296,o),
(358,296,cs),
(304.25,296,o),
(314.344,298,o),
(262,298,c),
(284.238,378.864,o),
(315.184,510.424,o),
(362,691,c)
);
}
);
userData = {
assembly = "MPPEM[ ]	/* MeasurePixelPerEm */
PUSHB[ ]	/* 1 value pushed */
22
LT[ ]	/* LessThan */
IF[ ]	/* If */
PUSHB[ ]	/* 6 values pushed */
101 1 12 11 1 66
ELSE[ ]	/* Else */
PUSHB[ ]	/* 6 values pushed */
101 1 12 3 1 66
EIF[ ]	/* EndIf */
MPPEM[ ]	/* MeasurePixelPerEm */
PUSHB[ ]	/* 1 value pushed */
22
LT[ ]	/* LessThan */
IF[ ]	/* If */
NPUSHB[ ]	/* 43 values pushed */
2 1 0 3 1 1 11 0 1 91 0 12 0 6 7 12 6 90 0 4 0 5 4 5 87 0 11 11 20 67 10 9 2 7 7 8 83 0 8 8 13 8 68
ELSE[ ]	/* Else */
MPPEM[ ]	/* MeasurePixelPerEm */
PUSHB[ ]	/* 1 value pushed */
45
LT[ ]	/* LessThan */
IF[ ]	/* If */
NPUSHB[ ]	/* 49 values pushed */
0 0 0 1 11 0 1 91 0 2 0 3 12 2 3 91 0 12 0 6 7 12 6 90 0 4 0 5 4 5 87 0 11 11 20 67 10 9 2 7 7 8 83 0 8 8 13 8 68
ELSE[ ]	/* Else */
NPUSHB[ ]	/* 52 values pushed */
0 11 1 3 1 11 3 104 0 0 0 1 11 0 1 91 0 2 0 3 12 2 3 91 0 12 0 6 7 12 6 90 0 4 0 5 4 5 87 10 9 2 7 7 8 83 0 8 8 13 8 68
EIF[ ]	/* EndIf */
EIF[ ]	/* EndIf */
NPUSHB[ ]	/* 19 values pushed */
116 106 98 96 84 83 80 78 52 39 28 52 53 38 38 38 36 13 24
CALL[ ]	/* CallFunction */";
};
width = 710;
},
{
layerId = "62092E79-60F6-4D0B-8A38-B9DDC6B60A9E";
shapes = (
{
closed = 1;
nodes = (
(200,882.667,o),
(222.333,859,o),
(249,859,cs),
(274.333,859,o),
(305,872,o),
(305,920,cs),
(305,950.667,o),
(282.667,972,o),
(256,972,cs),
(217.685,972,o),
(200,936.643,o),
(200,916,cs)
);
},
{
closed = 1;
nodes = (
(407,870.667,o),
(429.333,847,o),
(456,847,cs),
(481.333,847,o),
(512,860,o),
(512,908,cs),
(512,938.667,o),
(489.667,960,o),
(463,960,cs),
(424.685,960,o),
(407,924.643,o),
(407,904,cs)
);
},
{
closed = 1;
nodes = (
(384,830,o),
(372.333,837,o),
(353,837,cs),
(329,837,o),
(319.667,826.667,o),
(317,816,cs),
(293.137,737.253,o),
(267.659,639.167,o),
(219.5,466.5,cs),
(174.121,303.799,o),
(138.041,173.116,o),
(108,89,cs),
(100,65,o),
(87,53.667,o),
(59,51,cs),
(59.845,51,o),
(15.196,45,o),
(-12,45,cs),
(-25.333,45,o),
(-37,37.333,o),
(-37,24,cs),
(-37,9.333,o),
(-26,0,o),
(-14,0,cs),
(253,0,ls),
(279.667,0,o),
(287,12,o),
(287,24,cs),
(287,44,o),
(271.333,49,o),
(258,49,cs),
(223.943,49,o),
(182,48.548,o),
(182,65,cs),
(182,92.498,o),
(208.252,175.15,o),
(225,223,c),
(473,223,l),
(477.089,206.644,o),
(489.528,168.266,o),
(503,115.5,cs),
(517.884,57.204,o),
(526,23.825,o),
(526,15,cs),
(526,-32.87,o),
(455,-13.632,o),
(455,-39,cs),
(455,-44.333,o),
(457.167,-48.333,o),
(461.5,-51,cs),
(465.833,-53.667,o),
(474,-55,o),
(486,-55,cs),
(719,-55,ls),
(741.667,-55,o),
(754,-49.667,o),
(754,-31,cs),
(754,-12.333,o),
(731.667,-9,o),
(713,-9,cs),
(649,-9,o),
(608,-7.667,o),
(600,23,cs),
(388,816,l),
(388,816,l)
);
},
{
closed = 1;
nodes = (
(381.348,597.479,o),
(430.777,393.353,o),
(458,289,c),
(442.667,288.333,o),
(426.833,288,o),
(410.5,288,cs),
(394.167,288,o),
(378.333,288,o),
(363,288,cs),
(342.333,288,o),
(322.5,288,o),
(303.5,288,cs),
(284.5,288,o),
(264.667,288.333,o),
(244,289,c),
(254.823,332.292,o),
(278.404,424.346,o),
(303.5,516,cs),
(330.088,613.105,o),
(346.703,679.672,o),
(356,715,c)
);
}
);
userData = {
assembly = "PUSHB[ ]	/* 6 values pushed */
98 1 12 11 1 66
MPPEM[ ]	/* MeasurePixelPerEm */
PUSHB[ ]	/* 1 value pushed */
45
LT[ ]	/* LessThan */
IF[ ]	/* If */
NPUSHB[ ]	/* 49 values pushed */
0 0 0 1 3 0 1 91 0 2 0 3 11 2 3 91 0 12 0 6 7 12 6 90 0 4 0 5 4 5 87 0 11 11 20 67 10 9 2 7 7 8 83 0 8 8 13 8 68
ELSE[ ]	/* Else */
NPUSHB[ ]	/* 52 values pushed */
0 11 3 12 3 11 12 104 0 0 0 1 3 0 1 91 0 2 0 3 11 2 3 91 0 12 0 6 7 12 6 90 0 4 0 5 4 5 87 10 9 2 7 7 8 83 0 8 8 13 8 68
EIF[ ]	/* EndIf */
NPUSHB[ ]	/* 19 values pushed */
111 105 96 94 82 81 78 76 52 56 30 52 36 36 38 36 36 13 24
CALL[ ]	/* CallFunction */";
};
width = 698;
},
{
layerId = "E59D8378-1062-4241-9A8F-EEB295F00E05";
shapes = (
{
closed = 1;
nodes = (
(686,-55,ls),
(709.333,-55,o),
(721,-50.333,o),
(721,-41,cs),
(721,-29,o),
(703.667,-29,o),
(685,-29,cs),
(653,-29,o),
(628.667,-27,o),
(612,-23,cs),
(595.333,-19,o),
(585.333,-10.333,o),
(582,3,cs),
(365,816,ls),
(361,830.667,o),
(351.667,835,o),
(345,835,cs),
(334.333,835,o),
(326.667,826.667,o),
(324,816,cs),
(309.578,766.966,o),
(264.676,604.466,o),
(224.5,456.5,cs),
(181.443,297.923,o),
(145.981,172.147,o),
(110,69,cs),
(100.667,45,o),
(90.333,33.667,o),
(61,31,cs),
(62.152,31,o),
(9.218,25,o),
(-30,25,cs),
(-43.333,25,o),
(-50,21.333,o),
(-50,14,cs),
(-50,3.333,o),
(-39,0,o),
(-27,0,cs),
(225,0,ls),
(238.333,0,o),
(247.333,1.667,o),
(252,5,cs),
(256.667,8.333,o),
(259,11.667,o),
(259,15,cs),
(259,29.667,o),
(238.333,29,o),
(225,29,cs),
(204.985,29,o),
(154,26.126,o),
(154,45,cs),
(154,74.195,o),
(186.968,172.749,o),
(206,238,c),
(477,238,l),
(481.265,218.806,o),
(496.406,169.833,o),
(511,112.5,cs),
(528.276,44.631,o),
(538,5.656,o),
(538,-5,cs),
(538,-37.488,o),
(442,-16.276,o),
(442,-41,cs),
(442,-46.333,o),
(444.167,-50,o),
(448.5,-52,cs),
(452.833,-54,o),
(461,-55,o),
(473,-55,cs)
);
},
{
closed = 1;
nodes = (
(298.667,272,o),
(259.333,272.667,o),
(218,274,c),
(233.077,338.616,o),
(254.142,418.105,o),
(284,529.5,cs),
(313.705,640.323,o),
(333.8,709,o),
(343,755,c),
(373.763,642.203,o),
(431.478,410.882,o),
(465,274,c),
(423.667,272.667,o),
(381.333,272,o),
(340,272,cs)
);
},
{
closed = 1;
nodes = (
(257.667,889,o),
(280,899,o),
(280,935,cs),
(280,957.667,o),
(264.667,972,o),
(246,972,cs),
(218.258,972,o),
(205,944.895,o),
(205,931,cs),
(205,907,o),
(220.333,889,o),
(239,889,cs)
);
},
{
closed = 1;
nodes = (
(464.667,875,o),
(487,885,o),
(487,921,cs),
(487,943.667,o),
(471.667,958,o),
(453,958,cs),
(425.258,958,o),
(412,930.895,o),
(412,917,cs),
(412,893,o),
(427.333,875,o),
(446,875,cs)
);
}
);
userData = {
assembly = "PUSHB[ ]	/* 6 values pushed */
97 1 13 12 1 66
MPPEM[ ]	/* MeasurePixelPerEm */
PUSHB[ ]	/* 1 value pushed */
45
LT[ ]	/* LessThan */
IF[ ]	/* If */
NPUSHB[ ]	/* 50 values pushed */
0 0 0 1 3 0 1 91 0 2 0 3 12 2 3 91 0 13 0 7 8 13 7 90 6 1 4 0 5 4 5 87 0 12 12 20 67 11 10 2 8 8 9 83 0 9 9 13 9 68
ELSE[ ]	/* Else */
NPUSHB[ ]	/* 53 values pushed */
0 12 3 13 3 12 13 104 0 0 0 1 3 0 1 91 0 2 0 3 12 2 3 91 0 13 0 7 8 13 7 90 6 1 4 0 5 4 5 87 11 10 2 8 8 9 83 0 9 9 13 9 68
EIF[ ]	/* EndIf */
NPUSHB[ ]	/* 21 values pushed */
110 104 94 92 80 79 77 74 71 68 56 25 20 51 36 36 38 36 36 14 24
CALL[ ]	/* CallFunction */";
};
width = 681;
}
);
note = Adieresis;
unicode = 196;
},
{
glyphname = Agrave;
kernLeft = Aacute;
kernRight = Aacute;
lastChange = "2024-06-13 14:31:09 +0000";
layers = (
{
layerId = m01;
shapes = (
{
closed = 1;
nodes = (
(293,896.665,o),
(379.564,841,o),
(413,841,cs),
(433,841,o),
(448,856,o),
(448,872,cs),
(448,897.591,o),
(374.088,972,o),
(334,972,cs),
(307.333,972,o),
(293,953.333,o),
(293,936,cs)
);
},
{
closed = 1;
nodes = (
(402,823.667,o),
(387,838,o),
(359,838,cs),
(324.333,838,o),
(314.333,822.667,o),
(305,792,cs),
(284.502,726.405,o),
(251.09,598.326,o),
(213,460,cs),
(175.492,323.786,o),
(134.319,181.005,o),
(107,101,cs),
(97.667,74.333,o),
(82,65.667,o),
(58,63,cs),
(54.446,63,o),
(35.539,57,o),
(1,57,cs),
(-12.333,57,o),
(-28,47.333,o),
(-28,30,cs),
(-28,11.333,o),
(-17,0,o),
(-5,0,cs),
(273,0,ls),
(299.667,0,o),
(307,14.333,o),
(307,29,cs),
(307,53,o),
(295.333,61,o),
(274,61,cs),
(250.667,61,o),
(232.833,62.333,o),
(220.5,65,cs),
(208.167,67.667,o),
(202,71.667,o),
(202,77,cs),
(202,98.202,o),
(218.883,167.573,o),
(238,214,c),
(470,214,l),
(467.773,222.165,o),
(517,58.814,o),
(517,35,cs),
(517,-16.343,o),
(464,4.508,o),
(464,-33,cs),
(464,-43.667,o),
(471,-55,o),
(495,-55,cs),
(742,-55,ls),
(764.667,-55,o),
(777,-49,o),
(777,-25,cs),
(777,-2.333,o),
(751.667,3,o),
(733,3,cs),
(648.169,3,o),
(619.061,7.727,o),
(613,35,cs),
(410,793,l),
(410,793,l)
);
},
{
closed = 1;
nodes = (
(385.454,565.914,o),
(421.464,413.633,o),
(453,298,c),
(420.39,298,o),
(415.185,296,o),
(358,296,cs),
(304.25,296,o),
(314.344,298,o),
(262,298,c),
(284.238,378.864,o),
(315.184,510.424,o),
(362,691,c)
);
}
);
userData = {
assembly = "PUSHB[ ]	/* 6 values pushed */
85 1 10 9 1 66
MPPEM[ ]	/* MeasurePixelPerEm */
PUSHB[ ]	/* 1 value pushed */
45
LT[ ]	/* LessThan */
IF[ ]	/* If */
NPUSHB[ ]	/* 43 values pushed */
0 0 1 0 106 0 1 9 1 106 0 10 0 4 5 10 4 90 0 2 0 3 2 3 87 0 9 9 20 67 8 7 2 5 5 6 83 0 6 6 13 6 68
ELSE[ ]	/* Else */
NPUSHB[ ]	/* 43 values pushed */
0 0 1 0 106 0 1 9 1 106 0 9 10 9 106 0 10 0 4 5 10 4 90 0 2 0 3 2 3 87 8 7 2 5 5 6 83 0 6 6 13 6 68
EIF[ ]	/* EndIf */
NPUSHB[ ]	/* 15 values pushed */
100 90 82 80 19 36 52 39 28 52 55 38 34 11 24
CALL[ ]	/* CallFunction */";
};
width = 710;
},
{
layerId = "62092E79-60F6-4D0B-8A38-B9DDC6B60A9E";
shapes = (
{
closed = 1;
nodes = (
(291,909.521,o),
(376.059,854,o),
(405,854,cs),
(419.667,854,o),
(429,863.667,o),
(429,877,cs),
(429,903.873,o),
(352.247,972,o),
(323,972,cs),
(303,972,o),
(291,959.667,o),
(291,941,cs)
);
},
{
closed = 1;
nodes = (
(384,830,o),
(372.333,837,o),
(353,837,cs),
(329,837,o),
(319.667,826.667,o),
(317,816,cs),
(293.137,737.253,o),
(267.659,639.167,o),
(219.5,466.5,cs),
(174.121,303.799,o),
(138.041,173.116,o),
(108,89,cs),
(100,65,o),
(87,53.667,o),
(59,51,cs),
(59.845,51,o),
(15.196,45,o),
(-12,45,cs),
(-25.333,45,o),
(-37,37.333,o),
(-37,24,cs),
(-37,9.333,o),
(-26,0,o),
(-14,0,cs),
(253,0,ls),
(279.667,0,o),
(287,12,o),
(287,24,cs),
(287,44,o),
(271.333,49,o),
(258,49,cs),
(223.943,49,o),
(182,48.548,o),
(182,65,cs),
(182,92.498,o),
(208.252,175.15,o),
(225,223,c),
(473,223,l),
(477.089,206.644,o),
(489.528,168.266,o),
(503,115.5,cs),
(517.884,57.204,o),
(526,23.825,o),
(526,15,cs),
(526,-32.87,o),
(455,-13.632,o),
(455,-39,cs),
(455,-44.333,o),
(457.167,-48.333,o),
(461.5,-51,cs),
(465.833,-53.667,o),
(474,-55,o),
(486,-55,cs),
(719,-55,ls),
(741.667,-55,o),
(754,-49.667,o),
(754,-31,cs),
(754,-12.333,o),
(731.667,-9,o),
(713,-9,cs),
(649,-9,o),
(608,-7.667,o),
(600,23,cs),
(388,816,l),
(388,816,l)
);
},
{
closed = 1;
nodes = (
(381.348,597.479,o),
(430.777,393.353,o),
(458,289,c),
(442.667,288.333,o),
(426.833,288,o),
(410.5,288,cs),
(394.167,288,o),
(378.333,288,o),
(363,288,cs),
(342.333,288,o),
(322.5,288,o),
(303.5,288,cs),
(284.5,288,o),
(264.667,288.333,o),
(244,289,c),
(254.823,332.292,o),
(278.404,424.346,o),
(303.5,516,cs),
(330.088,613.105,o),
(346.703,679.672,o),
(356,715,c)
);
}
);
userData = {
assembly = "PUSHB[ ]	/* 6 values pushed */
86 1 10 9 1 66
MPPEM[ ]	/* MeasurePixelPerEm */
PUSHB[ ]	/* 1 value pushed */
45
LT[ ]	/* LessThan */
IF[ ]	/* If */
NPUSHB[ ]	/* 43 values pushed */
0 0 1 0 106 0 1 9 1 106 0 10 0 4 5 10 4 90 0 2 0 3 2 3 87 0 9 9 20 67 8 7 2 5 5 6 83 0 6 6 13 6 68
ELSE[ ]	/* Else */
NPUSHB[ ]	/* 43 values pushed */
0 0 1 0 106 0 1 9 1 106 0 9 10 9 106 0 10 0 4 5 10 4 90 0 2 0 3 2 3 87 8 7 2 5 5 6 83 0 6 6 13 6 68
EIF[ ]	/* EndIf */
NPUSHB[ ]	/* 15 values pushed */
99 93 84 82 19 36 52 56 30 52 38 38 34 11 24
CALL[ ]	/* CallFunction */";
};
width = 698;
},
{
layerId = "E59D8378-1062-4241-9A8F-EEB295F00E05";
shapes = (
{
closed = 1;
nodes = (
(686,-55,ls),
(709.333,-55,o),
(721,-50.333,o),
(721,-41,cs),
(721,-29,o),
(703.667,-29,o),
(685,-29,cs),
(653,-29,o),
(628.667,-27,o),
(612,-23,cs),
(595.333,-19,o),
(585.333,-10.333,o),
(582,3,cs),
(365,816,ls),
(361,830.667,o),
(351.667,835,o),
(345,835,cs),
(334.333,835,o),
(326.667,826.667,o),
(324,816,cs),
(309.578,766.966,o),
(264.676,604.466,o),
(224.5,456.5,cs),
(181.443,297.923,o),
(145.981,172.147,o),
(110,69,cs),
(100.667,45,o),
(90.333,33.667,o),
(61,31,cs),
(62.152,31,o),
(9.218,25,o),
(-30,25,cs),
(-43.333,25,o),
(-50,21.333,o),
(-50,14,cs),
(-50,3.333,o),
(-39,0,o),
(-27,0,cs),
(225,0,ls),
(238.333,0,o),
(247.333,1.667,o),
(252,5,cs),
(256.667,8.333,o),
(259,11.667,o),
(259,15,cs),
(259,29.667,o),
(238.333,29,o),
(225,29,cs),
(204.985,29,o),
(154,26.126,o),
(154,45,cs),
(154,74.195,o),
(186.968,172.749,o),
(206,238,c),
(477,238,l),
(481.265,218.806,o),
(496.406,169.833,o),
(511,112.5,cs),
(528.276,44.631,o),
(538,5.656,o),
(538,-5,cs),
(538,-37.488,o),
(442,-16.276,o),
(442,-41,cs),
(442,-46.333,o),
(444.167,-50,o),
(448.5,-52,cs),
(452.833,-54,o),
(461,-55,o),
(473,-55,cs)
);
},
{
closed = 1;
nodes = (
(298.667,272,o),
(259.333,272.667,o),
(218,274,c),
(233.077,338.616,o),
(254.142,418.105,o),
(284,529.5,cs),
(313.705,640.323,o),
(333.8,709,o),
(343,755,c),
(373.763,642.203,o),
(431.478,410.882,o),
(465,274,c),
(423.667,272.667,o),
(381.333,272,o),
(340,272,cs)
);
},
{
closed = 1;
nodes = (
(399.333,875,o),
(402,878.667,o),
(402,886,cs),
(402,910.697,o),
(326.988,972,o),
(307,972,cs),
(296.333,972,o),
(288,968.667,o),
(288,950,cs),
(288,928.367,o),
(377.689,875,o),
(394,875,cs)
);
}
);
userData = {
assembly = "PUSHB[ ]	/* 6 values pushed */
84 1 11 10 1 66
MPPEM[ ]	/* MeasurePixelPerEm */
PUSHB[ ]	/* 1 value pushed */
45
LT[ ]	/* LessThan */
IF[ ]	/* If */
NPUSHB[ ]	/* 44 values pushed */
0 0 1 0 106 0 1 10 1 106 0 11 0 5 6 11 5 90 4 1 2 0 3 2 3 87 0 10 10 20 67 9 8 2 6 6 7 83 0 7 7 13 7 68
ELSE[ ]	/* Else */
NPUSHB[ ]	/* 44 values pushed */
0 0 1 0 106 0 1 10 1 106 0 10 11 10 106 0 11 0 5 6 11 5 90 4 1 2 0 3 2 3 87 9 8 2 6 6 7 83 0 7 7 13 7 68
EIF[ ]	/* EndIf */
NPUSHB[ ]	/* 17 values pushed */
97 91 81 79 67 66 51 52 56 25 20 51 38 37 34 12 24
CALL[ ]	/* CallFunction */";
};
width = 681;
}
);
note = Agrave;
unicode = 192;
},
{
glyphname = Amacron;
kernLeft = Aacute;
kernRight = Aacute;
lastChange = "2024-06-13 14:31:17 +0000";
layers = (
{
layerId = m01;
shapes = (
{
closed = 1;
nodes = (
(402,823.667,o),
(387,838,o),
(359,838,cs),
(324.333,838,o),
(314.333,822.667,o),
(305,792,cs),
(284.502,726.405,o),
(251.09,598.326,o),
(213,460,cs),
(175.492,323.786,o),
(134.319,181.005,o),
(107,101,cs),
(97.667,74.333,o),
(82,65.667,o),
(58,63,cs),
(54.446,63,o),
(35.539,57,o),
(1,57,cs),
(-12.333,57,o),
(-28,47.333,o),
(-28,30,cs),
(-28,11.333,o),
(-17,0,o),
(-5,0,cs),
(273,0,ls),
(299.667,0,o),
(307,14.333,o),
(307,29,cs),
(307,53,o),
(295.333,61,o),
(274,61,cs),
(250.667,61,o),
(232.833,62.333,o),
(220.5,65,cs),
(208.167,67.667,o),
(202,71.667,o),
(202,77,cs),
(202,98.202,o),
(218.883,167.573,o),
(238,214,c),
(470,214,l),
(467.773,222.165,o),
(517,58.814,o),
(517,35,cs),
(517,-16.343,o),
(464,4.508,o),
(464,-33,cs),
(464,-43.667,o),
(471,-55,o),
(495,-55,cs),
(742,-55,ls),
(764.667,-55,o),
(777,-49,o),
(777,-25,cs),
(777,-2.333,o),
(751.667,3,o),
(733,3,cs),
(648.169,3,o),
(619.061,7.727,o),
(613,35,cs),
(410,793,l),
(410,793,l)
);
},
{
closed = 1;
nodes = (
(385.454,565.914,o),
(421.464,413.633,o),
(453,298,c),
(420.39,298,o),
(415.185,296,o),
(358,296,cs),
(304.25,296,o),
(314.344,298,o),
(262,298,c),
(284.238,378.864,o),
(315.184,510.424,o),
(362,691,c)
);
},
{
closed = 1;
nodes = (
(491,960,o),
(472.667,959.5,o),
(452,958.5,cs),
(431.333,957.5,o),
(407,957,o),
(379,957,cs),
(336.698,957,o),
(288.437,959,o),
(258,959,cs),
(235.333,959,o),
(225,938.667,o),
(225,920,cs),
(225,901.333,o),
(239.333,880,o),
(258,880,cs),
(328.305,880,o),
(425.446,881,o),
(499,881,cs),
(527.782,881,o),
(535,907.801,o),
(535,923,cs),
(535,943,o),
(521.667,960,o),
(507,960,cs)
);
}
);
userData = {
assembly = "PUSHB[ ]	/* 6 values pushed */
69 1 8 7 1 66
MPPEM[ ]	/* MeasurePixelPerEm */
PUSHB[ ]	/* 1 value pushed */
45
LT[ ]	/* LessThan */
IF[ ]	/* If */
NPUSHB[ ]	/* 42 values pushed */
11 1 9 0 10 7 9 10 91 0 8 0 2 3 8 2 90 0 0 0 1 0 1 87 0 7 7 20 67 6 5 2 3 3 4 83 0 4 4 13 4 68
ELSE[ ]	/* Else */
NPUSHB[ ]	/* 45 values pushed */
0 7 10 8 10 7 8 104 11 1 9 0 10 7 9 10 91 0 8 0 2 3 8 2 90 0 0 0 1 0 1 87 6 5 2 3 3 4 83 0 4 4 13 4 68
EIF[ ]	/* EndIf */
NPUSHB[ ]	/* 19 values pushed */
90 89 103 96 89 115 90 107 168 44 19 36 52 39 28 52 51 12 24
CALL[ ]	/* CallFunction */";
};
width = 710;
},
{
layerId = "62092E79-60F6-4D0B-8A38-B9DDC6B60A9E";
shapes = (
{
closed = 1;
nodes = (
(384,830,o),
(372.333,837,o),
(353,837,cs),
(329,837,o),
(319.667,826.667,o),
(317,816,cs),
(293.137,737.253,o),
(267.659,639.167,o),
(219.5,466.5,cs),
(174.121,303.799,o),
(138.041,173.116,o),
(108,89,cs),
(100,65,o),
(87,53.667,o),
(59,51,cs),
(59.845,51,o),
(15.196,45,o),
(-12,45,cs),
(-25.333,45,o),
(-37,37.333,o),
(-37,24,cs),
(-37,9.333,o),
(-26,0,o),
(-14,0,cs),
(253,0,ls),
(279.667,0,o),
(287,12,o),
(287,24,cs),
(287,44,o),
(271.333,49,o),
(258,49,cs),
(223.943,49,o),
(182,48.548,o),
(182,65,cs),
(182,92.498,o),
(208.252,175.15,o),
(225,223,c),
(473,223,l),
(477.089,206.644,o),
(489.528,168.266,o),
(503,115.5,cs),
(517.884,57.204,o),
(526,23.825,o),
(526,15,cs),
(526,-32.87,o),
(455,-13.632,o),
(455,-39,cs),
(455,-44.333,o),
(457.167,-48.333,o),
(461.5,-51,cs),
(465.833,-53.667,o),
(474,-55,o),
(486,-55,cs),
(719,-55,ls),
(741.667,-55,o),
(754,-49.667,o),
(754,-31,cs),
(754,-12.333,o),
(731.667,-9,o),
(713,-9,cs),
(649,-9,o),
(608,-7.667,o),
(600,23,cs),
(388,816,l),
(388,816,l)
);
},
{
closed = 1;
nodes = (
(381.348,597.479,o),
(430.777,393.353,o),
(458,289,c),
(442.667,288.333,o),
(426.833,288,o),
(410.5,288,cs),
(394.167,288,o),
(378.333,288,o),
(363,288,cs),
(342.333,288,o),
(322.5,288,o),
(303.5,288,cs),
(284.5,288,o),
(264.667,288.333,o),
(244,289,c),
(254.823,332.292,o),
(278.404,424.346,o),
(303.5,516,cs),
(330.088,613.105,o),
(346.703,679.672,o),
(356,715,c)
);
},
{
closed = 1;
nodes = (
(482,939,o),
(464,939,o),
(443,938,cs),
(422,937,o),
(398,936,o),
(370,936,cs),
(328,936,o),
(279,938,o),
(249,938,cs),
(230,938,o),
(223,923,o),
(223,908,cs),
(223,893,o),
(234,877,o),
(249,877,cs),
(319,877,o),
(416,878,o),
(490,878,cs),
(513,878,o),
(519,900,o),
(519,911,cs),
(519,926,o),
(509,939,o),
(498,939,cs)
);
}
);
userData = {
assembly = "PUSHB[ ]	/* 6 values pushed */
71 1 8 7 1 66
MPPEM[ ]	/* MeasurePixelPerEm */
PUSHB[ ]	/* 1 value pushed */
45
LT[ ]	/* LessThan */
IF[ ]	/* If */
NPUSHB[ ]	/* 42 values pushed */
11 1 9 0 10 7 9 10 91 0 8 0 2 3 8 2 90 0 0 0 1 0 1 87 0 7 7 20 67 6 5 2 3 3 4 83 0 4 4 13 4 68
ELSE[ ]	/* Else */
NPUSHB[ ]	/* 45 values pushed */
0 7 10 8 10 7 8 104 11 1 9 0 10 7 9 10 91 0 8 0 2 3 8 2 90 0 0 0 1 0 1 87 6 5 2 3 3 4 83 0 4 4 13 4 68
EIF[ ]	/* EndIf */
NPUSHB[ ]	/* 19 values pushed */
90 89 101 94 89 113 90 105 105 44 19 36 52 56 30 52 35 12 35
CALL[ ]	/* CallFunction */";
};
width = 698;
},
{
layerId = "E59D8378-1062-4241-9A8F-EEB295F00E05";
shapes = (
{
closed = 1;
nodes = (
(686,-55,ls),
(709.333,-55,o),
(721,-50.333,o),
(721,-41,cs),
(721,-29,o),
(703.667,-29,o),
(685,-29,cs),
(653,-29,o),
(628.667,-27,o),
(612,-23,cs),
(595.333,-19,o),
(585.333,-10.333,o),
(582,3,cs),
(365,816,ls),
(361,830.667,o),
(351.667,835,o),
(345,835,cs),
(334.333,835,o),
(326.667,826.667,o),
(324,816,cs),
(309.578,766.966,o),
(264.676,604.466,o),
(224.5,456.5,cs),
(181.443,297.923,o),
(145.981,172.147,o),
(110,69,cs),
(100.667,45,o),
(90.333,33.667,o),
(61,31,cs),
(62.152,31,o),
(9.218,25,o),
(-30,25,cs),
(-43.333,25,o),
(-50,21.333,o),
(-50,14,cs),
(-50,3.333,o),
(-39,0,o),
(-27,0,cs),
(225,0,ls),
(238.333,0,o),
(247.333,1.667,o),
(252,5,cs),
(256.667,8.333,o),
(259,11.667,o),
(259,15,cs),
(259,29.667,o),
(238.333,29,o),
(225,29,cs),
(204.985,29,o),
(154,26.126,o),
(154,45,cs),
(154,74.195,o),
(186.968,172.749,o),
(206,238,c),
(477,238,l),
(481.265,218.806,o),
(496.406,169.833,o),
(511,112.5,cs),
(528.276,44.631,o),
(538,5.656,o),
(538,-5,cs),
(538,-37.488,o),
(442,-16.276,o),
(442,-41,cs),
(442,-46.333,o),
(444.167,-50,o),
(448.5,-52,cs),
(452.833,-54,o),
(461,-55,o),
(473,-55,cs)
);
},
{
closed = 1;
nodes = (
(298.667,272,o),
(259.333,272.667,o),
(218,274,c),
(233.077,338.616,o),
(254.142,418.105,o),
(284,529.5,cs),
(313.705,640.323,o),
(333.8,709,o),
(343,755,c),
(373.763,642.203,o),
(431.478,410.882,o),
(465,274,c),
(423.667,272.667,o),
(381.333,272,o),
(340,272,cs)
);
},
{
closed = 1;
nodes = (
(306.305,875,o),
(403.446,876,o),
(477,876,cs),
(491.667,876,o),
(496,887.333,o),
(496,894,cs),
(496,900.667,o),
(490.333,907,o),
(485,907,cs),
(469,907,o),
(450.667,906.5,o),
(430,905.5,cs),
(409.333,904.5,o),
(385,904,o),
(357,904,cs),
(314.698,904,o),
(266.437,906,o),
(236,906,cs),
(225.333,906,o),
(220,897.667,o),
(220,891,cs),
(220,884.333,o),
(226.667,875,o),
(236,875,cs)
);
}
);
userData = {
assembly = "PUSHB[ ]	/* 6 values pushed */
69 1 9 8 1 66
MPPEM[ ]	/* MeasurePixelPerEm */
PUSHB[ ]	/* 1 value pushed */
45
LT[ ]	/* LessThan */
IF[ ]	/* If */
NPUSHB[ ]	/* 43 values pushed */
12 1 10 0 11 8 10 11 91 0 9 0 3 4 9 3 90 2 1 0 0 1 0 1 87 0 8 8 20 67 7 6 2 4 4 5 83 0 5 5 13 5 68
ELSE[ ]	/* Else */
NPUSHB[ ]	/* 46 values pushed */
0 8 11 9 11 8 9 104 12 1 10 0 11 8 10 11 91 0 9 0 3 4 9 3 90 2 1 0 0 1 0 1 87 7 6 2 4 4 5 83 0 5 5 13 5 68
EIF[ ]	/* EndIf */
NPUSHB[ ]	/* 21 values pushed */
88 87 99 92 87 111 88 103 82 76 44 18 51 52 56 25 20 51 34 13 24
CALL[ ]	/* CallFunction */";
};
width = 681;
}
);
note = Amacron;
unicode = 256;
},
{
glyphname = Aogonek;
kernLeft = Aacute;
kernRight = Aacute;
lastChange = "2024-06-13 14:31:17 +0000";
layers = (
{
layerId = m01;
shapes = (
{
closed = 1;
nodes = (
(674.345,-212,o),
(705,-182.646,o),
(705,-159,cs),
(705,-147,o),
(693.333,-135,o),
(680,-135,cs),
(660.449,-135,o),
(661.136,-159,o),
(620,-159,cs),
(605.333,-159,o),
(591,-152.667,o),
(591,-138,cs),
(591,-111.333,o),
(606.667,-69.667,o),
(636,-55,c),
(742,-55,ls),
(764.667,-55,o),
(777,-49,o),
(777,-25,cs),
(777,-2.333,o),
(751.667,3,o),
(733,3,cs),
(648.169,3,o),
(619.061,7.727,o),
(613,35,cs),
(410,793,ls),
(402,823.667,o),
(387,838,o),
(359,838,cs),
(324.333,838,o),
(314.333,822.667,o),
(305,792,cs),
(284.502,726.405,o),
(251.09,598.326,o),
(213,460,cs),
(175.492,323.786,o),
(134.319,181.005,o),
(107,101,cs),
(97.667,74.333,o),
(82,65.667,o),
(58,63,cs),
(54.446,63,o),
(35.539,57,o),
(1,57,cs),
(-12.333,57,o),
(-28,47.333,o),
(-28,30,cs),
(-28,11.333,o),
(-17,0,o),
(-5,0,cs),
(273,0,ls),
(299.667,0,o),
(307,14.333,o),
(307,29,cs),
(307,53,o),
(295.333,61,o),
(274,61,cs),
(250.667,61,o),
(232.833,62.333,o),
(220.5,65,cs),
(208.167,67.667,o),
(202,71.667,o),
(202,77,cs),
(202,98.202,o),
(218.883,167.573,o),
(238,214,c),
(470,214,l),
(467.773,222.165,o),
(517,58.814,o),
(517,35,cs),
(517,-16.343,o),
(464,4.508,o),
(464,-33,cs),
(464,-43.667,o),
(471,-55,o),
(495,-55,cs),
(579,-55,l),
(553.769,-69.017,o),
(512,-93.558,o),
(512,-137,cs),
(512,-188.579,o),
(572.091,-212,o),
(622,-212,cs)
);
},
{
closed = 1;
nodes = (
(385.454,565.914,o),
(421.464,413.633,o),
(453,298,c),
(420.39,298,o),
(415.185,296,o),
(358,296,cs),
(304.25,296,o),
(314.344,298,o),
(262,298,c),
(284.238,378.864,o),
(315.184,510.424,o),
(362,691,c)
);
}
);
userData = {
assembly = "PUSHB[ ]	/* 6 values pushed */
99 1 12 7 1 66
MPPEM[ ]	/* MeasurePixelPerEm */
PUSHB[ ]	/* 1 value pushed */
20
LT[ ]	/* LessThan */
IF[ ]	/* If */
NPUSHB[ ]	/* 54 values pushed */
0 11 1 10 1 11 10 104 0 12 0 2 3 12 2 90 0 8 9 1 1 11 8 1 91 0 7 7 20 67 6 5 2 3 3 4 83 0 4 4 13 67 0 10 10 0 83 13 1 0 0 17 0 68
ELSE[ ]	/* Else */
MPPEM[ ]	/* MeasurePixelPerEm */
PUSHB[ ]	/* 1 value pushed */
45
LT[ ]	/* LessThan */
IF[ ]	/* If */
NPUSHB[ ]	/* 51 values pushed */
0 11 1 10 1 11 10 104 0 12 0 2 3 12 2 90 0 8 9 1 1 11 8 1 91 0 10 13 1 0 10 0 87 0 7 7 20 67 6 5 2 3 3 4 83 0 4 4 13 4 68
ELSE[ ]	/* Else */
NPUSHB[ ]	/* 51 values pushed */
0 7 12 7 106 0 11 1 10 1 11 10 104 0 12 0 2 3 12 2 90 0 8 9 1 1 11 8 1 91 0 10 13 1 0 10 0 87 6 5 2 3 3 4 83 0 4 4 13 4 68
EIF[ ]	/* EndIf */
EIF[ ]	/* EndIf */
NPUSHB[ ]	/* 32 values pushed */
1 0 114 104 92 90 87 85 80 78 74 71 65 63 51 50 47 45 41 38 34 32 25 24 12 10 0 98 1 98 14 15
CALL[ ]	/* CallFunction */";
};
width = 710;
},
{
layerId = "62092E79-60F6-4D0B-8A38-B9DDC6B60A9E";
shapes = (
{
closed = 1;
nodes = (
(384,830,o),
(372.333,837,o),
(353,837,cs),
(329,837,o),
(319.667,826.667,o),
(317,816,cs),
(293.137,737.253,o),
(267.659,639.167,o),
(219.5,466.5,cs),
(174.121,303.799,o),
(138.041,173.116,o),
(108,89,cs),
(100,65,o),
(87,53.667,o),
(59,51,cs),
(59.845,51,o),
(15.196,45,o),
(-12,45,cs),
(-25.333,45,o),
(-37,37.333,o),
(-37,24,cs),
(-37,9.333,o),
(-26,0,o),
(-14,0,cs),
(253,0,ls),
(279.667,0,o),
(287,12,o),
(287,24,cs),
(287,44,o),
(271.333,49,o),
(258,49,cs),
(223.943,49,o),
(182,48.548,o),
(182,65,cs),
(182,92.498,o),
(208.252,175.15,o),
(225,223,c),
(473,223,l),
(477.089,206.644,o),
(489.528,168.266,o),
(503,115.5,cs),
(517.884,57.204,o),
(526,23.825,o),
(526,15,cs),
(526,-32.87,o),
(455,-13.632,o),
(455,-39,cs),
(455,-44.333,o),
(457.167,-48.333,o),
(461.5,-51,cs),
(465.833,-53.667,o),
(474,-55,o),
(486,-55,cs),
(719,-55,ls),
(741.667,-55,o),
(754,-49.667,o),
(754,-31,cs),
(754,-12.333,o),
(731.667,-9,o),
(713,-9,cs),
(649,-9,o),
(608,-7.667,o),
(600,23,cs),
(388,816,l),
(388,816,l)
);
},
{
closed = 1;
nodes = (
(381.348,597.479,o),
(430.777,393.353,o),
(458,289,c),
(442.667,288.333,o),
(426.833,288,o),
(410.5,288,cs),
(394.167,288,o),
(378.333,288,o),
(363,288,cs),
(342.333,288,o),
(322.5,288,o),
(303.5,288,cs),
(284.5,288,o),
(264.667,288.333,o),
(244,289,c),
(254.823,332.292,o),
(278.404,424.346,o),
(303.5,516,cs),
(330.088,613.105,o),
(346.703,679.672,o),
(356,715,c)
);
},
{
closed = 1;
nodes = (
(561,-45,o),
(549,-52,o),
(538,-61,cs),
(519,-76,o),
(502,-97,o),
(502,-128,cs),
(502,-171,o),
(544,-201,o),
(603,-201,cs),
(651,-201,o),
(681,-160,o),
(681,-150,cs),
(681,-139,o),
(675,-128,o),
(660,-128,cs),
(656,-128,o),
(652,-130,o),
(647,-134,cs),
(642,-139,o),
(636,-144,o),
(631,-149,cs),
(625,-155,o),
(614,-158,o),
(597,-158,cs),
(581,-158,o),
(566,-143,o),
(566,-127,cs),
(566,-108,o),
(580,-54,o),
(625,-39,c),
(575,-38,l),
(575,-38,l)
);
}
);
userData = {
assembly = "PUSHB[ ]	/* 6 values pushed */
71 1 8 7 1 66
MPPEM[ ]	/* MeasurePixelPerEm */
PUSHB[ ]	/* 1 value pushed */
24
LT[ ]	/* LessThan */
IF[ ]	/* If */
NPUSHB[ ]	/* 60 values pushed */
0 0 4 12 12 0 96 0 10 1 9 1 10 9 104 0 8 0 2 3 8 2 90 13 1 12 0 1 10 12 1 92 0 7 7 20 67 6 5 2 3 3 4 83 0 4 4 13 67 0 9 9 11 83 0 11 11 17 11 68
ELSE[ ]	/* Else */
MPPEM[ ]	/* MeasurePixelPerEm */
PUSHB[ ]	/* 1 value pushed */
41
LT[ ]	/* LessThan */
IF[ ]	/* If */
NPUSHB[ ]	/* 57 values pushed */
0 0 4 12 12 0 96 0 10 1 9 1 10 9 104 0 8 0 2 3 8 2 90 13 1 12 0 1 10 12 1 92 0 9 0 11 9 11 87 0 7 7 20 67 6 5 2 3 3 4 83 0 4 4 13 4 68
ELSE[ ]	/* Else */
MPPEM[ ]	/* MeasurePixelPerEm */
PUSHB[ ]	/* 1 value pushed */
45
LT[ ]	/* LessThan */
IF[ ]	/* If */
NPUSHB[ ]	/* 58 values pushed */
0 0 4 12 4 0 12 104 0 10 1 9 1 10 9 104 0 8 0 2 3 8 2 90 13 1 12 0 1 10 12 1 92 0 9 0 11 9 11 87 0 7 7 20 67 6 5 2 3 3 4 83 0 4 4 13 4 68
ELSE[ ]	/* Else */
NPUSHB[ ]	/* 58 values pushed */
0 7 8 7 106 0 0 4 12 4 0 12 104 0 10 1 9 1 10 9 104 0 8 0 2 3 8 2 90 13 1 12 0 1 10 12 1 92 0 9 0 11 9 11 87 6 5 2 3 3 4 83 0 4 4 13 4 68
EIF[ ]	/* EndIf */
EIF[ ]	/* EndIf */
EIF[ ]	/* EndIf */
NPUSHB[ ]	/* 23 values pushed */
89 89 89 118 89 118 111 109 103 101 98 96 105 44 19 36 52 56 30 52 35 14 35
CALL[ ]	/* CallFunction */";
};
width = 698;
},
{
layerId = "E59D8378-1062-4241-9A8F-EEB295F00E05";
shapes = (
{
closed = 1;
nodes = (
(628.13,-202,o),
(658,-160.791,o),
(658,-151,cs),
(658,-143,o),
(656,-135,o),
(644,-135,cs),
(624.96,-135,o),
(618.683,-175,o),
(582,-175,cs),
(551.028,-175,o),
(543,-145.466,o),
(543,-128,cs),
(543,-110.446,o),
(551.43,-77.113,o),
(576,-55,c),
(686,-55,ls),
(709.333,-55,o),
(721,-50.333,o),
(721,-41,cs),
(721,-29,o),
(703.667,-29,o),
(685,-29,cs),
(653,-29,o),
(628.667,-27,o),
(612,-23,cs),
(595.333,-19,o),
(585.333,-10.333,o),
(582,3,cs),
(365,816,ls),
(361,830.667,o),
(351.667,835,o),
(345,835,cs),
(334.333,835,o),
(326.667,826.667,o),
(324,816,cs),
(309.578,766.966,o),
(264.676,604.466,o),
(224.5,456.5,cs),
(181.443,297.923,o),
(145.981,172.147,o),
(110,69,cs),
(100.667,45,o),
(90.333,33.667,o),
(61,31,cs),
(62.152,31,o),
(9.218,25,o),
(-30,25,cs),
(-43.333,25,o),
(-50,21.333,o),
(-50,14,cs),
(-50,3.333,o),
(-39,0,o),
(-27,0,cs),
(225,0,ls),
(238.333,0,o),
(247.333,1.667,o),
(252,5,cs),
(256.667,8.333,o),
(259,11.667,o),
(259,15,cs),
(259,29.667,o),
(238.333,29,o),
(225,29,cs),
(204.985,29,o),
(154,26.126,o),
(154,45,cs),
(154,74.195,o),
(186.968,172.749,o),
(206,238,c),
(477,238,l),
(481.265,218.806,o),
(496.406,169.833,o),
(511,112.5,cs),
(528.276,44.631,o),
(538,5.656,o),
(538,-5,cs),
(538,-37.488,o),
(442,-16.276,o),
(442,-41,cs),
(442,-46.333,o),
(444.167,-50,o),
(448.5,-52,cs),
(452.833,-54,o),
(461,-55,o),
(473,-55,cs),
(540,-55,l),
(521.333,-69.667,o),
(499,-94.333,o),
(499,-129,cs),
(499,-171.667,o),
(533.333,-202,o),
(580,-202,cs)
);
},
{
closed = 1;
nodes = (
(298.667,272,o),
(259.333,272.667,o),
(218,274,c),
(233.077,338.616,o),
(254.142,418.105,o),
(284,529.5,cs),
(313.705,640.323,o),
(333.8,709,o),
(343,755,c),
(373.763,642.203,o),
(431.478,410.882,o),
(465,274,c),
(423.667,272.667,o),
(381.333,272,o),
(340,272,cs)
);
}
);
userData = {
assembly = "PUSHB[ ]	/* 6 values pushed */
99 1 13 12 1 66
MPPEM[ ]	/* MeasurePixelPerEm */
PUSHB[ ]	/* 1 value pushed */
39
LT[ ]	/* LessThan */
IF[ ]	/* If */
NPUSHB[ ]	/* 54 values pushed */
0 3 1 2 1 3 2 104 0 13 0 7 8 13 7 90 6 1 0 5 1 1 3 0 1 91 0 12 12 20 67 11 10 2 8 8 9 83 0 9 9 13 67 0 2 2 4 83 0 4 4 17 4 68
ELSE[ ]	/* Else */
MPPEM[ ]	/* MeasurePixelPerEm */
PUSHB[ ]	/* 1 value pushed */
45
LT[ ]	/* LessThan */
IF[ ]	/* If */
NPUSHB[ ]	/* 51 values pushed */
0 3 1 2 1 3 2 104 0 13 0 7 8 13 7 90 6 1 0 5 1 1 3 0 1 91 0 2 0 4 2 4 87 0 12 12 20 67 11 10 2 8 8 9 83 0 9 9 13 9 68
ELSE[ ]	/* Else */
NPUSHB[ ]	/* 51 values pushed */
0 12 13 12 106 0 3 1 2 1 3 2 104 0 13 0 7 8 13 7 90 6 1 0 5 1 1 3 0 1 91 0 2 0 4 2 4 87 11 10 2 8 8 9 83 0 9 9 13 9 68
EIF[ ]	/* EndIf */
EIF[ ]	/* EndIf */
NPUSHB[ ]	/* 21 values pushed */
112 106 96 94 82 81 79 76 73 70 56 25 20 37 38 35 41 35 34 14 24
CALL[ ]	/* CallFunction */";
};
width = 681;
}
);
note = Aogonek;
unicode = 260;
},
{
glyphname = Aring;
kernLeft = Aacute;
kernRight = Aacute;
lastChange = "2024-06-13 14:31:09 +0000";
layers = (
{
layerId = m01;
shapes = (
{
closed = 1;
nodes = (
(449,950.333,o),
(423,972,o),
(371,972,cs),
(329.667,972,o),
(297,943.667,o),
(297,905,cs),
(297,866.333,o),
(330.667,840,o),
(376,840,cs),
(416,840,o),
(449,861.667,o),
(449,907,cs)
);
},
{
closed = 1;
nodes = (
(379.667,930,o),
(394,927.333,o),
(394,906,cs),
(394,886,o),
(382.667,882,o),
(376,882,cs),
(366.667,882,o),
(352,886.333,o),
(352,905,cs),
(352,927.667,o),
(367.667,930,o),
(373,930,cs)
);
},
{
closed = 1;
nodes = (
(402,823.667,o),
(387,838,o),
(359,838,cs),
(324.333,838,o),
(314.333,822.667,o),
(305,792,cs),
(284.502,726.405,o),
(251.09,598.326,o),
(213,460,cs),
(175.492,323.786,o),
(134.319,181.005,o),
(107,101,cs),
(97.667,74.333,o),
(82,65.667,o),
(58,63,cs),
(54.446,63,o),
(35.539,57,o),
(1,57,cs),
(-12.333,57,o),
(-28,47.333,o),
(-28,30,cs),
(-28,11.333,o),
(-17,0,o),
(-5,0,cs),
(273,0,ls),
(299.667,0,o),
(307,14.333,o),
(307,29,cs),
(307,53,o),
(295.333,61,o),
(274,61,cs),
(250.667,61,o),
(232.833,62.333,o),
(220.5,65,cs),
(208.167,67.667,o),
(202,71.667,o),
(202,77,cs),
(202,98.202,o),
(218.883,167.573,o),
(238,214,c),
(470,214,l),
(467.773,222.165,o),
(517,58.814,o),
(517,35,cs),
(517,-16.343,o),
(464,4.508,o),
(464,-33,cs),
(464,-43.667,o),
(471,-55,o),
(495,-55,cs),
(742,-55,ls),
(764.667,-55,o),
(777,-49,o),
(777,-25,cs),
(777,-2.333,o),
(751.667,3,o),
(733,3,cs),
(648.169,3,o),
(619.061,7.727,o),
(613,35,cs),
(410,793,l),
(410,793,l)
);
},
{
closed = 1;
nodes = (
(385.454,565.914,o),
(421.464,413.633,o),
(453,298,c),
(420.39,298,o),
(415.185,296,o),
(358,296,cs),
(304.25,296,o),
(314.344,298,o),
(262,298,c),
(284.238,378.864,o),
(315.184,510.424,o),
(362,691,c)
);
}
);
userData = {
assembly = "PUSHB[ ]	/* 6 values pushed */
92 1 12 11 1 66
MPPEM[ ]	/* MeasurePixelPerEm */
PUSHB[ ]	/* 1 value pushed */
14
LT[ ]	/* LessThan */
IF[ ]	/* If */
NPUSHB[ ]	/* 55 values pushed */
13 1 2 1 3 0 2 96 0 3 0 1 3 94 0 1 0 0 11 1 0 91 0 12 0 6 7 12 6 90 0 4 0 5 4 5 87 0 11 11 20 67 10 9 2 7 7 8 83 0 8 8 13 8 68
ELSE[ ]	/* Else */
MPPEM[ ]	/* MeasurePixelPerEm */
PUSHB[ ]	/* 1 value pushed */
45
LT[ ]	/* LessThan */
IF[ ]	/* If */
NPUSHB[ ]	/* 57 values pushed */
13 1 2 1 3 1 2 3 104 0 3 0 1 3 0 102 0 1 0 0 11 1 0 91 0 12 0 6 7 12 6 90 0 4 0 5 4 5 87 0 11 11 20 67 10 9 2 7 7 8 83 0 8 8 13 8 68
ELSE[ ]	/* Else */
NPUSHB[ ]	/* 60 values pushed */
13 1 2 1 3 1 2 3 104 0 3 0 1 3 0 102 0 11 0 12 0 11 12 104 0 1 0 0 11 1 0 91 0 12 0 6 7 12 6 90 0 4 0 5 4 5 87 10 9 2 7 7 8 83 0 8 8 13 8 68
EIF[ ]	/* EndIf */
EIF[ ]	/* EndIf */
NPUSHB[ ]	/* 30 values pushed */
12 11 107 97 89 87 75 74 71 69 65 62 58 56 49 48 36 33 29 26 18 16 11 22 12 22 36 34 14 17
CALL[ ]	/* CallFunction */";
};
width = 710;
},
{
layerId = "62092E79-60F6-4D0B-8A38-B9DDC6B60A9E";
shapes = (
{
closed = 1;
nodes = (
(433,952.667,o),
(409.333,972,o),
(362,972,cs),
(322,972,o),
(291,946.667,o),
(291,912,cs),
(291,877.333,o),
(323,853,o),
(363,853,cs),
(399,853,o),
(433,872.667,o),
(433,914,cs)
);
},
{
closed = 1;
nodes = (
(375.333,938,o),
(388,931.667,o),
(388,913,cs),
(388,891.667,o),
(369.667,887,o),
(363,887,cs),
(355,887,o),
(336,892,o),
(336,912,cs),
(336,932,o),
(351.333,938,o),
(362,938,cs)
);
},
{
closed = 1;
nodes = (
(384,830,o),
(372.333,837,o),
(353,837,cs),
(329,837,o),
(319.667,826.667,o),
(317,816,cs),
(293.137,737.253,o),
(267.659,639.167,o),
(219.5,466.5,cs),
(174.121,303.799,o),
(138.041,173.116,o),
(108,89,cs),
(100,65,o),
(87,53.667,o),
(59,51,cs),
(59.845,51,o),
(15.196,45,o),
(-12,45,cs),
(-25.333,45,o),
(-37,37.333,o),
(-37,24,cs),
(-37,9.333,o),
(-26,0,o),
(-14,0,cs),
(253,0,ls),
(279.667,0,o),
(287,12,o),
(287,24,cs),
(287,44,o),
(271.333,49,o),
(258,49,cs),
(223.943,49,o),
(182,48.548,o),
(182,65,cs),
(182,92.498,o),
(208.252,175.15,o),
(225,223,c),
(473,223,l),
(477.089,206.644,o),
(489.528,168.266,o),
(503,115.5,cs),
(517.884,57.204,o),
(526,23.825,o),
(526,15,cs),
(526,-32.87,o),
(455,-13.632,o),
(455,-39,cs),
(455,-44.333,o),
(457.167,-48.333,o),
(461.5,-51,cs),
(465.833,-53.667,o),
(474,-55,o),
(486,-55,cs),
(719,-55,ls),
(741.667,-55,o),
(754,-49.667,o),
(754,-31,cs),
(754,-12.333,o),
(731.667,-9,o),
(713,-9,cs),
(649,-9,o),
(608,-7.667,o),
(600,23,cs),
(388,816,l),
(388,816,l)
);
},
{
closed = 1;
nodes = (
(381.348,597.479,o),
(430.777,393.353,o),
(458,289,c),
(442.667,288.333,o),
(426.833,288,o),
(410.5,288,cs),
(394.167,288,o),
(378.333,288,o),
(363,288,cs),
(342.333,288,o),
(322.5,288,o),
(303.5,288,cs),
(284.5,288,o),
(264.667,288.333,o),
(244,289,c),
(254.823,332.292,o),
(278.404,424.346,o),
(303.5,516,cs),
(330.088,613.105,o),
(346.703,679.672,o),
(356,715,c)
);
}
);
userData = {
assembly = "PUSHB[ ]	/* 6 values pushed */
93 1 12 11 1 66
MPPEM[ ]	/* MeasurePixelPerEm */
PUSHB[ ]	/* 1 value pushed */
14
LT[ ]	/* LessThan */
IF[ ]	/* If */
NPUSHB[ ]	/* 55 values pushed */
13 1 2 1 3 0 2 96 0 3 0 1 3 94 0 1 0 0 11 1 0 91 0 12 0 6 7 12 6 90 0 4 0 5 4 5 87 0 11 11 20 67 10 9 2 7 7 8 83 0 8 8 13 8 68
ELSE[ ]	/* Else */
MPPEM[ ]	/* MeasurePixelPerEm */
PUSHB[ ]	/* 1 value pushed */
45
LT[ ]	/* LessThan */
IF[ ]	/* If */
NPUSHB[ ]	/* 57 values pushed */
13 1 2 1 3 1 2 3 104 0 3 0 1 3 0 102 0 1 0 0 11 1 0 91 0 12 0 6 7 12 6 90 0 4 0 5 4 5 87 0 11 11 20 67 10 9 2 7 7 8 83 0 8 8 13 8 68
ELSE[ ]	/* Else */
NPUSHB[ ]	/* 60 values pushed */
13 1 2 1 3 1 2 3 104 0 3 0 1 3 0 102 0 11 0 12 0 11 12 104 0 1 0 0 11 1 0 91 0 12 0 6 7 12 6 90 0 4 0 5 4 5 87 10 9 2 7 7 8 83 0 8 8 13 8 68
EIF[ ]	/* EndIf */
EIF[ ]	/* EndIf */
NPUSHB[ ]	/* 30 values pushed */
12 11 106 100 91 89 77 76 73 71 67 64 60 57 49 48 34 31 27 25 18 16 11 22 12 22 36 34 14 17
CALL[ ]	/* CallFunction */";
};
width = 698;
},
{
layerId = "E59D8378-1062-4241-9A8F-EEB295F00E05";
shapes = (
{
closed = 1;
nodes = (
(686,-55,ls),
(709.333,-55,o),
(721,-50.333,o),
(721,-41,cs),
(721,-29,o),
(703.667,-29,o),
(685,-29,cs),
(653,-29,o),
(628.667,-27,o),
(612,-23,cs),
(595.333,-19,o),
(585.333,-10.333,o),
(582,3,cs),
(365,816,ls),
(361,830.667,o),
(351.667,835,o),
(345,835,cs),
(334.333,835,o),
(326.667,826.667,o),
(324,816,cs),
(309.578,766.966,o),
(264.676,604.466,o),
(224.5,456.5,cs),
(181.443,297.923,o),
(145.981,172.147,o),
(110,69,cs),
(100.667,45,o),
(90.333,33.667,o),
(61,31,cs),
(62.152,31,o),
(9.218,25,o),
(-30,25,cs),
(-43.333,25,o),
(-50,21.333,o),
(-50,14,cs),
(-50,3.333,o),
(-39,0,o),
(-27,0,cs),
(225,0,ls),
(238.333,0,o),
(247.333,1.667,o),
(252,5,cs),
(256.667,8.333,o),
(259,11.667,o),
(259,15,cs),
(259,29.667,o),
(238.333,29,o),
(225,29,cs),
(204.985,29,o),
(154,26.126,o),
(154,45,cs),
(154,74.195,o),
(186.968,172.749,o),
(206,238,c),
(477,238,l),
(481.265,218.806,o),
(496.406,169.833,o),
(511,112.5,cs),
(528.276,44.631,o),
(538,5.656,o),
(538,-5,cs),
(538,-37.488,o),
(442,-16.276,o),
(442,-41,cs),
(442,-46.333,o),
(444.167,-50,o),
(448.5,-52,cs),
(452.833,-54,o),
(461,-55,o),
(473,-55,cs)
);
},
{
closed = 1;
nodes = (
(298.667,272,o),
(259.333,272.667,o),
(218,274,c),
(233.077,338.616,o),
(254.142,418.105,o),
(284,529.5,cs),
(313.705,640.323,o),
(333.8,709,o),
(343,755,c),
(373.763,642.203,o),
(431.478,410.882,o),
(465,274,c),
(423.667,272.667,o),
(381.333,272,o),
(340,272,cs)
);
},
{
closed = 1;
nodes = (
(375.333,875,o),
(410,890.961,o),
(410,925,cs),
(410,950.333,o),
(389,972,o),
(349,972,cs),
(310.333,972,o),
(283,951,o),
(283,923,cs),
(283,895,o),
(310.333,875,o),
(345,875,cs)
);
},
{
closed = 1;
nodes = (
(322.333,895,o),
(313,908.333,o),
(313,923,cs),
(313,935,o),
(321.667,951,o),
(347,951,cs),
(373.667,951,o),
(380,936,o),
(380,924,cs),
(380,904.667,o),
(368.333,895,o),
(345,895,cs)
);
}
);
userData = {
assembly = "PUSHB[ ]	/* 6 values pushed */
94 1 13 12 1 66
MPPEM[ ]	/* MeasurePixelPerEm */
PUSHB[ ]	/* 1 value pushed */
45
LT[ ]	/* LessThan */
IF[ ]	/* If */
NPUSHB[ ]	/* 51 values pushed */
0 1 14 1 2 3 1 2 91 0 3 0 0 12 3 0 91 0 13 0 7 8 13 7 90 6 1 4 0 5 4 5 87 0 12 12 20 67 11 10 2 8 8 9 83 0 9 9 13 9 68
ELSE[ ]	/* Else */
NPUSHB[ ]	/* 54 values pushed */
0 12 0 13 0 12 13 104 0 1 14 1 2 3 1 2 91 0 3 0 0 12 3 0 91 0 13 0 7 8 13 7 90 6 1 4 0 5 4 5 87 11 10 2 8 8 9 83 0 9 9 13 9 68
EIF[ ]	/* EndIf */
NPUSHB[ ]	/* 32 values pushed */
15 14 107 101 91 89 77 76 74 71 68 65 61 58 50 49 40 39 35 32 29 27 21 19 14 24 15 24 36 36 15 17
CALL[ ]	/* CallFunction */";
};
width = 681;
}
);
note = Aring;
unicode = 197;
},
{
glyphname = Aringacute;
kernLeft = Aacute;
kernRight = Aacute;
lastChange = "2024-06-13 14:31:09 +0000";
layers = (
{
layerId = m01;
shapes = (
{
closed = 1;
nodes = (
(434,824.667,o),
(421.667,844.333,o),
(397,853,c),
(433.33,871.165,o),
(479,906.024,o),
(479,936,cs),
(479,953.333,o),
(464.667,972,o),
(438,972,cs),
(400.323,972,o),
(324,899.498,o),
(324,872,cs),
(324,865.333,o),
(326,859.667,o),
(330,855,c),
(302,844.333,o),
(282,821.333,o),
(282,792,cs),
(282,762.667,o),
(300.333,742.667,o),
(327,732,c),
(321,728.667,o),
(317.333,723.667,o),
(316,717,c),
(294.307,651.92,o),
(260.024,542.501,o),
(221,424.5,cs),
(172.391,277.517,o),
(138.059,174.385,o),
(110,101,cs),
(99.333,74.333,o),
(86.333,65.667,o),
(61,63,cs),
(57.446,63,o),
(38.53,57,o),
(4,57,cs),
(-9.333,57,o),
(-24,47.333,o),
(-24,30,cs),
(-24,11.333,o),
(-13,0,o),
(-1,0,cs),
(23.667,0,o),
(48,0.667,o),
(72,2,cs),
(96,3.333,o),
(120.333,4,o),
(145,4,cs),
(167,4,o),
(189,3.333,o),
(211,2,cs),
(233,0.667,o),
(254.667,0,o),
(276,0,cs),
(302.667,0,o),
(310,14.333,o),
(310,29,cs),
(310,53,o),
(298.333,61,o),
(285,61,cs),
(253,61,o),
(231.833,63,o),
(221.5,67,cs),
(211.167,71,o),
(206,74.333,o),
(206,77,cs),
(206,74.663,o),
(221.734,135.641,o),
(254,214,c),
(464,214,l),
(468.842,200.686,o),
(521,52.452,o),
(521,27,cs),
(521,-32.955,o),
(468,-7.156,o),
(468,-38,cs),
(468,-48.667,o),
(475,-58,o),
(499,-58,cs),
(521.667,-58,o),
(543.5,-57.167,o),
(564.5,-55.5,cs),
(585.5,-53.833,o),
(608.667,-53,o),
(634,-53,cs),
(649.333,-53,o),
(667.833,-53.333,o),
(689.5,-54,cs),
(711.167,-54.667,o),
(730,-55,o),
(746,-55,cs),
(768.667,-55,o),
(781,-49,o),
(781,-25,cs),
(781,-2.333,o),
(754.667,3,o),
(736,3,cs),
(700.667,3,o),
(673,4.833,o),
(653,8.5,cs),
(633,12.167,o),
(620.667,21,o),
(616,35,cs),
(408,717,ls),
(406,723,o),
(401.667,728,o),
(395,732,c),
(417.667,742.667,o),
(434,763.333,o),
(434,794,cs)
);
},
{
closed = 1;
nodes = (
(374.122,570.047,o),
(413.521,385.045,o),
(447,298,c),
(437.667,297.333,o),
(425.667,297,o),
(411,297,cs),
(396.333,297,o),
(384.333,297,o),
(375,297,cs),
(357,297,o),
(340.833,297,o),
(326.5,297,cs),
(312.167,297,o),
(296,297.333,o),
(278,298,c),
(285.637,326.638,o),
(304.096,384.846,o),
(324.5,452.5,cs),
(344.886,520.097,o),
(361.354,572.885,o),
(369,592,c)
);
},
{
closed = 1;
nodes = (
(367.333,818,o),
(382,814.333,o),
(382,793,cs),
(382,771.667,o),
(367.667,767,o),
(361,767,cs),
(354.333,767,o),
(335,770.667,o),
(335,792,cs),
(335,814.667,o),
(351.333,818,o),
(358,818,cs)
);
}
);
userData = {
assembly = "NPUSHB[ ]	/* 81 values pushed */
99 84 2 10 8 114 101 78 3 4 9 11 2 66 0 8 10 8 106 12 1 10 11 10 106 0 11 9 11 106 0 9 0 3 4 9 3 90 0 0 2 1 1 0 1 87 7 6 2 4 4 5 83 0 5 5 13 5 68 120 119 126 124 119 130 120 130 113 108 92 90 19 36 132 39 28 33 84 40 13 23
CALL[ ]	/* CallFunction */";
};
width = 716;
},
{
layerId = "62092E79-60F6-4D0B-8A38-B9DDC6B60A9E";
shapes = (
{
closed = 1;
nodes = (
(387,730,o),
(375.333,737,o),
(356,737,cs),
(332,737,o),
(322.667,726.667,o),
(320,716,c),
(298,654.399,o),
(268.648,559.446,o),
(222.5,416.5,cs),
(177.329,276.579,o),
(140.988,162.971,o),
(111,89,cs),
(103,65,o),
(90,53.667,o),
(62,51,cs),
(62.845,51,o),
(18.196,45,o),
(-9,45,cs),
(-22.333,45,o),
(-34,37.333,o),
(-34,24,cs),
(-34,9.333,o),
(-23,0,o),
(-11,0,cs),
(256,0,ls),
(282.667,0,o),
(290,12,o),
(290,24,cs),
(290,44,o),
(274.333,49,o),
(261,49,cs),
(226.943,49,o),
(185,48.548,o),
(185,65,c),
(187.978,88.825,o),
(219.318,176.296,o),
(238,223,c),
(466,223,l),
(470.178,211.858,o),
(484.233,169.605,o),
(501.5,115.5,cs),
(520.041,57.406,o),
(529,23.837,o),
(529,15,cs),
(529,-32.87,o),
(458,-13.632,o),
(458,-39,cs),
(458,-44.333,o),
(460.167,-48.333,o),
(464.5,-51,cs),
(468.833,-53.667,o),
(477,-55,o),
(489,-55,cs),
(722,-55,ls),
(744.667,-55,o),
(757,-49.667,o),
(757,-31,cs),
(757,-12.333,o),
(734.667,-9,o),
(716,-9,cs),
(652,-9,o),
(612.333,-7.667,o),
(603,23,cs),
(391,716,l),
(391,716,l)
);
},
{
closed = 1;
nodes = (
(386.222,508.834,o),
(421.839,379.134,o),
(451,289,c),
(437,288.333,o),
(422.833,288,o),
(408.5,288,cs),
(394.167,288,o),
(380,288,o),
(366,288,cs),
(346.667,288,o),
(328.5,288,o),
(311.5,288,cs),
(294.5,288,o),
(276.333,288.333,o),
(257,289,c),
(279.208,375.057,o),
(340.048,548.667,o),
(359,615,c)
);
},
{
closed = 1;
nodes = (
(452,957.667,o),
(442,969.333,o),
(422,972,c),
(389.5,972,o),
(317.639,908.392,o),
(315,882,cs),
(315,870,o),
(318,860.333,o),
(330,859,c),
(308.667,848.333,o),
(296,829.667,o),
(296,807,cs),
(296,772.333,o),
(328,748,o),
(368,748,cs),
(404,748,o),
(438,767.667,o),
(438,809,cs),
(438,847.667,o),
(414.333,867,o),
(367,867,cs),
(363,867,l),
(399.197,882.513,o),
(452,912.717,o),
(452,939,cs)
);
},
{
closed = 1;
nodes = (
(380.333,833,o),
(393,826.667,o),
(393,808,cs),
(393,786.667,o),
(374.667,782,o),
(368,782,cs),
(360,782,o),
(341,787,o),
(341,807,cs),
(341,827,o),
(356.333,833,o),
(367,833,cs)
);
}
);
userData = {
assembly = "NPUSHB[ ]	/* 18 values pushed */
106 1 9 11 103 1 12 9 70 1 8 7 31 1 3 2 4 66
MPPEM[ ]	/* MeasurePixelPerEm */
PUSHB[ ]	/* 1 value pushed */
14
LT[ ]	/* LessThan */
IF[ ]	/* If */
NPUSHB[ ]	/* 63 values pushed */
0 11 9 11 106 14 1 12 9 13 10 12 96 0 13 10 9 13 94 0 7 10 8 10 7 8 104 0 9 0 10 7 9 10 91 0 8 0 2 3 8 2 90 0 0 0 1 0 1 87 6 5 2 3 3 4 83 0 4 4 13 4 68
ELSE[ ]	/* Else */
NPUSHB[ ]	/* 65 values pushed */
0 11 9 11 106 14 1 12 9 13 9 12 13 104 0 13 10 9 13 10 102 0 7 10 8 10 7 8 104 0 9 0 10 7 9 10 91 0 8 0 2 3 8 2 90 0 0 0 1 0 1 87 6 5 2 3 3 4 83 0 4 4 13 4 68
EIF[ ]	/* EndIf */
NPUSHB[ ]	/* 25 values pushed */
115 114 121 119 114 125 115 125 111 110 98 96 93 91 103 44 19 36 52 56 30 52 34 15 24
CALL[ ]	/* CallFunction */";
};
width = 703;
},
{
layerId = "E59D8378-1062-4241-9A8F-EEB295F00E05";
shapes = (
{
closed = 1;
nodes = (
(492.333,-55,o),
(509.833,-54.667,o),
(527.5,-54,cs),
(545.167,-53.333,o),
(563,-53,o),
(581,-53,cs),
(598.333,-53,o),
(616.167,-53.333,o),
(634.5,-54,cs),
(652.833,-54.667,o),
(670.667,-55,o),
(688,-55,cs),
(711.333,-55,o),
(723,-50.333,o),
(723,-41,cs),
(723,-29,o),
(705.667,-29,o),
(687,-29,cs),
(655,-29,o),
(630.833,-27,o),
(614.5,-23,cs),
(598.167,-19,o),
(588,-10.333,o),
(584,3,cs),
(367,714,ls),
(363,728.667,o),
(353.667,733,o),
(347,733,cs),
(336.333,733,o),
(328.667,724.667,o),
(326,714,cs),
(303.365,637.042,o),
(273.528,548.877,o),
(226.5,405.5,cs),
(175.455,249.876,o),
(147.556,170.926,o),
(112,69,cs),
(102.667,45,o),
(92.333,33.667,o),
(63,31,cs),
(64.152,31,o),
(11.218,25,o),
(-28,25,cs),
(-41.333,25,o),
(-48,21.333,o),
(-48,14,cs),
(-48,3.333,o),
(-37,0,o),
(-25,0,cs),
(17.667,1.333,o),
(58.333,2,o),
(101,2,cs),
(122.333,2,o),
(143.333,1.667,o),
(164,1,cs),
(184.667,0.333,o),
(205.667,0,o),
(227,0,cs),
(240.333,0,o),
(249.333,1.667,o),
(254,5,cs),
(258.667,8.333,o),
(261,11.667,o),
(261,15,cs),
(261,29.667,o),
(240.333,29,o),
(227,29,cs),
(206.985,29,o),
(156,26.126,o),
(156,45,cs),
(156,74.529,o),
(198.06,179.92,o),
(215,238,c),
(469,238,l),
(471.616,226.228,o),
(486.058,181.872,o),
(507.5,112.5,cs),
(528.892,43.292,o),
(540,7.081,o),
(540,-5,cs),
(540,-37.488,o),
(444,-16.276,o),
(444,-41,cs),
(444,-46.333,o),
(446.167,-50,o),
(450.5,-52,cs),
(454.833,-54,o),
(463,-55,o),
(475,-55,cs)
);
},
{
closed = 1;
nodes = (
(300.667,272,o),
(268.333,272.667,o),
(227,274,c),
(253.831,397.423,o),
(327.201,561.041,o),
(345,653,c),
(383.232,512.818,o),
(425.599,402.221,o),
(457,274,c),
(415.667,272.667,o),
(383.333,272,o),
(342,272,cs)
);
},
{
closed = 1;
nodes = (
(377.333,759,o),
(412,774.961,o),
(412,809,cs),
(412,834.333,o),
(391,856,o),
(351,856,cs),
(312.333,856,o),
(285,835,o),
(285,807,cs),
(285,779,o),
(312.333,759,o),
(347,759,cs)
);
},
{
closed = 1;
nodes = (
(324.333,782,o),
(319,792.333,o),
(319,807,cs),
(319,819,o),
(323.667,833,o),
(349,833,cs),
(375.667,833,o),
(377,820,o),
(377,808,cs),
(377,789.333,o),
(369.667,782,o),
(347,782,cs)
);
},
{
closed = 1;
nodes = (
(323.311,875,o),
(413,928.367,o),
(413,950,cs),
(413,968.667,o),
(404.667,972,o),
(394,972,cs),
(374.012,972,o),
(299,910.697,o),
(299,886,cs),
(299,878.667,o),
(301.667,875,o),
(307,875,cs)
);
}
);
userData = {
assembly = "PUSHB[ ]	/* 6 values pushed */
79 1 9 8 1 66
MPPEM[ ]	/* MeasurePixelPerEm */
PUSHB[ ]	/* 1 value pushed */
27
LT[ ]	/* LessThan */
IF[ ]	/* If */
NPUSHB[ ]	/* 66 values pushed */
0 15 14 15 106 0 14 11 14 106 0 8 10 9 10 8 9 104 0 13 0 10 8 13 10 91 0 9 0 3 4 9 3 90 2 1 0 0 1 0 1 87 16 1 12 12 11 83 0 11 11 20 67 7 6 2 4 4 5 83 0 5 5 13 5 68
ELSE[ ]	/* Else */
NPUSHB[ ]	/* 64 values pushed */
0 15 14 15 106 0 14 11 14 106 0 8 10 9 10 8 9 104 0 11 16 1 12 13 11 12 91 0 13 0 10 8 13 10 91 0 9 0 3 4 9 3 90 2 1 0 0 1 0 1 87 7 6 2 4 4 5 83 0 5 5 13 5 68
EIF[ ]	/* EndIf */
NPUSHB[ ]	/* 29 values pushed */
110 109 134 132 127 125 116 114 109 120 110 120 107 105 101 99 90 84 44 18 51 132 56 25 20 131 34 17 24
CALL[ ]	/* CallFunction */";
};
width = 685;
}
);
note = Aringacute;
unicode = 506;
},
{
glyphname = Atilde;
kernLeft = Aacute;
kernRight = Aacute;
lastChange = "2024-06-13 14:31:17 +0000";
layers = (
{
layerId = m01;
shapes = (
{
closed = 1;
nodes = (
(402,823.667,o),
(387,838,o),
(359,838,cs),
(324.333,838,o),
(314.333,822.667,o),
(305,792,cs),
(284.502,726.405,o),
(251.09,598.326,o),
(213,460,cs),
(175.492,323.786,o),
(134.319,181.005,o),
(107,101,cs),
(97.667,74.333,o),
(82,65.667,o),
(58,63,cs),
(54.446,63,o),
(35.539,57,o),
(1,57,cs),
(-12.333,57,o),
(-28,47.333,o),
(-28,30,cs),
(-28,11.333,o),
(-17,0,o),
(-5,0,cs),
(273,0,ls),
(299.667,0,o),
(307,14.333,o),
(307,29,cs),
(307,53,o),
(295.333,61,o),
(274,61,cs),
(250.667,61,o),
(232.833,62.333,o),
(220.5,65,cs),
(208.167,67.667,o),
(202,71.667,o),
(202,77,cs),
(202,98.202,o),
(218.883,167.573,o),
(238,214,c),
(470,214,l),
(467.773,222.165,o),
(517,58.814,o),
(517,35,cs),
(517,-16.343,o),
(464,4.508,o),
(464,-33,cs),
(464,-43.667,o),
(471,-55,o),
(495,-55,cs),
(742,-55,ls),
(764.667,-55,o),
(777,-49,o),
(777,-25,cs),
(777,-2.333,o),
(751.667,3,o),
(733,3,cs),
(648.169,3,o),
(619.061,7.727,o),
(613,35,cs),
(410,793,l),
(410,793,l)
);
},
{
closed = 1;
nodes = (
(385.454,565.914,o),
(421.464,413.633,o),
(453,298,c),
(420.39,298,o),
(415.185,296,o),
(358,296,cs),
(304.25,296,o),
(314.344,298,o),
(262,298,c),
(284.238,378.864,o),
(315.184,510.424,o),
(362,691,c)
);
},
{
closed = 1;
nodes = (
(180,877,o),
(187,861,o),
(199,861,cs),
(219.593,861,o),
(243.709,886,o),
(283,886,cs),
(321.662,886,o),
(364.294,862,o),
(420,862,cs),
(452.676,862,o),
(531,879.584,o),
(531,937,cs),
(531,958.333,o),
(515.667,972,o),
(509,972,cs),
(504.333,972,o),
(494.333,967.667,o),
(479,959,cs),
(460.333,948.333,o),
(437.667,942,o),
(419,942,cs),
(379.599,942,o),
(318.495,970,o),
(282,970,cs),
(257.333,970,o),
(234.667,964,o),
(214,952,cs),
(195.333,941.333,o),
(180,926.333,o),
(180,897,cs)
);
}
);
userData = {
assembly = "PUSHB[ ]	/* 6 values pushed */
69 1 8 7 1 66
MPPEM[ ]	/* MeasurePixelPerEm */
PUSHB[ ]	/* 1 value pushed */
45
LT[ ]	/* LessThan */
IF[ ]	/* If */
NPUSHB[ ]	/* 51 values pushed */
11 1 9 0 13 12 9 13 91 0 10 14 1 12 7 10 12 91 0 8 0 2 3 8 2 90 0 0 0 1 0 1 88 0 7 7 20 67 6 5 2 3 3 4 83 0 4 4 13 4 68
ELSE[ ]	/* Else */
NPUSHB[ ]	/* 54 values pushed */
0 7 12 8 12 7 8 104 11 1 9 0 13 12 9 13 91 0 10 14 1 12 7 10 12 91 0 8 0 2 3 8 2 90 0 0 0 1 0 1 88 6 5 2 3 3 4 83 0 4 4 13 4 68
EIF[ ]	/* EndIf */
NPUSHB[ ]	/* 23 values pushed */
123 121 118 116 113 111 105 103 100 98 95 93 168 44 19 36 52 39 28 52 51 15 24
CALL[ ]	/* CallFunction */";
};
width = 710;
},
{
layerId = "62092E79-60F6-4D0B-8A38-B9DDC6B60A9E";
shapes = (
{
closed = 1;
nodes = (
(384,830,o),
(372.333,837,o),
(353,837,cs),
(329,837,o),
(319.667,826.667,o),
(317,816,cs),
(293.137,737.253,o),
(267.659,639.167,o),
(219.5,466.5,cs),
(174.121,303.799,o),
(138.041,173.116,o),
(108,89,cs),
(100,65,o),
(87,53.667,o),
(59,51,cs),
(59.845,51,o),
(15.196,45,o),
(-12,45,cs),
(-25.333,45,o),
(-37,37.333,o),
(-37,24,cs),
(-37,9.333,o),
(-26,0,o),
(-14,0,cs),
(253,0,ls),
(279.667,0,o),
(287,12,o),
(287,24,cs),
(287,44,o),
(271.333,49,o),
(258,49,cs),
(223.943,49,o),
(182,48.548,o),
(182,65,cs),
(182,92.498,o),
(208.252,175.15,o),
(225,223,c),
(473,223,l),
(477.089,206.644,o),
(489.528,168.266,o),
(503,115.5,cs),
(517.884,57.204,o),
(526,23.825,o),
(526,15,cs),
(526,-32.87,o),
(455,-13.632,o),
(455,-39,cs),
(455,-44.333,o),
(457.167,-48.333,o),
(461.5,-51,cs),
(465.833,-53.667,o),
(474,-55,o),
(486,-55,cs),
(719,-55,ls),
(741.667,-55,o),
(754,-49.667,o),
(754,-31,cs),
(754,-12.333,o),
(731.667,-9,o),
(713,-9,cs),
(649,-9,o),
(608,-7.667,o),
(600,23,cs),
(388,816,l),
(388,816,l)
);
},
{
closed = 1;
nodes = (
(381.348,597.479,o),
(430.777,393.353,o),
(458,289,c),
(442.667,288.333,o),
(426.833,288,o),
(410.5,288,cs),
(394.167,288,o),
(378.333,288,o),
(363,288,cs),
(342.333,288,o),
(322.5,288,o),
(303.5,288,cs),
(284.5,288,o),
(264.667,288.333,o),
(244,289,c),
(254.823,332.292,o),
(278.404,424.346,o),
(303.5,516,cs),
(330.088,613.105,o),
(346.703,679.672,o),
(356,715,c)
);
},
{
closed = 1;
nodes = (
(195,919,o),
(194,913,o),
(194,907,cs),
(194,892,o),
(200,879,o),
(211,879,cs),
(228,879,o),
(255,904,o),
(295,904,cs),
(334,904,o),
(376,880,o),
(432,880,cs),
(488,880,o),
(521,902,o),
(534,925,cs),
(537,931,o),
(539,937,o),
(539,944,cs),
(539,960,o),
(528,972,o),
(521,972,cs),
(518,972,o),
(514,971,o),
(511,970,cs),
(507,968,o),
(500,964,o),
(491,959,cs),
(468,948,o),
(448,942,o),
(431,942,cs),
(392,942,o),
(330,970,o),
(294,970,cs),
(269,970,o),
(247,964,o),
(226,952,cs),
(216,946,o),
(209,941,o),
(205,936,cs),
(201,931,o),
(198,927,o),
(197,924,cs)
);
}
);
userData = {
assembly = "PUSHB[ ]	/* 6 values pushed */
71 1 8 7 1 66
MPPEM[ ]	/* MeasurePixelPerEm */
PUSHB[ ]	/* 1 value pushed */
45
LT[ ]	/* LessThan */
IF[ ]	/* If */
NPUSHB[ ]	/* 51 values pushed */
11 1 9 0 13 12 9 13 91 0 10 14 1 12 7 10 12 91 0 8 0 2 3 8 2 90 0 0 0 1 0 1 88 0 7 7 20 67 6 5 2 3 3 4 83 0 4 4 13 4 68
ELSE[ ]	/* Else */
NPUSHB[ ]	/* 54 values pushed */
0 7 12 8 12 7 8 104 11 1 9 0 13 12 9 13 91 0 10 14 1 12 7 10 12 91 0 8 0 2 3 8 2 90 0 0 0 1 0 1 88 6 5 2 3 3 4 83 0 4 4 13 4 68
EIF[ ]	/* EndIf */
NPUSHB[ ]	/* 23 values pushed */
123 121 118 116 113 111 105 103 100 98 95 93 105 44 19 36 52 56 30 52 35 15 35
CALL[ ]	/* CallFunction */";
};
width = 698;
},
{
layerId = "E59D8378-1062-4241-9A8F-EEB295F00E05";
shapes = (
{
closed = 1;
nodes = (
(686,-55,ls),
(709.333,-55,o),
(721,-50.333,o),
(721,-41,cs),
(721,-29,o),
(703.667,-29,o),
(685,-29,cs),
(653,-29,o),
(628.667,-27,o),
(612,-23,cs),
(595.333,-19,o),
(585.333,-10.333,o),
(582,3,cs),
(365,816,ls),
(361,830.667,o),
(351.667,835,o),
(345,835,cs),
(334.333,835,o),
(326.667,826.667,o),
(324,816,cs),
(309.578,766.966,o),
(264.676,604.466,o),
(224.5,456.5,cs),
(181.443,297.923,o),
(145.981,172.147,o),
(110,69,cs),
(100.667,45,o),
(90.333,33.667,o),
(61,31,cs),
(62.152,31,o),
(9.218,25,o),
(-30,25,cs),
(-43.333,25,o),
(-50,21.333,o),
(-50,14,cs),
(-50,3.333,o),
(-39,0,o),
(-27,0,cs),
(225,0,ls),
(238.333,0,o),
(247.333,1.667,o),
(252,5,cs),
(256.667,8.333,o),
(259,11.667,o),
(259,15,cs),
(259,29.667,o),
(238.333,29,o),
(225,29,cs),
(204.985,29,o),
(154,26.126,o),
(154,45,cs),
(154,74.195,o),
(186.968,172.749,o),
(206,238,c),
(477,238,l),
(481.265,218.806,o),
(496.406,169.833,o),
(511,112.5,cs),
(528.276,44.631,o),
(538,5.656,o),
(538,-5,cs),
(538,-37.488,o),
(442,-16.276,o),
(442,-41,cs),
(442,-46.333,o),
(444.167,-50,o),
(448.5,-52,cs),
(452.833,-54,o),
(461,-55,o),
(473,-55,cs)
);
},
{
closed = 1;
nodes = (
(298.667,272,o),
(259.333,272.667,o),
(218,274,c),
(233.077,338.616,o),
(254.142,418.105,o),
(284,529.5,cs),
(313.705,640.323,o),
(333.8,709,o),
(343,755,c),
(373.763,642.203,o),
(431.478,410.882,o),
(465,274,c),
(423.667,272.667,o),
(381.333,272,o),
(340,272,cs)
);
},
{
closed = 1;
nodes = (
(208.791,888,o),
(235.735,913,o),
(277,913,cs),
(315.662,913,o),
(358.294,889,o),
(414,889,cs),
(466.947,889,o),
(516,908.797,o),
(516,934,cs),
(516,943.333,o),
(509.667,951,o),
(503,951,cs),
(499.667,951,o),
(496.167,950.167,o),
(492.5,948.5,cs),
(488.833,946.833,o),
(482.333,943.333,o),
(473,938,cs),
(450.333,926.667,o),
(430.333,921,o),
(413,921,cs),
(373.599,921,o),
(312.495,949,o),
(276,949,cs),
(251.333,949,o),
(228.667,943,o),
(208,931,cs),
(188.667,919.667,o),
(179,910.333,o),
(179,903,cs),
(179,896.333,o),
(186.333,888,o),
(193,888,cs)
);
}
);
userData = {
assembly = "PUSHB[ ]	/* 6 values pushed */
69 1 9 8 1 66
MPPEM[ ]	/* MeasurePixelPerEm */
PUSHB[ ]	/* 1 value pushed */
45
LT[ ]	/* LessThan */
IF[ ]	/* If */
NPUSHB[ ]	/* 52 values pushed */
12 1 10 0 14 13 10 14 91 0 11 15 1 13 8 11 13 91 0 9 0 3 4 9 3 90 2 1 0 0 1 0 1 88 0 8 8 20 67 7 6 2 4 4 5 83 0 5 5 13 5 68
ELSE[ ]	/* Else */
NPUSHB[ ]	/* 55 values pushed */
0 8 13 9 13 8 9 104 12 1 10 0 14 13 10 14 91 0 11 15 1 13 8 11 13 91 0 9 0 3 4 9 3 90 2 1 0 0 1 0 1 88 7 6 2 4 4 5 83 0 5 5 13 5 68
EIF[ ]	/* EndIf */
NPUSHB[ ]	/* 25 values pushed */
120 118 115 113 110 108 102 100 97 95 92 90 82 76 44 18 51 52 56 25 20 51 34 16 24
CALL[ ]	/* CallFunction */";
};
width = 681;
}
);
note = Atilde;
unicode = 195;
},
{
glyphname = AE;
kernLeft = AE;
kernRight = AE;
lastChange = "2024-06-13 14:31:09 +0000";
layers = (
{
layerId = m01;
shapes = (
{
closed = 1;
nodes = (
(967.333,326,o),
(957.333,299.667,o),
(956,273,cs),
(950.926,181.662,o),
(943,130.962,o),
(943,121,cs),
(940.388,87.044,o),
(921.049,84,o),
(900,84,cs),
(622,84,l),
(622,377,l),
(643.333,378.333,o),
(663.667,379,o),
(685,379,cs),
(704.333,379,o),
(720,378.833,o),
(732,378.5,cs),
(744,378.167,o),
(754.667,378,o),
(764,378,cs),
(803.024,378,o),
(812,337.569,o),
(812,309,cs),
(812,291.667,o),
(825,270,o),
(853,270,cs),
(885,270,o),
(895,288.333,o),
(895,307,cs),
(895,325.667,o),
(894.667,344.333,o),
(894,363,cs),
(893.333,381.667,o),
(893,400.667,o),
(893,420,cs),
(893,439.333,o),
(893.333,458.167,o),
(894,476.5,cs),
(894.667,494.833,o),
(895,513.667,o),
(895,533,cs),
(895,547.667,o),
(884.667,570,o),
(854,570,cs),
(831.333,570,o),
(810,564.667,o),
(810,530,cs),
(810,509.333,o),
(808.833,493.167,o),
(806.5,481.5,cs),
(804.167,469.833,o),
(799.667,464,o),
(793,464,cs),
(794.48,464,o),
(733.73,461,o),
(685,461,cs),
(673.667,461,o),
(663,461.333,o),
(653,462,cs),
(643,462.667,o),
(632.667,463.333,o),
(622,464,c),
(622,737,l),
(874,737,ls),
(898,737,o),
(911,731.667,o),
(911,709,cs),
(911,645,ls),
(911,626.842,o),
(913.134,599,o),
(955,599,cs),
(988.333,599,o),
(999,625.667,o),
(999,651,cs),
(999,785,ls),
(999,813,o),
(989.667,821,o),
(971,821,cs),
(911.42,821,o),
(862.099,820,o),
(823,820,cs),
(782.98,820,o),
(739.664,819,o),
(693,819,cs),
(640.771,819,o),
(550.591,821,o),
(452,821,cs),
(431.478,821,o),
(394,821.241,o),
(394,785,cs),
(394,762.954,o),
(417.684,757,o),
(434,757,cs),
(448.667,757,o),
(468.333,757.667,o),
(483,751,c),
(442.792,674.605,o),
(391.107,565.582,o),
(324.5,428,cs),
(264.393,303.844,o),
(200.342,174.68,o),
(155,101,cs),
(140.333,77,o),
(127.333,65.667,o),
(98,63,cs),
(99.387,63,o),
(45.274,57,o),
(-3,57,cs),
(-24.333,57,o),
(-42,48.333,o),
(-42,27,cs),
(-42,7,o),
(-27.667,0,o),
(-5,0,cs),
(16.333,0,o),
(38.667,0.333,o),
(62,1,cs),
(85.333,1.667,o),
(107.667,2,o),
(129,2,cs),
(150.333,2,o),
(170.167,1.667,o),
(188.5,1,cs),
(206.833,0.333,o),
(226.667,0,o),
(248,0,cs),
(274.667,0,o),
(293,4.333,o),
(293,31,cs),
(293,51,o),
(283.333,58.667,o),
(270,60,cs),
(262,60.667,o),
(255.333,61.5,o),
(250,62.5,cs),
(244.667,63.5,o),
(242,65.333,o),
(242,68,cs),
(242,72.601,o),
(266.631,126.173,o),
(321,214,c),
(529,214,l),
(529,195.333,o),
(528.833,177.5,o),
(528.5,160.5,cs),
(528.167,143.5,o),
(528,122,o),
(528,96,cs),
(528,82,o),
(522.333,72.5,o),
(511,67.5,cs),
(499.667,62.5,o),
(478.333,60,o),
(447,60,cs),
(420.333,60,o),
(408,54.667,o),
(408,32,cs),
(408,8,o),
(434,0,o),
(454,0,cs),
(494.667,0,o),
(535.167,0.333,o),
(575.5,1,cs),
(615.833,1.667,o),
(656.333,2,o),
(697,2,cs),
(746.333,2,o),
(794.333,1.667,o),
(841,1,cs),
(887.667,0.333,o),
(935.667,0,o),
(985,0,cs),
(1014.333,0,o),
(1024.333,10.333,o),
(1027,33,cs),
(1040.03,130.727,o),
(1043,248.339,o),
(1043,277,cs),
(1043,295.65,o),
(1036.166,326,o),
(1002,326,cs)
);
},
{
closed = 1;
nodes = (
(389,296,o),
(363.667,296.667,o),
(341,298,c),
(384.911,416.012,o),
(493.647,583.979,o),
(524,664,c),
(524,660,ls),
(524,572.387,o),
(530,534.882,o),
(530,425,cs),
(530,396.333,o),
(530,371.833,o),
(530,351.5,cs),
(530,331.167,o),
(529.667,313,o),
(529,297,c),
(509.667,296.333,o),
(490.333,296,o),
(471,296,cs),
(451.667,296,o),
(432.333,296,o),
(413,296,cs)
);
}
);
userData = {
assembly = "NPUSHB[ ]	/* 14 values pushed */
73 1 10 7 181 1 9 10 161 1 15 3 3 66
MPPEM[ ]	/* MeasurePixelPerEm */
PUSHB[ ]	/* 1 value pushed */
9
LT[ ]	/* LessThan */
IF[ ]	/* If */
NPUSHB[ ]	/* 85 values pushed */
0 7 8 10 10 7 96 0 9 10 12 10 9 96 17 1 0 14 16 14 0 16 104 0 12 0 13 3 12 13 91 18 1 16 0 3 15 16 3 89 0 10 10 8 84 0 8 8 12 67 0 14 14 11 83 0 11 11 23 67 0 15 15 1 84 4 1 1 1 13 67 6 5 2 2 2 1 83 4 1 1 1 13 1 68
ELSE[ ]	/* Else */
MPPEM[ ]	/* MeasurePixelPerEm */
PUSHB[ ]	/* 1 value pushed */
20
LT[ ]	/* LessThan */
IF[ ]	/* If */
NPUSHB[ ]	/* 86 values pushed */
0 7 8 10 10 7 96 0 9 10 12 10 9 12 104 17 1 0 14 16 14 0 16 104 0 12 0 13 3 12 13 91 18 1 16 0 3 15 16 3 89 0 10 10 8 84 0 8 8 12 67 0 14 14 11 83 0 11 11 23 67 0 15 15 1 84 4 1 1 1 13 67 6 5 2 2 2 1 83 4 1 1 1 13 1 68
ELSE[ ]	/* Else */
MPPEM[ ]	/* MeasurePixelPerEm */
PUSHB[ ]	/* 1 value pushed */
45
LT[ ]	/* LessThan */
IF[ ]	/* If */
NPUSHB[ ]	/* 84 values pushed */
0 7 8 10 10 7 96 0 9 10 12 10 9 12 104 17 1 0 14 16 14 0 16 104 0 11 0 14 0 11 14 91 0 12 0 13 3 12 13 91 18 1 16 0 3 15 16 3 89 0 10 10 8 84 0 8 8 12 67 0 15 15 1 84 4 1 1 1 13 67 6 5 2 2 2 1 83 4 1 1 1 13 1 68
ELSE[ ]	/* Else */
NPUSHB[ ]	/* 84 values pushed */
0 7 8 10 10 7 96 0 9 10 12 10 9 12 104 17 1 0 14 16 14 0 16 104 0 11 0 14 0 11 14 91 0 12 0 13 3 12 13 91 18 1 16 0 3 15 16 3 89 0 10 10 8 84 0 8 8 14 67 0 15 15 1 84 4 1 1 1 13 67 6 5 2 2 2 1 83 4 1 1 1 13 1 68
EIF[ ]	/* EndIf */
EIF[ ]	/* EndIf */
EIF[ ]	/* EndIf */
NPUSHB[ ]	/* 44 values pushed */
172 169 1 0 169 188 172 186 157 155 154 147 141 139 129 127 123 114 113 111 104 102 97 84 77 74 63 62 61 57 53 45 32 31 26 24 20 12 0 168 1 168 19 15
CALL[ ]	/* CallFunction */";
};
width = 1076;
},
{
layerId = "62092E79-60F6-4D0B-8A38-B9DDC6B60A9E";
shapes = (
{
closed = 1;
nodes = (
(963,320,o),
(954.333,299.667,o),
(953,273,cs),
(949.401,208.223,o),
(945.639,170.668,o),
(940,103,cs),
(937.388,69.044,o),
(918.049,66,o),
(897,66,cs),
(598,66,l),
(598,386,l),
(626,387.333,o),
(654,388,o),
(682,388,cs),
(701.333,388,o),
(717,387.833,o),
(729,387.5,cs),
(741,387.167,o),
(751.667,387,o),
(761,387,cs),
(800.323,387,o),
(809,339.717,o),
(809,309,cs),
(809,291.667,o),
(820,274,o),
(840,274,cs),
(861.333,274,o),
(871,287,o),
(871,307,cs),
(871,325.667,o),
(870.667,344.333,o),
(870,363,cs),
(869.333,381.667,o),
(869,400.667,o),
(869,420,cs),
(869,439.333,o),
(869.333,458.167,o),
(870,476.5,cs),
(870.667,494.833,o),
(871,513.667,o),
(871,533,cs),
(871,547.667,o),
(863.667,566,o),
(841,566,cs),
(821,566,o),
(807,558,o),
(807,530,cs),
(807,512.406,o),
(806.241,455,o),
(790,455,cs),
(791.48,455,o),
(730.73,452,o),
(682,452,cs),
(667.333,452,o),
(653.167,452.333,o),
(639.5,453,cs),
(625.833,453.667,o),
(612,454.333,o),
(598,455,c),
(598,755,l),
(871,755,ls),
(885.861,755,o),
(908,754.133,o),
(908,727,cs),
(908,645,ls),
(908,625.306,o),
(911.45,601,o),
(942,601,cs),
(968.667,601,o),
(975,625.667,o),
(975,651,cs),
(975,785,ls),
(975,813,o),
(965.667,821,o),
(947,821,cs),
(891.866,821,o),
(846.212,820,o),
(810,820,cs),
(772.545,820,o),
(732.565,819,o),
(690,819,cs),
(637.771,819,o),
(547.591,821,o),
(449,821,cs),
(422.971,821,o),
(398,817.395,o),
(398,792,cs),
(398,770.667,o),
(422,769,o),
(438,769,cs),
(452.667,769,o),
(472.333,769.667,o),
(487,763,c),
(449.224,691.226,o),
(383.569,557.048,o),
(321,428,cs),
(261.202,304.667,o),
(187.352,159.587,o),
(145,89,cs),
(130.333,65,o),
(117.333,53.667,o),
(88,51,cs),
(89.144,51,o),
(30.97,45,o),
(-9,45,cs),
(-27.667,45,o),
(-41,38,o),
(-41,22,cs),
(-41,6,o),
(-29.667,0,o),
(-11,0,cs),
(10.333,0,o),
(32,0.333,o),
(54,1,cs),
(76,1.667,o),
(97.667,2,o),
(119,2,cs),
(140.333,2,o),
(160.833,1.667,o),
(180.5,1,cs),
(200.167,0.333,o),
(220.667,0,o),
(242,0,cs),
(268.667,0,o),
(284,6.333,o),
(284,25,cs),
(284,46.333,o),
(261.333,49,o),
(248,49,cs),
(240,49.667,o),
(232.833,50.167,o),
(226.5,50.5,cs),
(220.167,50.833,o),
(217,55.667,o),
(217,65,cs),
(217,76.25,o),
(245.376,132.251,o),
(299,223,c),
(526,223,l),
(526,201,o),
(525.833,180,o),
(525.5,160,cs),
(525.167,140,o),
(525,114.667,o),
(525,84,cs),
(525,70,o),
(519.333,60.5,o),
(508,55.5,cs),
(496.667,50.5,o),
(475.333,48,o),
(444,48,cs),
(417.333,48,o),
(405,44,o),
(405,24,cs),
(405,5.333,o),
(431,0,o),
(451,0,cs),
(532.333,1.333,o),
(612.667,2,o),
(694,2,cs),
(740,2,o),
(784.5,1.667,o),
(827.5,1,cs),
(870.5,0.333,o),
(915,0,o),
(961,0,cs),
(989,0,o),
(1000.333,6.333,o),
(1003,33,cs),
(1016.225,165.246,o),
(1019,265.924,o),
(1019,277,cs),
(1019,291.71,o),
(1018.4,320,o),
(991,320,cs)
);
},
{
closed = 1;
nodes = (
(394,287,o),
(378.667,287.333,o),
(364,288,cs),
(349.333,288.667,o),
(334.333,289,o),
(319,289,c),
(343.475,348.148,o),
(379.092,419.712,o),
(425.5,508,cs),
(463.598,580.478,o),
(507.604,664.51,o),
(521,698,c),
(521,694,ls),
(521,655.107,o),
(522.821,613.927,o),
(524,581.5,cs),
(525.333,544.833,o),
(527,499.667,o),
(527,425,cs),
(527,394.333,o),
(527,368.167,o),
(527,346.5,cs),
(527,324.833,o),
(526.667,305.333,o),
(526,288,c),
(506.667,287.333,o),
(487.333,287,o),
(468,287,cs),
(448.667,287,o),
(429.333,287,o),
(410,287,cs)
);
}
);
userData = {
assembly = "NPUSHB[ ]	/* 10 values pushed */
73 1 12 9 183 1 11 12 2 66
MPPEM[ ]	/* MeasurePixelPerEm */
PUSHB[ ]	/* 1 value pushed */
20
LT[ ]	/* LessThan */
IF[ ]	/* If */
NPUSHB[ ]	/* 88 values pushed */
0 9 10 12 12 9 96 0 11 12 14 12 11 14 104 19 1 0 16 18 16 0 18 104 0 14 0 15 3 14 15 91 20 1 18 0 3 17 18 3 89 0 12 12 10 84 0 10 10 12 67 0 16 16 13 83 0 13 13 15 67 0 17 17 1 84 6 1 1 1 13 67 8 7 5 4 4 2 2 1 83 6 1 1 1 13 1 68
ELSE[ ]	/* Else */
MPPEM[ ]	/* MeasurePixelPerEm */
PUSHB[ ]	/* 1 value pushed */
45
LT[ ]	/* LessThan */
IF[ ]	/* If */
NPUSHB[ ]	/* 86 values pushed */
0 9 10 12 12 9 96 0 11 12 14 12 11 14 104 19 1 0 16 18 16 0 18 104 0 13 0 16 0 13 16 91 0 14 0 15 3 14 15 91 20 1 18 0 3 17 18 3 89 0 12 12 10 84 0 10 10 12 67 0 17 17 1 84 6 1 1 1 13 67 8 7 5 4 4 2 2 1 83 6 1 1 1 13 1 68
ELSE[ ]	/* Else */
NPUSHB[ ]	/* 86 values pushed */
0 9 10 12 12 9 96 0 11 12 14 12 11 14 104 19 1 0 16 18 16 0 18 104 0 13 0 16 0 13 16 91 0 14 0 15 3 14 15 91 20 1 18 0 3 17 18 3 89 0 12 12 10 84 0 10 10 14 67 0 17 17 1 84 6 1 1 1 13 67 8 7 5 4 4 2 2 1 83 6 1 1 1 13 1 68
EIF[ ]	/* EndIf */
EIF[ ]	/* EndIf */
NPUSHB[ ]	/* 48 values pushed */
174 171 1 0 171 192 174 190 159 157 156 149 143 141 131 129 123 114 113 111 102 100 95 82 77 74 63 62 61 57 53 45 41 40 39 38 32 31 26 24 20 12 0 170 1 170 21 15
CALL[ ]	/* CallFunction */";
};
width = 1054;
},
{
layerId = "E59D8378-1062-4241-9A8F-EEB295F00E05";
shapes = (
{
closed = 1;
nodes = (
(22.667,1.333,o),
(62.333,2,o),
(105,2,cs),
(126.333,2,o),
(147.833,1.667,o),
(169.5,1,cs),
(191.167,0.333,o),
(212.667,0,o),
(234,0,cs),
(247.333,0,o),
(256.833,1.667,o),
(262.5,5,cs),
(268.167,8.333,o),
(271,11.667,o),
(271,15,cs),
(271,29.667,o),
(253.333,29,o),
(240,29,cs),
(220.813,29,o),
(173,26.052,o),
(173,45,cs),
(173,63.635,o),
(228.299,158.598,o),
(268,238,c),
(522,238,l),
(522,167.366,o),
(521,132.177,o),
(521,64,cs),
(521,50,o),
(515.333,40.5,o),
(504,35.5,cs),
(492.667,30.5,o),
(471.333,28,o),
(440,28,cs),
(426.667,28,o),
(416.833,27,o),
(410.5,25,cs),
(404.167,23,o),
(401,18.333,o),
(401,11,cs),
(401,0.333,o),
(427,0,o),
(447,0,cs),
(528.333,1.333,o),
(608.667,2,o),
(690,2,cs),
(730.667,2,o),
(770.167,1.667,o),
(808.5,1,cs),
(846.833,0.333,o),
(886.333,0,o),
(927,0,cs),
(953.667,0,o),
(966.333,-0.333,o),
(969,33,cs),
(979.644,139.44,o),
(985,285.132,o),
(985,277,cs),
(985,293,o),
(984.667,310,o),
(966,310,cs),
(962.667,310,o),
(959.167,307.167,o),
(955.5,301.5,cs),
(951.833,295.833,o),
(949.667,286.333,o),
(949,273,cs),
(943.922,166.353,o),
(938.061,99.79,o),
(936,73,cs),
(933.388,39.044,o),
(914.049,36,o),
(893,36,cs),
(564,36,l),
(564,401,l),
(602.667,402.333,o),
(639.333,403,o),
(678,403,cs),
(697.333,403,o),
(713,402.833,o),
(725,402.5,cs),
(737,402.167,o),
(747.667,402,o),
(757,402,cs),
(796.501,402,o),
(805,345.97,o),
(805,309,cs),
(805,291.667,o),
(812.667,280,o),
(822,280,cs),
(824.667,280,o),
(827.833,281.667,o),
(831.5,285,cs),
(835.167,288.333,o),
(837,295.667,o),
(837,307,cs),
(837,325.667,o),
(836.667,344.333,o),
(836,363,cs),
(835.333,381.667,o),
(835,400.667,o),
(835,420,cs),
(835,439.333,o),
(835.333,458.167,o),
(836,476.5,cs),
(836.667,494.833,o),
(837,513.667,o),
(837,533,cs),
(837,547.667,o),
(836,560,o),
(820,560,cs),
(806.277,560,o),
(803,541.121,o),
(803,530,cs),
(803,471.034,o),
(797.262,440,o),
(786,440,cs),
(787.48,440,o),
(726.73,437,o),
(678,437,cs),
(658.667,437,o),
(639.667,437.333,o),
(621,438,cs),
(602.333,438.667,o),
(583.333,439.333,o),
(564,440,c),
(564,785,l),
(867,785,ls),
(880.333,785,o),
(904,782.333,o),
(904,757,cs),
(904,645,ls),
(904,626.333,o),
(904,605,o),
(924,605,cs),
(938.667,605,o),
(941,625.667,o),
(941,651,cs),
(941,785,ls),
(941,813,o),
(931.667,821,o),
(913,821,cs),
(833.449,821,o),
(749.039,819,o),
(686,819,cs),
(633.771,819,o),
(543.591,821,o),
(445,821,cs),
(425,821,o),
(404,818.667,o),
(404,804,cs),
(404,789.333,o),
(421.333,789,o),
(444,789,cs),
(458.667,789,o),
(478.333,789.667,o),
(493,783,c),
(454.391,707.712,o),
(392.375,580.327,o),
(317,428.5,cs),
(242.387,278.208,o),
(175.383,148.118,o),
(131,69,cs),
(116.333,45,o),
(103.333,33.667,o),
(74,31,cs),
(75.299,31,o),
(21.635,25,o),
(-18,25,cs),
(-32.667,25,o),
(-40,21.333,o),
(-40,14,cs),
(-40,4.667,o),
(-33.333,0,o),
(-20,0,cs)
);
},
{
closed = 1;
nodes = (
(384.667,272,o),
(364.667,272.333,o),
(346,273,cs),
(327.333,273.667,o),
(308,274,o),
(288,274,c),
(314.319,334.735,o),
(362.256,431.447,o),
(409,529,cs),
(458.358,632.009,o),
(499.772,715.716,o),
(517,754,c),
(517,750,ls),
(517,632.98,o),
(523,567.873,o),
(523,425,cs),
(523,391,o),
(523,362,o),
(523,338,cs),
(523,314,o),
(522.667,292.333,o),
(522,273,c),
(502.667,272.333,o),
(483.333,272,o),
(464,272,cs),
(444.667,272,o),
(425.333,272,o),
(406,272,cs)
);
}
);
userData = {
assembly = "PUSHB[ ]	/* 7 values pushed */
179 73 2 10 8 1 66
MPPEM[ ]	/* MeasurePixelPerEm */
PUSHB[ ]	/* 1 value pushed */
20
LT[ ]	/* LessThan */
IF[ ]	/* If */
NPUSHB[ ]	/* 81 values pushed */
0 10 8 13 8 10 13 104 18 1 0 15 14 15 0 14 104 0 13 0 14 17 13 14 91 19 1 17 0 3 16 17 3 89 11 1 8 8 9 83 0 9 9 12 67 0 15 15 12 83 0 12 12 15 67 0 16 16 1 83 5 1 1 1 13 67 7 6 4 3 2 2 1 83 5 1 1 1 13 1 68
ELSE[ ]	/* Else */
MPPEM[ ]	/* MeasurePixelPerEm */
PUSHB[ ]	/* 1 value pushed */
45
LT[ ]	/* LessThan */
IF[ ]	/* If */
NPUSHB[ ]	/* 79 values pushed */
0 10 8 13 8 10 13 104 18 1 0 15 14 15 0 14 104 0 12 0 15 0 12 15 91 0 13 0 14 17 13 14 91 19 1 17 0 3 16 17 3 89 11 1 8 8 9 83 0 9 9 12 67 0 16 16 1 83 5 1 1 1 13 67 7 6 4 3 2 2 1 83 5 1 1 1 13 1 68
ELSE[ ]	/* Else */
NPUSHB[ ]	/* 79 values pushed */
0 10 8 13 8 10 13 104 18 1 0 15 14 15 0 14 104 0 12 0 15 0 12 15 91 0 13 0 14 17 13 14 91 19 1 17 0 3 16 17 3 89 11 1 8 8 9 83 0 9 9 14 67 0 16 16 1 83 5 1 1 1 13 67 7 6 4 3 2 2 1 83 5 1 1 1 13 1 68
EIF[ ]	/* EndIf */
EIF[ ]	/* EndIf */
NPUSHB[ ]	/* 46 values pushed */
170 167 1 0 167 188 170 186 155 153 152 145 139 137 127 125 117 108 107 105 100 98 93 81 77 74 63 62 60 57 55 47 43 40 32 31 24 22 18 10 0 166 1 166 20 15
CALL[ ]	/* CallFunction */";
};
width = 1023;
}
);
note = AE;
unicode = 198;
},
{
glyphname = AEacute;
kernLeft = AE;
kernRight = AE;
lastChange = "2024-06-13 14:31:09 +0000";
layers = (
{
layerId = m01;
shapes = (
{
closed = 1;
nodes = (
(671,953.333,o),
(656.667,972,o),
(630,972,cs),
(592.314,972,o),
(516,898.458,o),
(516,871,cs),
(516,856.333,o),
(530.667,841,o),
(552,841,cs),
(585.368,841,o),
(671,897.284,o),
(671,936,cs)
);
},
{
closed = 1;
nodes = (
(967.333,326,o),
(957.333,299.667,o),
(956,273,cs),
(950.926,181.662,o),
(943,130.962,o),
(943,121,cs),
(940.388,87.044,o),
(921.049,84,o),
(900,84,cs),
(622,84,l),
(622,377,l),
(643.333,378.333,o),
(663.667,379,o),
(685,379,cs),
(704.333,379,o),
(720,378.833,o),
(732,378.5,cs),
(744,378.167,o),
(754.667,378,o),
(764,378,cs),
(803.024,378,o),
(812,337.569,o),
(812,309,cs),
(812,291.667,o),
(825,270,o),
(853,270,cs),
(885,270,o),
(895,288.333,o),
(895,307,cs),
(895,325.667,o),
(894.667,344.333,o),
(894,363,cs),
(893.333,381.667,o),
(893,400.667,o),
(893,420,cs),
(893,439.333,o),
(893.333,458.167,o),
(894,476.5,cs),
(894.667,494.833,o),
(895,513.667,o),
(895,533,cs),
(895,547.667,o),
(884.667,570,o),
(854,570,cs),
(831.333,570,o),
(810,564.667,o),
(810,530,cs),
(810,509.333,o),
(808.833,493.167,o),
(806.5,481.5,cs),
(804.167,469.833,o),
(799.667,464,o),
(793,464,cs),
(794.48,464,o),
(733.73,461,o),
(685,461,cs),
(673.667,461,o),
(663,461.333,o),
(653,462,cs),
(643,462.667,o),
(632.667,463.333,o),
(622,464,c),
(622,737,l),
(874,737,ls),
(898,737,o),
(911,731.667,o),
(911,709,cs),
(911,645,ls),
(911,626.842,o),
(913.134,599,o),
(955,599,cs),
(988.333,599,o),
(999,625.667,o),
(999,651,cs),
(999,785,ls),
(999,813,o),
(989.667,821,o),
(971,821,cs),
(911.42,821,o),
(862.099,820,o),
(823,820,cs),
(782.98,820,o),
(739.664,819,o),
(693,819,cs),
(640.771,819,o),
(550.591,821,o),
(452,821,cs),
(431.478,821,o),
(394,821.241,o),
(394,785,cs),
(394,762.954,o),
(417.684,757,o),
(434,757,cs),
(448.667,757,o),
(468.333,757.667,o),
(483,751,c),
(442.792,674.605,o),
(391.107,565.582,o),
(324.5,428,cs),
(264.393,303.844,o),
(200.342,174.68,o),
(155,101,cs),
(140.333,77,o),
(127.333,65.667,o),
(98,63,cs),
(99.387,63,o),
(45.274,57,o),
(-3,57,cs),
(-24.333,57,o),
(-42,48.333,o),
(-42,27,cs),
(-42,7,o),
(-27.667,0,o),
(-5,0,cs),
(16.333,0,o),
(38.667,0.333,o),
(62,1,cs),
(85.333,1.667,o),
(107.667,2,o),
(129,2,cs),
(150.333,2,o),
(170.167,1.667,o),
(188.5,1,cs),
(206.833,0.333,o),
(226.667,0,o),
(248,0,cs),
(274.667,0,o),
(293,4.333,o),
(293,31,cs),
(293,51,o),
(283.333,58.667,o),
(270,60,cs),
(262,60.667,o),
(255.333,61.5,o),
(250,62.5,cs),
(244.667,63.5,o),
(242,65.333,o),
(242,68,cs),
(242,72.601,o),
(266.631,126.173,o),
(321,214,c),
(529,214,l),
(529,195.333,o),
(528.833,177.5,o),
(528.5,160.5,cs),
(528.167,143.5,o),
(528,122,o),
(528,96,cs),
(528,82,o),
(522.333,72.5,o),
(511,67.5,cs),
(499.667,62.5,o),
(478.333,60,o),
(447,60,cs),
(420.333,60,o),
(408,54.667,o),
(408,32,cs),
(408,8,o),
(434,0,o),
(454,0,cs),
(494.667,0,o),
(535.167,0.333,o),
(575.5,1,cs),
(615.833,1.667,o),
(656.333,2,o),
(697,2,cs),
(746.333,2,o),
(794.333,1.667,o),
(841,1,cs),
(887.667,0.333,o),
(935.667,0,o),
(985,0,cs),
(1014.333,0,o),
(1024.333,10.333,o),
(1027,33,cs),
(1040.03,130.727,o),
(1043,248.339,o),
(1043,277,cs),
(1043,295.65,o),
(1036.166,326,o),
(1002,326,cs)
);
},
{
closed = 1;
nodes = (
(389,296,o),
(363.667,296.667,o),
(341,298,c),
(384.911,416.012,o),
(493.647,583.979,o),
(524,664,c),
(524,660,ls),
(524,572.387,o),
(530,534.882,o),
(530,425,cs),
(530,396.333,o),
(530,371.833,o),
(530,351.5,cs),
(530,331.167,o),
(529.667,313,o),
(529,297,c),
(509.667,296.333,o),
(490.333,296,o),
(471,296,cs),
(451.667,296,o),
(432.333,296,o),
(413,296,cs)
);
}
);
userData = {
assembly = "NPUSHB[ ]	/* 14 values pushed */
89 1 12 9 197 1 11 12 177 1 17 5 3 66
MPPEM[ ]	/* MeasurePixelPerEm */
PUSHB[ ]	/* 1 value pushed */
9
LT[ ]	/* LessThan */
IF[ ]	/* If */
NPUSHB[ ]	/* 95 values pushed */
0 1 0 1 106 0 0 10 0 106 0 9 10 12 12 9 96 0 11 12 14 12 11 96 19 1 2 16 18 16 2 18 104 0 14 0 15 5 14 15 91 20 1 18 0 5 17 18 5 89 0 12 12 10 84 0 10 10 12 67 0 16 16 13 83 0 13 13 23 67 0 17 17 3 84 6 1 3 3 13 67 8 7 2 4 4 3 83 6 1 3 3 13 3 68
ELSE[ ]	/* Else */
MPPEM[ ]	/* MeasurePixelPerEm */
PUSHB[ ]	/* 1 value pushed */
20
LT[ ]	/* LessThan */
IF[ ]	/* If */
NPUSHB[ ]	/* 96 values pushed */
0 1 0 1 106 0 0 10 0 106 0 9 10 12 12 9 96 0 11 12 14 12 11 14 104 19 1 2 16 18 16 2 18 104 0 14 0 15 5 14 15 91 20 1 18 0 5 17 18 5 89 0 12 12 10 84 0 10 10 12 67 0 16 16 13 83 0 13 13 23 67 0 17 17 3 84 6 1 3 3 13 67 8 7 2 4 4 3 83 6 1 3 3 13 3 68
ELSE[ ]	/* Else */
MPPEM[ ]	/* MeasurePixelPerEm */
PUSHB[ ]	/* 1 value pushed */
45
LT[ ]	/* LessThan */
IF[ ]	/* If */
NPUSHB[ ]	/* 94 values pushed */
0 1 0 1 106 0 0 10 0 106 0 9 10 12 12 9 96 0 11 12 14 12 11 14 104 19 1 2 16 18 16 2 18 104 0 13 0 16 2 13 16 91 0 14 0 15 5 14 15 91 20 1 18 0 5 17 18 5 89 0 12 12 10 84 0 10 10 12 67 0 17 17 3 84 6 1 3 3 13 67 8 7 2 4 4 3 83 6 1 3 3 13 3 68
ELSE[ ]	/* Else */
NPUSHB[ ]	/* 94 values pushed */
0 1 0 1 106 0 0 10 0 106 0 9 10 12 12 9 96 0 11 12 14 12 11 14 104 19 1 2 16 18 16 2 18 104 0 13 0 16 2 13 16 91 0 14 0 15 5 14 15 91 20 1 18 0 5 17 18 5 89 0 12 12 10 84 0 10 10 14 67 0 17 17 3 84 6 1 3 3 13 67 8 7 2 4 4 3 83 6 1 3 3 13 3 68
EIF[ ]	/* EndIf */
EIF[ ]	/* EndIf */
EIF[ ]	/* EndIf */
NPUSHB[ ]	/* 46 values pushed */
188 185 17 16 185 204 188 202 173 171 170 163 157 155 145 143 139 130 129 127 120 118 113 100 93 90 79 78 77 73 69 61 48 47 42 40 36 28 16 184 17 184 38 36 21 17
CALL[ ]	/* CallFunction */";
};
width = 1076;
},
{
layerId = "62092E79-60F6-4D0B-8A38-B9DDC6B60A9E";
shapes = (
{
closed = 1;
nodes = (
(660,959.667,o),
(648,972,o),
(628,972,cs),
(598.753,972,o),
(522,903.873,o),
(522,877,cs),
(522,863.667,o),
(531.333,854,o),
(546,854,cs),
(572.12,854,o),
(660,908.21,o),
(660,941,cs)
);
},
{
closed = 1;
nodes = (
(963,320,o),
(954.333,299.667,o),
(953,273,cs),
(949.401,208.223,o),
(945.639,170.668,o),
(940,103,cs),
(937.388,69.044,o),
(918.049,66,o),
(897,66,cs),
(598,66,l),
(598,386,l),
(626,387.333,o),
(654,388,o),
(682,388,cs),
(701.333,388,o),
(717,387.833,o),
(729,387.5,cs),
(741,387.167,o),
(751.667,387,o),
(761,387,cs),
(800.323,387,o),
(809,339.717,o),
(809,309,cs),
(809,291.667,o),
(820,274,o),
(840,274,cs),
(861.333,274,o),
(871,287,o),
(871,307,cs),
(871,325.667,o),
(870.667,344.333,o),
(870,363,cs),
(869.333,381.667,o),
(869,400.667,o),
(869,420,cs),
(869,439.333,o),
(869.333,458.167,o),
(870,476.5,cs),
(870.667,494.833,o),
(871,513.667,o),
(871,533,cs),
(871,547.667,o),
(863.667,566,o),
(841,566,cs),
(821,566,o),
(807,558,o),
(807,530,cs),
(807,512.406,o),
(806.241,455,o),
(790,455,cs),
(791.48,455,o),
(730.73,452,o),
(682,452,cs),
(667.333,452,o),
(653.167,452.333,o),
(639.5,453,cs),
(625.833,453.667,o),
(612,454.333,o),
(598,455,c),
(598,755,l),
(871,755,ls),
(885.861,755,o),
(908,754.133,o),
(908,727,cs),
(908,645,ls),
(908,625.306,o),
(911.45,601,o),
(942,601,cs),
(968.667,601,o),
(975,625.667,o),
(975,651,cs),
(975,785,ls),
(975,813,o),
(965.667,821,o),
(947,821,cs),
(891.866,821,o),
(846.212,820,o),
(810,820,cs),
(772.545,820,o),
(732.565,819,o),
(690,819,cs),
(637.771,819,o),
(547.591,821,o),
(449,821,cs),
(422.971,821,o),
(398,817.395,o),
(398,792,cs),
(398,770.667,o),
(422,769,o),
(438,769,cs),
(452.667,769,o),
(472.333,769.667,o),
(487,763,c),
(449.224,691.226,o),
(383.569,557.048,o),
(321,428,cs),
(261.202,304.667,o),
(187.352,159.587,o),
(145,89,cs),
(130.333,65,o),
(117.333,53.667,o),
(88,51,cs),
(89.144,51,o),
(30.97,45,o),
(-9,45,cs),
(-27.667,45,o),
(-41,38,o),
(-41,22,cs),
(-41,6,o),
(-29.667,0,o),
(-11,0,cs),
(10.333,0,o),
(32,0.333,o),
(54,1,cs),
(76,1.667,o),
(97.667,2,o),
(119,2,cs),
(140.333,2,o),
(160.833,1.667,o),
(180.5,1,cs),
(200.167,0.333,o),
(220.667,0,o),
(242,0,cs),
(268.667,0,o),
(284,6.333,o),
(284,25,cs),
(284,46.333,o),
(261.333,49,o),
(248,49,cs),
(240,49.667,o),
(232.833,50.167,o),
(226.5,50.5,cs),
(220.167,50.833,o),
(217,55.667,o),
(217,65,cs),
(217,76.25,o),
(245.376,132.251,o),
(299,223,c),
(526,223,l),
(526,201,o),
(525.833,180,o),
(525.5,160,cs),
(525.167,140,o),
(525,114.667,o),
(525,84,cs),
(525,70,o),
(519.333,60.5,o),
(508,55.5,cs),
(496.667,50.5,o),
(475.333,48,o),
(444,48,cs),
(417.333,48,o),
(405,44,o),
(405,24,cs),
(405,5.333,o),
(431,0,o),
(451,0,cs),
(532.333,1.333,o),
(612.667,2,o),
(694,2,cs),
(740,2,o),
(784.5,1.667,o),
(827.5,1,cs),
(870.5,0.333,o),
(915,0,o),
(961,0,cs),
(989,0,o),
(1000.333,6.333,o),
(1003,33,cs),
(1016.225,165.246,o),
(1019,265.924,o),
(1019,277,cs),
(1019,291.71,o),
(1018.4,320,o),
(991,320,cs)
);
},
{
closed = 1;
nodes = (
(394,287,o),
(378.667,287.333,o),
(364,288,cs),
(349.333,288.667,o),
(334.333,289,o),
(319,289,c),
(343.475,348.148,o),
(379.092,419.712,o),
(425.5,508,cs),
(463.598,580.478,o),
(507.604,664.51,o),
(521,698,c),
(521,694,ls),
(521,655.107,o),
(522.821,613.927,o),
(524,581.5,cs),
(525.333,544.833,o),
(527,499.667,o),
(527,425,cs),
(527,394.333,o),
(527,368.167,o),
(527,346.5,cs),
(527,324.833,o),
(526.667,305.333,o),
(526,288,c),
(506.667,287.333,o),
(487.333,287,o),
(468,287,cs),
(448.667,287,o),
(429.333,287,o),
(410,287,cs)
);
}
);
userData = {
assembly = "NPUSHB[ ]	/* 10 values pushed */
89 1 14 11 199 1 13 14 2 66
MPPEM[ ]	/* MeasurePixelPerEm */
PUSHB[ ]	/* 1 value pushed */
20
LT[ ]	/* LessThan */
IF[ ]	/* If */
NPUSHB[ ]	/* 98 values pushed */
0 1 0 1 106 0 0 12 0 106 0 11 12 14 14 11 96 0 13 14 16 14 13 16 104 21 1 2 18 20 18 2 20 104 0 16 0 17 5 16 17 91 22 1 20 0 5 19 20 5 89 0 14 14 12 84 0 12 12 12 67 0 18 18 15 83 0 15 15 15 67 0 19 19 3 84 8 1 3 3 13 67 10 9 7 6 4 4 4 3 83 8 1 3 3 13 3 68
ELSE[ ]	/* Else */
MPPEM[ ]	/* MeasurePixelPerEm */
PUSHB[ ]	/* 1 value pushed */
45
LT[ ]	/* LessThan */
IF[ ]	/* If */
NPUSHB[ ]	/* 96 values pushed */
0 1 0 1 106 0 0 12 0 106 0 11 12 14 14 11 96 0 13 14 16 14 13 16 104 21 1 2 18 20 18 2 20 104 0 15 0 18 2 15 18 91 0 16 0 17 5 16 17 91 22 1 20 0 5 19 20 5 89 0 14 14 12 84 0 12 12 12 67 0 19 19 3 84 8 1 3 3 13 67 10 9 7 6 4 4 4 3 83 8 1 3 3 13 3 68
ELSE[ ]	/* Else */
NPUSHB[ ]	/* 96 values pushed */
0 1 0 1 106 0 0 12 0 106 0 11 12 14 14 11 96 0 13 14 16 14 13 16 104 21 1 2 18 20 18 2 20 104 0 15 0 18 2 15 18 91 0 16 0 17 5 16 17 91 22 1 20 0 5 19 20 5 89 0 14 14 12 84 0 12 12 14 67 0 19 19 3 84 8 1 3 3 13 67 10 9 7 6 4 4 4 3 83 8 1 3 3 13 3 68
EIF[ ]	/* EndIf */
EIF[ ]	/* EndIf */
NPUSHB[ ]	/* 50 values pushed */
190 187 17 16 187 208 190 206 175 173 172 165 159 157 147 145 139 130 129 127 118 116 111 98 93 90 79 78 77 73 69 61 57 56 55 54 48 47 42 40 36 28 16 186 17 186 38 36 23 17
CALL[ ]	/* CallFunction */";
};
width = 1054;
},
{
layerId = "E59D8378-1062-4241-9A8F-EEB295F00E05";
shapes = (
{
closed = 1;
nodes = (
(22.667,1.333,o),
(62.333,2,o),
(105,2,cs),
(126.333,2,o),
(147.833,1.667,o),
(169.5,1,cs),
(191.167,0.333,o),
(212.667,0,o),
(234,0,cs),
(247.333,0,o),
(256.833,1.667,o),
(262.5,5,cs),
(268.167,8.333,o),
(271,11.667,o),
(271,15,cs),
(271,29.667,o),
(253.333,29,o),
(240,29,cs),
(220.813,29,o),
(173,26.052,o),
(173,45,cs),
(173,63.635,o),
(228.299,158.598,o),
(268,238,c),
(522,238,l),
(522,167.366,o),
(521,132.177,o),
(521,64,cs),
(521,50,o),
(515.333,40.5,o),
(504,35.5,cs),
(492.667,30.5,o),
(471.333,28,o),
(440,28,cs),
(426.667,28,o),
(416.833,27,o),
(410.5,25,cs),
(404.167,23,o),
(401,18.333,o),
(401,11,cs),
(401,0.333,o),
(427,0,o),
(447,0,cs),
(528.333,1.333,o),
(608.667,2,o),
(690,2,cs),
(730.667,2,o),
(770.167,1.667,o),
(808.5,1,cs),
(846.833,0.333,o),
(886.333,0,o),
(927,0,cs),
(953.667,0,o),
(966.333,-0.333,o),
(969,33,cs),
(979.644,139.44,o),
(985,285.132,o),
(985,277,cs),
(985,293,o),
(984.667,310,o),
(966,310,cs),
(962.667,310,o),
(959.167,307.167,o),
(955.5,301.5,cs),
(951.833,295.833,o),
(949.667,286.333,o),
(949,273,cs),
(943.922,166.353,o),
(938.061,99.79,o),
(936,73,cs),
(933.388,39.044,o),
(914.049,36,o),
(893,36,cs),
(564,36,l),
(564,401,l),
(602.667,402.333,o),
(639.333,403,o),
(678,403,cs),
(697.333,403,o),
(713,402.833,o),
(725,402.5,cs),
(737,402.167,o),
(747.667,402,o),
(757,402,cs),
(796.501,402,o),
(805,345.97,o),
(805,309,cs),
(805,291.667,o),
(812.667,280,o),
(822,280,cs),
(824.667,280,o),
(827.833,281.667,o),
(831.5,285,cs),
(835.167,288.333,o),
(837,295.667,o),
(837,307,cs),
(837,325.667,o),
(836.667,344.333,o),
(836,363,cs),
(835.333,381.667,o),
(835,400.667,o),
(835,420,cs),
(835,439.333,o),
(835.333,458.167,o),
(836,476.5,cs),
(836.667,494.833,o),
(837,513.667,o),
(837,533,cs),
(837,547.667,o),
(836,560,o),
(820,560,cs),
(806.277,560,o),
(803,541.121,o),
(803,530,cs),
(803,471.034,o),
(797.262,440,o),
(786,440,cs),
(787.48,440,o),
(726.73,437,o),
(678,437,cs),
(658.667,437,o),
(639.667,437.333,o),
(621,438,cs),
(602.333,438.667,o),
(583.333,439.333,o),
(564,440,c),
(564,785,l),
(867,785,ls),
(880.333,785,o),
(904,782.333,o),
(904,757,cs),
(904,645,ls),
(904,626.333,o),
(904,605,o),
(924,605,cs),
(938.667,605,o),
(941,625.667,o),
(941,651,cs),
(941,785,ls),
(941,813,o),
(931.667,821,o),
(913,821,cs),
(833.449,821,o),
(749.039,819,o),
(686,819,cs),
(633.771,819,o),
(543.591,821,o),
(445,821,cs),
(425,821,o),
(404,818.667,o),
(404,804,cs),
(404,789.333,o),
(421.333,789,o),
(444,789,cs),
(458.667,789,o),
(478.333,789.667,o),
(493,783,c),
(454.391,707.712,o),
(392.375,580.327,o),
(317,428.5,cs),
(242.387,278.208,o),
(175.383,148.118,o),
(131,69,cs),
(116.333,45,o),
(103.333,33.667,o),
(74,31,cs),
(75.299,31,o),
(21.635,25,o),
(-18,25,cs),
(-32.667,25,o),
(-40,21.333,o),
(-40,14,cs),
(-40,4.667,o),
(-33.333,0,o),
(-20,0,cs)
);
},
{
closed = 1;
nodes = (
(384.667,272,o),
(364.667,272.333,o),
(346,273,cs),
(327.333,273.667,o),
(308,274,o),
(288,274,c),
(314.319,334.735,o),
(362.256,431.447,o),
(409,529,cs),
(458.358,632.009,o),
(499.772,715.716,o),
(517,754,c),
(517,750,ls),
(517,632.98,o),
(523,567.873,o),
(523,425,cs),
(523,391,o),
(523,362,o),
(523,338,cs),
(523,314,o),
(522.667,292.333,o),
(522,273,c),
(502.667,272.333,o),
(483.333,272,o),
(464,272,cs),
(444.667,272,o),
(425.333,272,o),
(406,272,cs)
);
},
{
closed = 1;
nodes = (
(556.198,876,o),
(644,928.619,o),
(644,950,cs),
(644,968.667,o),
(635.667,972,o),
(625,972,cs),
(605.338,972,o),
(530,910.981,o),
(530,887,cs),
(530,879.667,o),
(532.667,876,o),
(538,876,cs)
);
}
);
userData = {
assembly = "PUSHB[ ]	/* 7 values pushed */
194 88 2 12 10 1 66
MPPEM[ ]	/* MeasurePixelPerEm */
PUSHB[ ]	/* 1 value pushed */
20
LT[ ]	/* LessThan */
IF[ ]	/* If */
NPUSHB[ ]	/* 91 values pushed */
0 1 0 1 106 0 0 11 0 106 0 12 10 15 10 12 15 104 20 1 2 17 16 17 2 16 104 0 15 0 16 19 15 16 91 21 1 19 0 5 18 19 5 89 13 1 10 10 11 83 0 11 11 12 67 0 17 17 14 83 0 14 14 15 67 0 18 18 3 83 7 1 3 3 13 67 9 8 6 3 4 4 3 83 7 1 3 3 13 3 68
ELSE[ ]	/* Else */
MPPEM[ ]	/* MeasurePixelPerEm */
PUSHB[ ]	/* 1 value pushed */
45
LT[ ]	/* LessThan */
IF[ ]	/* If */
NPUSHB[ ]	/* 89 values pushed */
0 1 0 1 106 0 0 11 0 106 0 12 10 15 10 12 15 104 20 1 2 17 16 17 2 16 104 0 14 0 17 2 14 17 91 0 15 0 16 19 15 16 91 21 1 19 0 5 18 19 5 89 13 1 10 10 11 83 0 11 11 12 67 0 18 18 3 83 7 1 3 3 13 67 9 8 6 3 4 4 3 83 7 1 3 3 13 3 68
ELSE[ ]	/* Else */
NPUSHB[ ]	/* 89 values pushed */
0 1 0 1 106 0 0 11 0 106 0 12 10 15 10 12 15 104 20 1 2 17 16 17 2 16 104 0 14 0 17 2 14 17 91 0 15 0 16 19 15 16 91 21 1 19 0 5 18 19 5 89 13 1 10 10 11 83 0 11 11 14 67 0 18 18 3 83 7 1 3 3 13 67 9 8 6 3 4 4 3 83 7 1 3 3 13 3 68
EIF[ ]	/* EndIf */
EIF[ ]	/* EndIf */
NPUSHB[ ]	/* 48 values pushed */
185 182 16 15 182 203 185 201 170 168 167 160 154 152 142 140 132 123 122 120 115 113 108 96 92 89 78 77 75 72 70 62 58 55 47 46 39 37 33 25 15 181 16 181 37 36 22 17
CALL[ ]	/* CallFunction */";
};
width = 1023;
}
);
note = AEacute;
unicode = 508;
},
{
glyphname = B;
kernLeft = B;
kernRight = B;
lastChange = "2024-06-13 14:31:09 +0000";
layers = (
{
layerId = m01;
shapes = (
{
closed = 1;
nodes = (
(55.667,76,o),
(46,57.667,o),
(46,35,cs),
(46,12.333,o),
(59.333,0,o),
(94,0,cs),
(308,0,ls),
(500,0,o),
(676,57.333,o),
(676,220,cs),
(676,325.333,o),
(602.667,399.667,o),
(488,421,c),
(578.667,445,o),
(634,518.667,o),
(634,612,cs),
(634,752.377,o),
(503.506,821,o),
(367,821,cs),
(365.706,821,o),
(229.323,818,o),
(79,818,cs),
(57.667,818,o),
(40,801.333,o),
(40,780,cs),
(40,754.667,o),
(49.333,738,o),
(80,738,cs),
(118.667,738,o),
(127.333,731.667,o),
(130,701,cs),
(133.681,608.979,o),
(138,453.069,o),
(138,313,cs),
(138,287.667,o),
(137.833,256.5,o),
(137.5,219.5,cs),
(137.167,182.5,o),
(137,142.667,o),
(137,100,cs),
(137,80.092,o),
(105.021,76,o),
(81,76,cs)
);
},
{
closed = 1;
nodes = (
(443.058,371,o),
(581,354.35,o),
(581,222,cs),
(581,167.333,o),
(550.833,132.5,o),
(491.5,110.5,cs),
(432.167,88.5,o),
(345,80,o),
(229,80,c),
(229,368,l),
(242.333,368.667,o),
(254,369.333,o),
(264,370,cs),
(274,370.667,o),
(288.667,371,o),
(308,371,cs)
);
},
{
closed = 1;
nodes = (
(423.662,741,o),
(541,712.691,o),
(541,605,cs),
(541,486.714,o),
(433.198,453,o),
(299,453,cs),
(277,453,o),
(261.167,453.167,o),
(251.5,453.5,cs),
(241.833,453.833,o),
(234.333,454.667,o),
(229,456,c),
(229,737,l),
(234.333,737.667,o),
(243.333,738.5,o),
(256,739.5,cs),
(268.667,740.5,o),
(286.667,741,o),
(310,741,cs)
);
}
);
userData = {
assembly = "NPUSHB[ ]	/* 12 values pushed */
68 67 13 3 7 1 35 1 4 7 2 66
MPPEM[ ]	/* MeasurePixelPerEm */
PUSHB[ ]	/* 1 value pushed */
20
LT[ ]	/* LessThan */
IF[ ]	/* If */
NPUSHB[ ]	/* 36 values pushed */
10 6 2 1 1 2 83 0 2 2 12 67 9 1 4 4 7 83 0 7 7 15 67 5 8 2 0 0 3 83 0 3 3 13 3 68
ELSE[ ]	/* Else */
MPPEM[ ]	/* MeasurePixelPerEm */
PUSHB[ ]	/* 1 value pushed */
45
LT[ ]	/* LessThan */
IF[ ]	/* If */
NPUSHB[ ]	/* 34 values pushed */
0 7 9 1 4 0 7 4 91 10 6 2 1 1 2 83 0 2 2 12 67 5 8 2 0 0 3 83 0 3 3 13 3 68
ELSE[ ]	/* Else */
NPUSHB[ ]	/* 34 values pushed */
0 7 9 1 4 0 7 4 91 10 6 2 1 1 2 83 0 2 2 14 67 5 8 2 0 0 3 83 0 3 3 13 3 68
EIF[ ]	/* EndIf */
EIF[ ]	/* EndIf */
NPUSHB[ ]	/* 30 values pushed */
65 64 53 50 1 0 72 69 64 80 65 80 55 54 50 63 53 63 45 42 28 21 17 15 0 49 1 49 11 15
CALL[ ]	/* CallFunction */";
};
width = 705;
},
{
layerId = "62092E79-60F6-4D0B-8A38-B9DDC6B60A9E";
shapes = (
{
closed = 1;
nodes = (
(49.667,48,o),
(38,43.667,o),
(38,25,cs),
(38,6.333,o),
(55.667,0,o),
(89,0,cs),
(289,0,ls),
(481,0,o),
(657,57.333,o),
(657,220,cs),
(657,325.333,o),
(583.667,399.667,o),
(469,421,c),
(559.667,445,o),
(615,518.667,o),
(615,612,cs),
(615,752.377,o),
(484.506,821,o),
(348,821,cs),
(349.072,821,o),
(215.022,818,o),
(67,818,cs),
(52.333,818,o),
(41,808.667,o),
(41,794,cs),
(41,777.333,o),
(49.667,769,o),
(67,769,cs),
(111,769,o),
(130.667,769,o),
(132,733,cs),
(134.53,667.23,o),
(140,472.947,o),
(140,313,cs),
(140,285.667,o),
(139.833,250,o),
(139.5,206,cs),
(139.167,162,o),
(139,117.333,o),
(139,72,cs),
(139,49.215,o),
(93.309,48,o),
(67,48,cs)
);
},
{
closed = 1;
nodes = (
(432.34,380,o),
(583,361.642,o),
(583,222,cs),
(583,148.634,o),
(534.193,105.593,o),
(458,85,cs),
(385.696,65.458,o),
(296.749,62,o),
(210,62,c),
(210,377,l),
(231.8,377,o),
(259.363,380,o),
(289,380,cs)
);
},
{
closed = 1;
nodes = (
(415.165,757,o),
(543,726.988,o),
(543,605,cs),
(543,450.678,o),
(367.857,444,o),
(280,444,cs),
(258,444,o),
(240.833,444.167,o),
(228.5,444.5,cs),
(216.167,444.833,o),
(210,445.667,o),
(210,447,cs),
(210,753,l),
(216.667,753.667,o),
(224.333,754.333,o),
(233,755,cs),
(247.667,756.333,o),
(268.333,757,o),
(291,757,cs)
);
}
);
userData = {
assembly = "NPUSHB[ ]	/* 10 values pushed */
72 1 8 7 34 1 4 8 2 66
MPPEM[ ]	/* MeasurePixelPerEm */
PUSHB[ ]	/* 1 value pushed */
20
LT[ ]	/* LessThan */
IF[ ]	/* If */
NPUSHB[ ]	/* 49 values pushed */
0 1 2 7 7 1 96 9 1 0 6 3 6 0 96 11 1 7 7 2 84 0 2 2 12 67 5 10 2 4 4 8 83 0 8 8 15 67 0 6 6 3 83 0 3 3 13 3 68
ELSE[ ]	/* Else */
MPPEM[ ]	/* MeasurePixelPerEm */
PUSHB[ ]	/* 1 value pushed */
45
LT[ ]	/* LessThan */
IF[ ]	/* If */
NPUSHB[ ]	/* 47 values pushed */
0 1 2 7 7 1 96 9 1 0 6 3 6 0 96 0 8 5 10 2 4 6 8 4 91 11 1 7 7 2 84 0 2 2 12 67 0 6 6 3 83 0 3 3 13 3 68
ELSE[ ]	/* Else */
NPUSHB[ ]	/* 47 values pushed */
0 1 2 7 7 1 96 9 1 0 6 3 6 0 96 0 8 5 10 2 4 6 8 4 91 11 1 7 7 2 84 0 2 2 14 67 0 6 6 3 83 0 3 3 13 3 68
EIF[ ]	/* EndIf */
EIF[ ]	/* EndIf */
NPUSHB[ ]	/* 32 values pushed */
69 67 52 49 2 0 77 74 67 85 69 85 57 55 54 53 49 66 52 66 44 41 27 20 17 15 0 48 2 48 12 15
CALL[ ]	/* CallFunction */";
};
width = 689;
},
{
layerId = "E59D8378-1062-4241-9A8F-EEB295F00E05";
shapes = (
{
closed = 1;
nodes = (
(262,0,ls),
(454,0,o),
(630,57.333,o),
(630,220,cs),
(630,325.333,o),
(556.667,399.667,o),
(442,421,c),
(532.667,445,o),
(588,518.667,o),
(588,612,cs),
(588,752.377,o),
(457.506,821,o),
(321,821,cs),
(322.066,821,o),
(191.35,818,o),
(50,818,cs),
(35.333,818,o),
(24,814.667,o),
(24,804,cs),
(24,796,o),
(31.333,789,o),
(50,789,cs),
(107.333,789,o),
(133.667,787.667,o),
(135,753,cs),
(137.739,679.039,o),
(143,484.04,o),
(143,313,cs),
(143,283,o),
(142.833,244.333,o),
(142.5,197,cs),
(142.167,149.667,o),
(142,101.333,o),
(142,52,cs),
(142,28.761,o),
(85.341,28,o),
(50,28,cs),
(32.667,28,o),
(21,22.667,o),
(21,12,cs),
(21,6,o),
(25.667,2.5,o),
(35,1.5,cs),
(44.333,0.5,o),
(56.667,0,o),
(72,0,cs)
);
},
{
closed = 1;
nodes = (
(183,392,l),
(204.8,392,o),
(232.363,395,o),
(262,395,cs),
(420.577,395,o),
(586,374.792,o),
(586,222,cs),
(586,134.396,o),
(532.065,84.833,o),
(451,59.5,cs),
(371.727,34.727,o),
(277.564,32,o),
(183,32,c)
);
},
{
closed = 1;
nodes = (
(231,429,o),
(213.833,429.167,o),
(201.5,429.5,cs),
(189.167,429.833,o),
(183,430.667,o),
(183,432,cs),
(183,783,l),
(189.667,783.667,o),
(197.333,784.333,o),
(206,785,cs),
(220.667,786.333,o),
(241.333,787,o),
(264,787,cs),
(403.167,787,o),
(546,750.67,o),
(546,605,cs),
(546,518.514,o),
(494.451,473.586,o),
(435.5,453,cs),
(372.255,430.914,o),
(301.049,429,o),
(253,429,cs)
);
}
);
userData = {
assembly = "NPUSHB[ ]	/* 10 values pushed */
73 1 8 1 35 1 4 8 2 66
MPPEM[ ]	/* MeasurePixelPerEm */
PUSHB[ ]	/* 1 value pushed */
20
LT[ ]	/* LessThan */
IF[ ]	/* If */
NPUSHB[ ]	/* 37 values pushed */
11 7 2 1 1 2 83 0 2 2 12 67 5 10 2 4 4 8 83 0 8 8 15 67 6 9 2 0 0 3 83 0 3 3 13 3 68
ELSE[ ]	/* Else */
MPPEM[ ]	/* MeasurePixelPerEm */
PUSHB[ ]	/* 1 value pushed */
45
LT[ ]	/* LessThan */
IF[ ]	/* If */
NPUSHB[ ]	/* 35 values pushed */
0 8 5 10 2 4 0 8 4 91 11 7 2 1 1 2 83 0 2 2 12 67 6 9 2 0 0 3 83 0 3 3 13 3 68
ELSE[ ]	/* Else */
NPUSHB[ ]	/* 41 values pushed */
9 1 0 6 3 6 0 96 0 8 5 10 2 4 6 8 4 91 11 7 2 1 1 2 83 0 2 2 14 67 0 6 6 3 83 0 3 3 13 3 68
EIF[ ]	/* EndIf */
EIF[ ]	/* EndIf */
NPUSHB[ ]	/* 32 values pushed */
70 68 53 50 2 0 79 75 68 88 70 88 58 56 55 54 50 67 53 67 45 42 28 21 17 15 0 49 2 49 12 15
CALL[ ]	/* CallFunction */";
};
width = 666;
}
);
note = B;
unicode = 66;
},
{
glyphname = C;
kernLeft = C;
kernRight = C;
lastChange = "2024-06-13 14:31:09 +0000";
layers = (
{
layerId = m01;
shapes = (
{
closed = 1;
nodes = (
(628,242.667,o),
(616,253,o),
(592,253,cs),
(566.667,253,o),
(558,244.333,o),
(546,207,cs),
(511.83,104.49,o),
(453.139,66,o),
(337,66,cs),
(267.667,66,o),
(215.5,104.667,o),
(181.5,166,cs),
(147.5,227.333,o),
(130,312,o),
(130,404,cs),
(130,584.788,o),
(215.962,759,o),
(343,759,cs),
(472.134,759,o),
(519.355,637.72,o),
(522,524,cs),
(523.333,473.333,o),
(538,465,o),
(570,465,cs),
(603.333,465,o),
(613,481,o),
(613,513,cs),
(613,534.333,o),
(612.667,554.5,o),
(612,573.5,cs),
(611.333,592.5,o),
(611,612.667,o),
(611,634,cs),
(611,658,o),
(611.667,683.667,o),
(613,711,cs),
(614.333,738.333,o),
(615,763.667,o),
(615,787,cs),
(615,802.882,o),
(610.309,829,o),
(570,829,cs),
(538,829,o),
(532,811.667,o),
(532,793,cs),
(532,791.667,o),
(532.167,785.667,o),
(532.5,775,cs),
(532.833,764.333,o),
(534,741.667,o),
(536,707,c),
(513.207,766.831,o),
(450.112,838,o),
(342,838,cs),
(174.23,838,o),
(34,648.519,o),
(34,405,cs),
(34,103.938,o),
(185.838,-14,o),
(329,-14,cs),
(437,-14,o),
(512.167,23.833,o),
(559.5,72.5,cs),
(606.833,121.167,o),
(628,179.333,o),
(628,222,cs)
);
}
);
userData = {
assembly = "PUSHB[ ]	/* 6 values pushed */
20 1 3 4 1 66
MPPEM[ ]	/* MeasurePixelPerEm */
PUSHB[ ]	/* 1 value pushed */
27
LT[ ]	/* LessThan */
IF[ ]	/* If */
NPUSHB[ ]	/* 41 values pushed */
0 6 3 5 3 6 5 104 0 4 4 1 83 2 1 1 1 20 67 0 3 3 1 83 2 1 1 1 20 67 0 5 5 0 83 0 0 0 21 0 68
ELSE[ ]	/* Else */
MPPEM[ ]	/* MeasurePixelPerEm */
PUSHB[ ]	/* 1 value pushed */
45
LT[ ]	/* LessThan */
IF[ ]	/* If */
NPUSHB[ ]	/* 39 values pushed */
0 6 3 5 3 6 5 104 0 4 4 1 83 0 1 1 20 67 0 3 3 2 83 0 2 2 12 67 0 5 5 0 83 0 0 0 21 0 68
ELSE[ ]	/* Else */
NPUSHB[ ]	/* 35 values pushed */
0 6 3 5 3 6 5 104 0 1 0 4 3 1 4 91 0 2 0 3 6 2 3 91 0 5 5 0 83 0 0 0 21 0 68
EIF[ ]	/* EndIf */
EIF[ ]	/* EndIf */
NPUSHB[ ]	/* 9 values pushed */
38 40 38 44 41 40 36 7 22
CALL[ ]	/* CallFunction */";
};
width = 661;
},
{
layerId = "62092E79-60F6-4D0B-8A38-B9DDC6B60A9E";
shapes = (
{
closed = 1;
nodes = (
(610,239,o),
(600.333,249,o),
(581,249,cs),
(557,249,o),
(554.333,229.667,o),
(549,203,cs),
(532.918,114.549,o),
(454.789,48,o),
(340,48,cs),
(188.119,48,o),
(112,205.847,o),
(112,404,cs),
(112,599.762,o),
(208.445,777,o),
(346,777,cs),
(476.991,777,o),
(525,658.755,o),
(525,527,cs),
(525,477.667,o),
(537,468,o),
(561,468,cs),
(590.333,468,o),
(595,490,o),
(595,502,cs),
(595,523.333,o),
(594.667,545.333,o),
(594,568,cs),
(593.333,590.667,o),
(593,612.667,o),
(593,634,cs),
(593,658,o),
(593.667,684.167,o),
(595,712.5,cs),
(596.333,740.833,o),
(597,766.667,o),
(597,790,cs),
(597,801.348,o),
(592.534,823,o),
(561,823,cs),
(537,823,o),
(528,804,o),
(528,788,c),
(528,788,o),
(529.838,751.014,o),
(533,702,c),
(510.42,761.273,o),
(453.72,838,o),
(345,838,cs),
(177.23,838,o),
(37,648.519,o),
(37,405,cs),
(37,103.938,o),
(188.838,-14,o),
(332,-14,cs),
(432,-14,o),
(502,23,o),
(546,71,cs),
(590,119,o),
(610,176.333,o),
(610,219,cs)
);
}
);
userData = {
assembly = "NPUSHB[ ]	/* 10 values pushed */
25 1 4 2 20 1 3 4 2 66
MPPEM[ ]	/* MeasurePixelPerEm */
PUSHB[ ]	/* 1 value pushed */
45
LT[ ]	/* LessThan */
IF[ ]	/* If */
NPUSHB[ ]	/* 39 values pushed */
0 6 3 5 3 6 5 104 0 4 4 1 83 0 1 1 20 67 0 3 3 2 83 0 2 2 12 67 0 5 5 0 83 0 0 0 21 0 68
ELSE[ ]	/* Else */
NPUSHB[ ]	/* 37 values pushed */
0 6 3 5 3 6 5 104 0 1 0 4 3 1 4 91 0 3 3 2 83 0 2 2 14 67 0 5 5 0 83 0 0 0 21 0 68
EIF[ ]	/* EndIf */
NPUSHB[ ]	/* 9 values pushed */
38 40 38 44 43 40 36 7 22
CALL[ ]	/* CallFunction */";
};
width = 646;
},
{
layerId = "E59D8378-1062-4241-9A8F-EEB295F00E05";
shapes = (
{
closed = 1;
nodes = (
(511.384,-14,o),
(584,126.287,o),
(584,214,cs),
(584,233.333,o),
(579.333,243,o),
(570,243,cs),
(556.445,243,o),
(555.648,212.886,o),
(553,197,cs),
(529.47,95.035,o),
(463.662,18,o),
(344,18,cs),
(170.674,18,o),
(86,191.986,o),
(86,404,cs),
(86,615.248,o),
(195.156,807,o),
(350,807,cs),
(481.215,807,o),
(529,677.106,o),
(529,532,cs),
(529,502.667,o),
(531.333,473,o),
(550,473,cs),
(567.333,473,o),
(569,488.333,o),
(569,507,cs),
(569,528.333,o),
(568.667,549.5,o),
(568,570.5,cs),
(567.333,591.5,o),
(567,612.667,o),
(567,634,cs),
(567,658,o),
(567.667,684.167,o),
(569,712.5,cs),
(570.333,740.833,o),
(571,766.667,o),
(571,790,cs),
(571,799.333,o),
(564.333,813,o),
(551,813,cs),
(538.333,813,o),
(532,804.667,o),
(532,788,c),
(532,788,o),
(533.838,751.014,o),
(537,702,c),
(514.42,761.273,o),
(457.72,838,o),
(349,838,cs),
(181.23,838,o),
(41,648.519,o),
(41,405,cs),
(41,103.938,o),
(192.838,-14,o),
(336,-14,cs)
);
}
);
userData = {
assembly = "PUSHB[ ]	/* 7 values pushed */
25 20 2 3 4 1 66
MPPEM[ ]	/* MeasurePixelPerEm */
PUSHB[ ]	/* 1 value pushed */
45
LT[ ]	/* LessThan */
IF[ ]	/* If */
NPUSHB[ ]	/* 39 values pushed */
0 6 3 5 3 6 5 104 0 4 4 1 83 0 1 1 20 67 0 3 3 2 83 0 2 2 14 67 0 5 5 0 83 0 0 0 21 0 68
ELSE[ ]	/* Else */
NPUSHB[ ]	/* 37 values pushed */
0 6 3 5 3 6 5 104 0 1 0 4 3 1 4 91 0 3 3 2 83 0 2 2 14 67 0 5 5 0 83 0 0 0 21 0 68
EIF[ ]	/* EndIf */
NPUSHB[ ]	/* 9 values pushed */
40 40 38 42 42 40 36 7 22
CALL[ ]	/* CallFunction */";
};
width = 625;
}
);
note = C;
unicode = 67;
},
{
glyphname = Cacute;
kernLeft = C;
kernRight = C;
lastChange = "2024-06-13 14:31:09 +0000";
layers = (
{
layerId = m01;
shapes = (
{
closed = 1;
nodes = (
(436,953.667,o),
(421.667,972,o),
(395,972,cs),
(357.314,972,o),
(281,898.458,o),
(281,871,cs),
(281,855,o),
(295.667,840,o),
(317,840,cs),
(351.448,840,o),
(436,897.455,o),
(436,935,cs)
);
},
{
closed = 1;
nodes = (
(628,242.667,o),
(616,253,o),
(592,253,cs),
(566.667,253,o),
(558,244.333,o),
(546,207,cs),
(511.83,104.49,o),
(453.139,66,o),
(337,66,cs),
(267.667,66,o),
(215.5,104.667,o),
(181.5,166,cs),
(147.5,227.333,o),
(130,312,o),
(130,404,cs),
(130,584.788,o),
(215.962,759,o),
(343,759,cs),
(472.134,759,o),
(519.355,637.72,o),
(522,524,cs),
(523.333,473.333,o),
(538,465,o),
(570,465,cs),
(603.333,465,o),
(613,481,o),
(613,513,cs),
(613,534.333,o),
(612.667,554.5,o),
(612,573.5,cs),
(611.333,592.5,o),
(611,612.667,o),
(611,634,cs),
(611,658,o),
(611.667,683.667,o),
(613,711,cs),
(614.333,738.333,o),
(615,763.667,o),
(615,787,cs),
(615,802.882,o),
(610.309,829,o),
(570,829,cs),
(538,829,o),
(532,811.667,o),
(532,793,cs),
(532,791.667,o),
(532.167,785.667,o),
(532.5,775,cs),
(532.833,764.333,o),
(534,741.667,o),
(536,707,c),
(513.207,766.831,o),
(450.112,838,o),
(342,838,cs),
(174.23,838,o),
(34,648.519,o),
(34,405,cs),
(34,103.938,o),
(185.838,-14,o),
(329,-14,cs),
(437,-14,o),
(512.167,23.833,o),
(559.5,72.5,cs),
(606.833,121.167,o),
(628,179.333,o),
(628,222,cs)
);
}
);
userData = {
assembly = "PUSHB[ ]	/* 6 values pushed */
36 1 5 6 1 66
MPPEM[ ]	/* MeasurePixelPerEm */
PUSHB[ ]	/* 1 value pushed */
9
LT[ ]	/* LessThan */
IF[ ]	/* If */
NPUSHB[ ]	/* 52 values pushed */
0 1 0 3 1 94 0 0 3 0 106 0 8 5 7 5 8 7 104 0 6 6 3 83 4 1 3 3 20 67 0 5 5 3 83 4 1 3 3 20 67 0 7 7 2 83 0 2 2 21 2 68
ELSE[ ]	/* Else */
MPPEM[ ]	/* MeasurePixelPerEm */
PUSHB[ ]	/* 1 value pushed */
27
LT[ ]	/* LessThan */
IF[ ]	/* If */
NPUSHB[ ]	/* 51 values pushed */
0 1 0 1 106 0 0 3 0 106 0 8 5 7 5 8 7 104 0 6 6 3 83 4 1 3 3 20 67 0 5 5 3 83 4 1 3 3 20 67 0 7 7 2 83 0 2 2 21 2 68
ELSE[ ]	/* Else */
MPPEM[ ]	/* MeasurePixelPerEm */
PUSHB[ ]	/* 1 value pushed */
45
LT[ ]	/* LessThan */
IF[ ]	/* If */
NPUSHB[ ]	/* 49 values pushed */
0 1 0 1 106 0 0 3 0 106 0 8 5 7 5 8 7 104 0 6 6 3 83 0 3 3 20 67 0 5 5 4 83 0 4 4 12 67 0 7 7 2 83 0 2 2 21 2 68
ELSE[ ]	/* Else */
NPUSHB[ ]	/* 45 values pushed */
0 1 0 1 106 0 0 3 0 106 0 8 5 7 5 8 7 104 0 3 0 6 5 3 6 92 0 4 0 5 8 4 5 91 0 7 7 2 83 0 2 2 21 2 68
EIF[ ]	/* EndIf */
EIF[ ]	/* EndIf */
EIF[ ]	/* EndIf */
NPUSHB[ ]	/* 11 values pushed */
38 40 38 44 41 40 38 38 36 9 24
CALL[ ]	/* CallFunction */";
};
width = 661;
},
{
layerId = "62092E79-60F6-4D0B-8A38-B9DDC6B60A9E";
shapes = (
{
closed = 1;
nodes = (
(441,959.667,o),
(429,972,o),
(409,972,cs),
(379.753,972,o),
(303,903.873,o),
(303,877,cs),
(303,863.667,o),
(312.333,854,o),
(327,854,cs),
(353.12,854,o),
(441,908.21,o),
(441,941,cs)
);
},
{
closed = 1;
nodes = (
(610,239,o),
(600.333,249,o),
(581,249,cs),
(557,249,o),
(554.333,229.667,o),
(549,203,cs),
(532.918,114.549,o),
(454.789,48,o),
(340,48,cs),
(188.119,48,o),
(112,205.847,o),
(112,404,cs),
(112,599.762,o),
(208.445,777,o),
(346,777,cs),
(476.991,777,o),
(525,658.755,o),
(525,527,cs),
(525,477.667,o),
(537,468,o),
(561,468,cs),
(590.333,468,o),
(595,490,o),
(595,502,cs),
(595,523.333,o),
(594.667,545.333,o),
(594,568,cs),
(593.333,590.667,o),
(593,612.667,o),
(593,634,cs),
(593,658,o),
(593.667,684.167,o),
(595,712.5,cs),
(596.333,740.833,o),
(597,766.667,o),
(597,790,cs),
(597,801.348,o),
(592.534,823,o),
(561,823,cs),
(537,823,o),
(528,804,o),
(528,788,c),
(528,788,o),
(529.838,751.014,o),
(533,702,c),
(510.42,761.273,o),
(453.72,838,o),
(345,838,cs),
(177.23,838,o),
(37,648.519,o),
(37,405,cs),
(37,103.938,o),
(188.838,-14,o),
(332,-14,cs),
(432,-14,o),
(502,23,o),
(546,71,cs),
(590,119,o),
(610,176.333,o),
(610,219,cs)
);
}
);
userData = {
assembly = "NPUSHB[ ]	/* 10 values pushed */
41 1 6 4 36 1 5 6 2 66
MPPEM[ ]	/* MeasurePixelPerEm */
PUSHB[ ]	/* 1 value pushed */
45
LT[ ]	/* LessThan */
IF[ ]	/* If */
NPUSHB[ ]	/* 49 values pushed */
0 1 0 1 106 0 0 3 0 106 0 8 5 7 5 8 7 104 0 6 6 3 83 0 3 3 20 67 0 5 5 4 83 0 4 4 12 67 0 7 7 2 84 0 2 2 21 2 68
ELSE[ ]	/* Else */
NPUSHB[ ]	/* 47 values pushed */
0 1 0 1 106 0 0 3 0 106 0 8 5 7 5 8 7 104 0 3 0 6 5 3 6 91 0 5 5 4 83 0 4 4 14 67 0 7 7 2 84 0 2 2 21 2 68
EIF[ ]	/* EndIf */
NPUSHB[ ]	/* 11 values pushed */
38 40 38 44 43 40 38 38 36 9 24
CALL[ ]	/* CallFunction */";
};
width = 646;
},
{
layerId = "E59D8378-1062-4241-9A8F-EEB295F00E05";
shapes = (
{
closed = 1;
nodes = (
(511.384,-14,o),
(584,126.287,o),
(584,214,cs),
(584,233.333,o),
(579.333,243,o),
(570,243,cs),
(556.445,243,o),
(555.648,212.886,o),
(553,197,cs),
(529.47,95.035,o),
(463.662,18,o),
(344,18,cs),
(170.674,18,o),
(86,191.986,o),
(86,404,cs),
(86,615.248,o),
(195.156,807,o),
(350,807,cs),
(481.215,807,o),
(529,677.106,o),
(529,532,cs),
(529,502.667,o),
(531.333,473,o),
(550,473,cs),
(567.333,473,o),
(569,488.333,o),
(569,507,cs),
(569,528.333,o),
(568.667,549.5,o),
(568,570.5,cs),
(567.333,591.5,o),
(567,612.667,o),
(567,634,cs),
(567,658,o),
(567.667,684.167,o),
(569,712.5,cs),
(570.333,740.833,o),
(571,766.667,o),
(571,790,cs),
(571,799.333,o),
(564.333,813,o),
(551,813,cs),
(538.333,813,o),
(532,804.667,o),
(532,788,c),
(532,788,o),
(533.838,751.014,o),
(537,702,c),
(514.42,761.273,o),
(457.72,838,o),
(349,838,cs),
(181.23,838,o),
(41,648.519,o),
(41,405,cs),
(41,103.938,o),
(192.838,-14,o),
(336,-14,cs)
);
},
{
closed = 1;
nodes = (
(317.198,875,o),
(405,927.619,o),
(405,949,cs),
(405,967.667,o),
(396.667,971,o),
(386,971,cs),
(366.338,971,o),
(291,909.981,o),
(291,886,cs),
(291,878.667,o),
(293.667,875,o),
(299,875,cs)
);
}
);
userData = {
assembly = "PUSHB[ ]	/* 7 values pushed */
40 35 2 5 6 1 66
MPPEM[ ]	/* MeasurePixelPerEm */
PUSHB[ ]	/* 1 value pushed */
9
LT[ ]	/* LessThan */
IF[ ]	/* If */
NPUSHB[ ]	/* 50 values pushed */
0 1 0 3 1 94 0 0 3 0 106 0 8 5 7 5 8 7 104 0 6 6 3 83 0 3 3 20 67 0 5 5 4 83 0 4 4 14 67 0 7 7 2 83 0 2 2 21 2 68
ELSE[ ]	/* Else */
MPPEM[ ]	/* MeasurePixelPerEm */
PUSHB[ ]	/* 1 value pushed */
45
LT[ ]	/* LessThan */
IF[ ]	/* If */
NPUSHB[ ]	/* 49 values pushed */
0 1 0 1 106 0 0 3 0 106 0 8 5 7 5 8 7 104 0 6 6 3 83 0 3 3 20 67 0 5 5 4 83 0 4 4 14 67 0 7 7 2 83 0 2 2 21 2 68
ELSE[ ]	/* Else */
NPUSHB[ ]	/* 47 values pushed */
0 1 0 1 106 0 0 3 0 106 0 8 5 7 5 8 7 104 0 3 0 6 5 3 6 92 0 5 5 4 83 0 4 4 14 67 0 7 7 2 83 0 2 2 21 2 68
EIF[ ]	/* EndIf */
EIF[ ]	/* EndIf */
NPUSHB[ ]	/* 11 values pushed */
40 40 38 42 42 40 38 37 36 9 24
CALL[ ]	/* CallFunction */";
};
width = 625;
}
);
note = Cacute;
unicode = 262;
},
{
glyphname = Ccaron;
kernLeft = C;
kernRight = C;
lastChange = "2024-06-13 14:31:09 +0000";
layers = (
{
layerId = m01;
shapes = (
{
closed = 1;
nodes = (
(628,242.667,o),
(616,253,o),
(592,253,cs),
(566.667,253,o),
(558,244.333,o),
(546,207,cs),
(511.83,104.49,o),
(453.139,66,o),
(337,66,cs),
(267.667,66,o),
(215.5,104.667,o),
(181.5,166,cs),
(147.5,227.333,o),
(130,312,o),
(130,404,cs),
(130,584.788,o),
(215.962,759,o),
(343,759,cs),
(472.134,759,o),
(519.355,637.72,o),
(522,524,cs),
(523.333,473.333,o),
(538,465,o),
(570,465,cs),
(603.333,465,o),
(613,481,o),
(613,513,cs),
(613,534.333,o),
(612.667,554.5,o),
(612,573.5,cs),
(611.333,592.5,o),
(611,612.667,o),
(611,634,cs),
(611,658,o),
(611.667,683.667,o),
(613,711,cs),
(614.333,738.333,o),
(615,763.667,o),
(615,787,cs),
(615,802.882,o),
(610.309,829,o),
(570,829,cs),
(538,829,o),
(532,811.667,o),
(532,793,cs),
(532,791.667,o),
(532.167,785.667,o),
(532.5,775,cs),
(532.833,764.333,o),
(534,741.667,o),
(536,707,c),
(516,761.287,o),
(459.083,826.546,o),
(365,837,c),
(404.501,855.434,o),
(478,917.129,o),
(478,951,cs),
(478,960.333,o),
(475.667,972,o),
(465,972,cs),
(459.41,972,o),
(403.555,959.889,o),
(345,922,c),
(309.53,948.011,o),
(243.857,972,o),
(226,972,cs),
(218,972,o),
(213,964.667,o),
(213,958,cs),
(213,916.259,o),
(289.681,855.159,o),
(326,837,c),
(246,831.667,o),
(172.167,782.333,o),
(119.5,705,cs),
(66.833,627.667,o),
(34,522.333,o),
(34,405,cs),
(34,103.938,o),
(185.838,-14,o),
(329,-14,cs),
(437,-14,o),
(512.167,23.833,o),
(559.5,72.5,cs),
(606.833,121.167,o),
(628,179.333,o),
(628,222,cs)
);
}
);
userData = {
assembly = "NPUSHB[ ]	/* 11 values pushed */
41 28 2 1 2 46 1 5 6 2 66
MPPEM[ ]	/* MeasurePixelPerEm */
PUSHB[ ]	/* 1 value pushed */
39
LT[ ]	/* LessThan */
IF[ ]	/* If */
NPUSHB[ ]	/* 47 values pushed */
3 1 2 1 2 106 0 8 5 7 5 8 7 104 0 6 6 1 83 4 1 1 1 20 67 0 5 5 1 83 4 1 1 1 20 67 0 7 7 0 83 0 0 0 21 0 68
ELSE[ ]	/* Else */
MPPEM[ ]	/* MeasurePixelPerEm */
PUSHB[ ]	/* 1 value pushed */
45
LT[ ]	/* LessThan */
IF[ ]	/* If */
NPUSHB[ ]	/* 45 values pushed */
3 1 2 1 2 106 0 8 5 7 5 8 7 104 0 6 6 1 83 0 1 1 20 67 0 5 5 4 83 0 4 4 12 67 0 7 7 0 83 0 0 0 21 0 68
ELSE[ ]	/* Else */
NPUSHB[ ]	/* 41 values pushed */
3 1 2 1 2 106 0 8 5 7 5 8 7 104 0 1 0 6 5 1 6 91 0 4 0 5 8 4 5 91 0 7 7 0 83 0 0 0 21 0 68
EIF[ ]	/* EndIf */
EIF[ ]	/* EndIf */
NPUSHB[ ]	/* 16 values pushed */
93 91 85 83 75 73 67 65 53 51 40 39 24 36 9 19
CALL[ ]	/* CallFunction */";
};
width = 661;
},
{
layerId = "62092E79-60F6-4D0B-8A38-B9DDC6B60A9E";
shapes = (
{
closed = 1;
nodes = (
(452.663,972,o),
(404.994,958.643,o),
(341,921,c),
(301.008,944.525,o),
(239.679,972,o),
(222,972,cs),
(214.667,972,o),
(211,967.667,o),
(211,959,cs),
(211,917.54,o),
(319.04,847,o),
(341,847,cs),
(366.107,847,o),
(472,919.046,o),
(472,955,cs),
(472,964.333,o),
(469,972,o),
(461,972,cs)
);
},
{
closed = 1;
nodes = (
(610,239,o),
(600.333,249,o),
(581,249,cs),
(557,249,o),
(554.333,229.667,o),
(549,203,cs),
(532.918,114.549,o),
(454.789,48,o),
(340,48,cs),
(188.119,48,o),
(112,205.847,o),
(112,404,cs),
(112,599.762,o),
(208.445,777,o),
(346,777,cs),
(476.991,777,o),
(525,658.755,o),
(525,527,cs),
(525,477.667,o),
(537,468,o),
(561,468,cs),
(590.333,468,o),
(595,490,o),
(595,502,cs),
(595,523.333,o),
(594.667,545.333,o),
(594,568,cs),
(593.333,590.667,o),
(593,612.667,o),
(593,634,cs),
(593,658,o),
(593.667,684.167,o),
(595,712.5,cs),
(596.333,740.833,o),
(597,766.667,o),
(597,790,cs),
(597,801.348,o),
(592.534,823,o),
(561,823,cs),
(537,823,o),
(528,804,o),
(528,788,c),
(528,788,o),
(529.838,751.014,o),
(533,702,c),
(510.42,761.273,o),
(453.72,838,o),
(345,838,cs),
(177.23,838,o),
(37,648.519,o),
(37,405,cs),
(37,103.938,o),
(188.838,-14,o),
(332,-14,cs),
(432,-14,o),
(502,23,o),
(546,71,cs),
(590,119,o),
(610,176.333,o),
(610,219,cs)
);
}
);
userData = {
assembly = "NPUSHB[ ]	/* 14 values pushed */
20 1 1 0 50 1 7 5 45 1 6 7 3 66
MPPEM[ ]	/* MeasurePixelPerEm */
PUSHB[ ]	/* 1 value pushed */
45
LT[ ]	/* LessThan */
IF[ ]	/* If */
NPUSHB[ ]	/* 51 values pushed */
2 10 2 0 1 0 106 0 1 4 1 106 0 9 6 8 6 9 8 104 0 7 7 4 83 0 4 4 20 67 0 6 6 5 83 0 5 5 12 67 0 8 8 3 83 0 3 3 21 3 68
ELSE[ ]	/* Else */
NPUSHB[ ]	/* 49 values pushed */
2 10 2 0 1 0 106 0 1 4 1 106 0 9 6 8 6 9 8 104 0 4 0 7 6 4 7 91 0 6 6 5 83 0 5 5 14 67 0 8 8 3 83 0 3 3 21 3 68
EIF[ ]	/* EndIf */
NPUSHB[ ]	/* 26 values pushed */
1 0 94 92 86 84 76 74 68 66 54 52 41 39 31 29 16 14 9 7 0 24 1 24 11 15
CALL[ ]	/* CallFunction */";
};
width = 646;
},
{
layerId = "E59D8378-1062-4241-9A8F-EEB295F00E05";
shapes = (
{
closed = 1;
nodes = (
(511.384,-14,o),
(584,126.287,o),
(584,214,cs),
(584,233.333,o),
(579.333,243,o),
(570,243,cs),
(556.445,243,o),
(555.648,212.886,o),
(553,197,cs),
(529.47,95.035,o),
(463.662,18,o),
(344,18,cs),
(170.674,18,o),
(86,191.986,o),
(86,404,cs),
(86,615.248,o),
(195.156,807,o),
(350,807,cs),
(481.215,807,o),
(529,677.106,o),
(529,532,cs),
(529,502.667,o),
(531.333,473,o),
(550,473,cs),
(567.333,473,o),
(569,488.333,o),
(569,507,cs),
(569,528.333,o),
(568.667,549.5,o),
(568,570.5,cs),
(567.333,591.5,o),
(567,612.667,o),
(567,634,cs),
(567,658,o),
(567.667,684.167,o),
(569,712.5,cs),
(570.333,740.833,o),
(571,766.667,o),
(571,790,cs),
(571,799.333,o),
(564.333,813,o),
(551,813,cs),
(538.333,813,o),
(532,804.667,o),
(532,788,c),
(532,788,o),
(533.838,751.014,o),
(537,702,c),
(514.42,761.273,o),
(457.72,838,o),
(349,838,cs),
(181.23,838,o),
(41,648.519,o),
(41,405,cs),
(41,103.938,o),
(192.838,-14,o),
(336,-14,cs)
);
},
{
closed = 1;
nodes = (
(367.706,876,o),
(473,935.626,o),
(473,961,cs),
(473,968.333,o),
(470.333,972,o),
(465,972,cs),
(458.254,972,o),
(409.504,954.149,o),
(345,920,c),
(296.14,940.94,o),
(237.185,972,o),
(226,972,cs),
(220.667,972,o),
(218,968.333,o),
(218,961,cs),
(218,937.359,o),
(321.08,876,o),
(345,876,cs)
);
}
);
userData = {
assembly = "NPUSHB[ ]	/* 11 values pushed */
19 1 1 0 49 44 2 6 7 2 66
MPPEM[ ]	/* MeasurePixelPerEm */
PUSHB[ ]	/* 1 value pushed */
45
LT[ ]	/* LessThan */
IF[ ]	/* If */
NPUSHB[ ]	/* 51 values pushed */
2 10 2 0 1 0 106 0 1 4 1 106 0 9 6 8 6 9 8 104 0 7 7 4 83 0 4 4 20 67 0 6 6 5 83 0 5 5 14 67 0 8 8 3 83 0 3 3 21 3 68
ELSE[ ]	/* Else */
NPUSHB[ ]	/* 49 values pushed */
2 10 2 0 1 0 106 0 1 4 1 106 0 9 6 8 6 9 8 104 0 4 0 7 6 4 7 91 0 6 6 5 83 0 5 5 14 67 0 8 8 3 83 0 3 3 21 3 68
EIF[ ]	/* EndIf */
NPUSHB[ ]	/* 26 values pushed */
1 0 92 90 82 80 72 70 64 62 52 50 40 38 30 28 15 13 8 6 0 23 1 23 11 15
CALL[ ]	/* CallFunction */";
};
width = 625;
}
);
note = Ccaron;
unicode = 268;
},
{
glyphname = Ccedilla;
kernLeft = C;
kernRight = C;
lastChange = "2024-06-13 14:31:17 +0000";
layers = (
{
layerId = m01;
shapes = (
{
closed = 1;
nodes = (
(628,242.667,o),
(616,253,o),
(592,253,cs),
(566.667,253,o),
(558,244.333,o),
(546,207,cs),
(511.83,104.49,o),
(453.139,66,o),
(337,66,cs),
(267.667,66,o),
(215.5,104.667,o),
(181.5,166,cs),
(147.5,227.333,o),
(130,312,o),
(130,404,cs),
(130,584.788,o),
(215.962,759,o),
(343,759,cs),
(472.134,759,o),
(519.355,637.72,o),
(522,524,cs),
(523.333,473.333,o),
(538,465,o),
(570,465,cs),
(603.333,465,o),
(613,481,o),
(613,513,cs),
(613,534.333,o),
(612.667,554.5,o),
(612,573.5,cs),
(611.333,592.5,o),
(611,612.667,o),
(611,634,cs),
(611,658,o),
(611.667,683.667,o),
(613,711,cs),
(614.333,738.333,o),
(615,763.667,o),
(615,787,cs),
(615,802.882,o),
(610.309,829,o),
(570,829,cs),
(538,829,o),
(532,811.667,o),
(532,793,cs),
(532,791.667,o),
(532.167,785.667,o),
(532.5,775,cs),
(532.833,764.333,o),
(534,741.667,o),
(536,707,c),
(513.207,766.831,o),
(450.112,838,o),
(342,838,cs),
(174.23,838,o),
(34,648.519,o),
(34,405,cs),
(34,128.952,o),
(160.78,7.511,o),
(293,-11,c),
(291.667,-19.667,o),
(290.333,-30.5,o),
(289,-43.5,cs),
(287.667,-56.5,o),
(285.667,-68.667,o),
(283,-80,cs),
(281.667,-85.333,o),
(280,-93,o),
(280,-97,cs),
(280,-111.667,o),
(287.333,-130,o),
(318,-130,cs),
(359.636,-130,o),
(373.572,-102,o),
(408,-102,cs),
(418.667,-102,o),
(431,-107.333,o),
(431,-118,cs),
(431,-126,o),
(428,-131.667,o),
(422,-135,cs),
(416,-138.333,o),
(404,-140,o),
(386,-140,cs),
(312.546,-140,o),
(311,-159.71,o),
(311,-168,cs),
(311,-176.667,o),
(317.167,-182.5,o),
(329.5,-185.5,cs),
(341.833,-188.5,o),
(362,-190,o),
(390,-190,cs),
(459.658,-190,o),
(519,-163.591,o),
(519,-112,cs),
(519,-73.333,o),
(486,-49,o),
(442,-49,cs),
(414,-49,o),
(394,-59.333,o),
(362,-78,c),
(374,-11,l),
(464.667,-1.667,o),
(528.833,37.5,o),
(569.5,83.5,cs),
(610.167,129.5,o),
(628,183.333,o),
(628,222,cs)
);
}
);
userData = {
assembly = "NPUSHB[ ]	/* 14 values pushed */
60 1 7 8 45 1 0 9 6 1 3 0 3 66
MPPEM[ ]	/* MeasurePixelPerEm */
PUSHB[ ]	/* 1 value pushed */
20
LT[ ]	/* LessThan */
IF[ ]	/* If */
NPUSHB[ ]	/* 64 values pushed */
0 10 7 9 7 10 9 104 0 0 9 3 9 0 3 104 0 3 4 9 3 4 102 0 9 0 4 2 9 4 91 0 8 8 5 83 6 1 5 5 20 67 0 7 7 5 83 6 1 5 5 20 67 0 2 2 1 83 0 1 1 17 1 68
ELSE[ ]	/* Else */
MPPEM[ ]	/* MeasurePixelPerEm */
PUSHB[ ]	/* 1 value pushed */
27
LT[ ]	/* LessThan */
IF[ ]	/* If */
NPUSHB[ ]	/* 61 values pushed */
0 10 7 9 7 10 9 104 0 0 9 3 9 0 3 104 0 3 4 9 3 4 102 0 9 0 4 2 9 4 91 0 2 0 1 2 1 87 0 8 8 5 83 6 1 5 5 20 67 0 7 7 5 83 6 1 5 5 20 7 68
ELSE[ ]	/* Else */
MPPEM[ ]	/* MeasurePixelPerEm */
PUSHB[ ]	/* 1 value pushed */
45
LT[ ]	/* LessThan */
IF[ ]	/* If */
NPUSHB[ ]	/* 59 values pushed */
0 10 7 9 7 10 9 104 0 0 9 3 9 0 3 104 0 3 4 9 3 4 102 0 9 0 4 2 9 4 91 0 2 0 1 2 1 87 0 8 8 5 83 0 5 5 20 67 0 7 7 6 83 0 6 6 12 7 68
ELSE[ ]	/* Else */
NPUSHB[ ]	/* 63 values pushed */
0 10 7 9 7 10 9 104 0 0 9 3 9 0 3 104 0 3 4 9 3 4 102 0 5 0 8 7 5 8 91 0 6 0 7 10 6 7 91 0 9 0 4 2 9 4 91 0 2 1 1 2 79 0 2 2 1 83 0 1 2 1 71
EIF[ ]	/* EndIf */
EIF[ ]	/* EndIf */
EIF[ ]	/* EndIf */
NPUSHB[ ]	/* 19 values pushed */
107 105 99 97 89 87 81 79 67 65 56 54 35 36 38 38 40 11 20
CALL[ ]	/* CallFunction */";
};
width = 661;
},
{
layerId = "62092E79-60F6-4D0B-8A38-B9DDC6B60A9E";
shapes = (
{
closed = 1;
nodes = (
(610,239,o),
(600.333,249,o),
(581,249,cs),
(557,249,o),
(554.333,229.667,o),
(549,203,cs),
(532.918,114.549,o),
(454.789,48,o),
(340,48,cs),
(188.119,48,o),
(112,205.847,o),
(112,404,cs),
(112,599.762,o),
(208.445,777,o),
(346,777,cs),
(476.991,777,o),
(525,658.755,o),
(525,527,cs),
(525,477.667,o),
(537,468,o),
(561,468,cs),
(590.333,468,o),
(595,490,o),
(595,502,cs),
(595,523.333,o),
(594.667,545.333,o),
(594,568,cs),
(593.333,590.667,o),
(593,612.667,o),
(593,634,cs),
(593,658,o),
(593.667,684.167,o),
(595,712.5,cs),
(596.333,740.833,o),
(597,766.667,o),
(597,790,cs),
(597,801.348,o),
(592.534,823,o),
(561,823,cs),
(537,823,o),
(528,804,o),
(528,788,c),
(528,788,o),
(529.838,751.014,o),
(533,702,c),
(510.42,761.273,o),
(453.72,838,o),
(345,838,cs),
(177.23,838,o),
(37,648.519,o),
(37,405,cs),
(37,103.938,o),
(188.838,-14,o),
(332,-14,cs),
(432,-14,o),
(502,23,o),
(546,71,cs),
(590,119,o),
(610,176.333,o),
(610,219,cs)
);
},
{
closed = 1;
nodes = (
(320,1,o),
(318,-10,o),
(317,-26,cs),
(315,-42,o),
(312,-57,o),
(309,-71,cs),
(308,-76,o),
(306,-84,o),
(306,-88,cs),
(306,-99,o),
(312,-113,o),
(335,-113,cs),
(366,-113,o),
(390,-85,o),
(426,-85,cs),
(435,-85,o),
(457,-90,o),
(457,-109,cs),
(457,-136,o),
(434,-139,o),
(391,-139,cs),
(364,-139,o),
(348,-141,o),
(341,-146,cs),
(334,-151,o),
(330,-156,o),
(330,-161,cs),
(330,-170,o),
(336,-175,o),
(347,-177,cs),
(358,-180,o),
(374,-181,o),
(395,-181,cs),
(465,-181,o),
(524,-155,o),
(524,-103,cs),
(524,-64,o),
(491,-40,o),
(447,-40,cs),
(419,-40,o),
(399,-50,o),
(367,-69,c),
(380,3,l),
(361,7,l),
(321,7,l),
(321,7,l)
);
}
);
userData = {
assembly = "NPUSHB[ ]	/* 18 values pushed */
26 1 4 2 21 1 3 4 72 1 0 12 73 1 10 7 4 66
MPPEM[ ]	/* MeasurePixelPerEm */
PUSHB[ ]	/* 1 value pushed */
11
LT[ ]	/* LessThan */
IF[ ]	/* If */
NPUSHB[ ]	/* 72 values pushed */
0 6 3 5 3 6 5 104 13 1 12 5 0 5 12 96 0 11 10 9 0 11 96 0 7 0 10 11 7 10 91 0 4 4 1 83 0 1 1 20 67 0 3 3 2 83 0 2 2 12 67 0 5 5 0 83 0 0 0 21 67 0 9 9 8 83 0 8 8 17 8 68
ELSE[ ]	/* Else */
MPPEM[ ]	/* MeasurePixelPerEm */
PUSHB[ ]	/* 1 value pushed */
24
LT[ ]	/* LessThan */
IF[ ]	/* If */
NPUSHB[ ]	/* 73 values pushed */
0 6 3 5 3 6 5 104 13 1 12 5 0 5 12 96 0 11 10 9 10 11 9 104 0 7 0 10 11 7 10 91 0 4 4 1 83 0 1 1 20 67 0 3 3 2 83 0 2 2 12 67 0 5 5 0 83 0 0 0 21 67 0 9 9 8 83 0 8 8 17 8 68
ELSE[ ]	/* Else */
MPPEM[ ]	/* MeasurePixelPerEm */
PUSHB[ ]	/* 1 value pushed */
31
LT[ ]	/* LessThan */
IF[ ]	/* If */
NPUSHB[ ]	/* 70 values pushed */
0 6 3 5 3 6 5 104 13 1 12 5 0 5 12 96 0 11 10 9 10 11 9 104 0 7 0 10 11 7 10 91 0 9 0 8 9 8 87 0 4 4 1 83 0 1 1 20 67 0 3 3 2 83 0 2 2 12 67 0 5 5 0 83 0 0 0 21 0 68
ELSE[ ]	/* Else */
MPPEM[ ]	/* MeasurePixelPerEm */
PUSHB[ ]	/* 1 value pushed */
45
LT[ ]	/* LessThan */
IF[ ]	/* If */
NPUSHB[ ]	/* 71 values pushed */
0 6 3 5 3 6 5 104 13 1 12 5 0 5 12 0 104 0 11 10 9 10 11 9 104 0 7 0 10 11 7 10 91 0 9 0 8 9 8 87 0 4 4 1 83 0 1 1 20 67 0 3 3 2 83 0 2 2 12 67 0 5 5 0 83 0 0 0 21 0 68
ELSE[ ]	/* Else */
NPUSHB[ ]	/* 69 values pushed */
0 6 3 5 3 6 5 104 13 1 12 5 0 5 12 0 104 0 11 10 9 10 11 9 104 0 1 0 4 3 1 4 91 0 7 0 10 11 7 10 91 0 9 0 8 9 8 87 0 3 3 2 83 0 2 2 14 67 0 5 5 0 83 0 0 0 21 0 68
EIF[ ]	/* EndIf */
EIF[ ]	/* EndIf */
EIF[ ]	/* EndIf */
EIF[ ]	/* EndIf */
NPUSHB[ ]	/* 23 values pushed */
71 71 71 110 71 110 102 100 97 95 91 89 38 37 38 40 38 44 43 40 37 14 35
CALL[ ]	/* CallFunction */";
};
width = 646;
},
{
layerId = "E59D8378-1062-4241-9A8F-EEB295F00E05";
shapes = (
{
closed = 1;
nodes = (
(435.658,-206,o),
(495,-179.591,o),
(495,-128,cs),
(495,-89.333,o),
(462,-65,o),
(418,-65,cs),
(390,-65,o),
(370,-75.333,o),
(338,-94,c),
(353,-13,l),
(518.909,-4.972,o),
(584,134.321,o),
(584,214,cs),
(584,233.333,o),
(579.333,243,o),
(570,243,cs),
(556.445,243,o),
(555.648,212.886,o),
(553,197,cs),
(529.47,95.035,o),
(463.662,18,o),
(344,18,cs),
(170.674,18,o),
(86,191.986,o),
(86,404,cs),
(86,615.248,o),
(195.156,807,o),
(350,807,cs),
(481.215,807,o),
(529,677.106,o),
(529,532,cs),
(529,502.667,o),
(531.333,473,o),
(550,473,cs),
(567.333,473,o),
(569,488.333,o),
(569,507,cs),
(569,528.333,o),
(568.667,549.5,o),
(568,570.5,cs),
(567.333,591.5,o),
(567,612.667,o),
(567,634,cs),
(567,658,o),
(567.667,684.167,o),
(569,712.5,cs),
(570.333,740.833,o),
(571,766.667,o),
(571,790,cs),
(571,799.333,o),
(564.333,813,o),
(551,813,cs),
(538.333,813,o),
(532,804.667,o),
(532,788,c),
(532,788,o),
(533.838,751.014,o),
(537,702,c),
(514.42,761.273,o),
(457.72,838,o),
(349,838,cs),
(181.23,838,o),
(41,648.519,o),
(41,405,cs),
(41,259.667,o),
(76.833,155.833,o),
(129.5,88.5,cs),
(182.167,21.167,o),
(253.333,-11.333,o),
(324,-14,c),
(321.333,-36.667,o),
(314,-74.667,o),
(310,-96,cs),
(308.667,-101.333,o),
(307,-109,o),
(307,-113,cs),
(307,-118.333,o),
(312.333,-125,o),
(323,-125,cs),
(345.431,-125,o),
(378.636,-97,o),
(415,-97,cs),
(444.333,-97,o),
(458,-115.333,o),
(458,-134,cs),
(458,-164.667,o),
(423.333,-177,o),
(362,-177,cs),
(348.667,-177,o),
(338.5,-177.5,o),
(331.5,-178.5,cs),
(324.5,-179.5,o),
(321,-183,o),
(321,-189,cs),
(321,-193.667,o),
(323.833,-197.667,o),
(329.5,-201,cs),
(335.167,-204.333,o),
(347.333,-206,o),
(366,-206,cs)
);
}
);
userData = {
assembly = "NPUSHB[ ]	/* 11 values pushed */
63 58 2 9 10 6 1 4 1 2 66
MPPEM[ ]	/* MeasurePixelPerEm */
PUSHB[ ]	/* 1 value pushed */
11
LT[ ]	/* LessThan */
IF[ ]	/* If */
NPUSHB[ ]	/* 65 values pushed */
0 12 9 11 9 12 11 104 0 5 4 3 0 5 96 0 1 0 4 5 1 4 91 0 10 10 7 83 0 7 7 20 67 0 9 9 8 83 0 8 8 14 67 0 11 11 0 83 6 1 0 0 21 67 0 3 3 2 83 0 2 2 17 2 68
ELSE[ ]	/* Else */
MPPEM[ ]	/* MeasurePixelPerEm */
PUSHB[ ]	/* 1 value pushed */
39
LT[ ]	/* LessThan */
IF[ ]	/* If */
NPUSHB[ ]	/* 66 values pushed */
0 12 9 11 9 12 11 104 0 5 4 3 4 5 3 104 0 1 0 4 5 1 4 91 0 10 10 7 83 0 7 7 20 67 0 9 9 8 83 0 8 8 14 67 0 11 11 0 83 6 1 0 0 24 67 0 3 3 2 83 0 2 2 17 2 68
ELSE[ ]	/* Else */
MPPEM[ ]	/* MeasurePixelPerEm */
PUSHB[ ]	/* 1 value pushed */
45
LT[ ]	/* LessThan */
IF[ ]	/* If */
NPUSHB[ ]	/* 63 values pushed */
0 12 9 11 9 12 11 104 0 5 4 3 4 5 3 104 0 1 0 4 5 1 4 91 0 3 0 2 3 2 87 0 10 10 7 83 0 7 7 20 67 0 9 9 8 83 0 8 8 14 67 0 11 11 0 83 6 1 0 0 24 0 68
ELSE[ ]	/* Else */
NPUSHB[ ]	/* 61 values pushed */
0 12 9 11 9 12 11 104 0 5 4 3 4 5 3 104 0 7 0 10 9 7 10 91 0 1 0 4 5 1 4 91 0 3 0 2 3 2 87 0 9 9 8 83 0 8 8 14 67 0 11 11 0 83 6 1 0 0 24 0 68
EIF[ ]	/* EndIf */
EIF[ ]	/* EndIf */
EIF[ ]	/* EndIf */
NPUSHB[ ]	/* 19 values pushed */
106 104 96 94 86 84 78 76 42 40 24 35 36 36 38 35 20 13 24
CALL[ ]	/* CallFunction */";
};
width = 625;
}
);
note = Ccedilla;
unicode = 199;
},
{
glyphname = Ccircumflex;
kernLeft = C;
kernRight = C;
lastChange = "2024-06-13 14:31:09 +0000";
layers = (
{
layerId = m01;
shapes = (
{
closed = 1;
nodes = (
(467.667,830,o),
(470,841.667,o),
(470,851,cs),
(470,891.866,o),
(360.605,972,o),
(337,972,cs),
(325.856,972,o),
(291.177,950.45,o),
(264,928,cs),
(233.333,902.667,o),
(205,870.667,o),
(205,844,cs),
(205,837.333,o),
(208.667,830,o),
(218,830,cs),
(225.333,830,o),
(240.333,834.667,o),
(263,844,cs),
(285.667,853.333,o),
(310.333,865.333,o),
(337,880,c),
(363.667,865.333,o),
(388.5,853.333,o),
(411.5,844,cs),
(434.5,834.667,o),
(449.667,830,o),
(457,830,cs)
);
},
{
closed = 1;
nodes = (
(628,242.667,o),
(616,253,o),
(592,253,cs),
(566.667,253,o),
(558,244.333,o),
(546,207,cs),
(511.83,104.49,o),
(453.139,66,o),
(337,66,cs),
(267.667,66,o),
(215.5,104.667,o),
(181.5,166,cs),
(147.5,227.333,o),
(130,312,o),
(130,404,cs),
(130,584.788,o),
(215.962,759,o),
(343,759,cs),
(472.134,759,o),
(519.355,637.72,o),
(522,524,cs),
(523.333,473.333,o),
(538,465,o),
(570,465,cs),
(603.333,465,o),
(613,481,o),
(613,513,cs),
(613,534.333,o),
(612.667,554.5,o),
(612,573.5,cs),
(611.333,592.5,o),
(611,612.667,o),
(611,634,cs),
(611,658,o),
(611.667,683.667,o),
(613,711,cs),
(614.333,738.333,o),
(615,763.667,o),
(615,787,cs),
(615,802.882,o),
(610.309,829,o),
(570,829,cs),
(538,829,o),
(532,811.667,o),
(532,793,cs),
(532,791.667,o),
(532.167,785.667,o),
(532.5,775,cs),
(532.833,764.333,o),
(534,741.667,o),
(536,707,c),
(513.207,766.831,o),
(450.112,838,o),
(342,838,cs),
(174.23,838,o),
(34,648.519,o),
(34,405,cs),
(34,103.938,o),
(185.838,-14,o),
(329,-14,cs),
(437,-14,o),
(512.167,23.833,o),
(559.5,72.5,cs),
(606.833,121.167,o),
(628,179.333,o),
(628,222,cs)
);
}
);
userData = {
assembly = "NPUSHB[ ]	/* 10 values pushed */
3 1 4 2 42 1 6 7 2 66
MPPEM[ ]	/* MeasurePixelPerEm */
PUSHB[ ]	/* 1 value pushed */
9
LT[ ]	/* LessThan */
IF[ ]	/* If */
NPUSHB[ ]	/* 57 values pushed */
0 2 4 4 2 94 1 10 2 0 4 7 4 0 7 104 0 9 6 8 6 9 8 104 0 7 7 4 83 5 1 4 4 20 67 0 6 6 4 83 5 1 4 4 20 67 0 8 8 3 83 0 3 3 21 3 68
ELSE[ ]	/* Else */
MPPEM[ ]	/* MeasurePixelPerEm */
PUSHB[ ]	/* 1 value pushed */
27
LT[ ]	/* LessThan */
IF[ ]	/* If */
NPUSHB[ ]	/* 56 values pushed */
0 2 4 2 106 1 10 2 0 4 7 4 0 7 104 0 9 6 8 6 9 8 104 0 7 7 4 83 5 1 4 4 20 67 0 6 6 4 83 5 1 4 4 20 67 0 8 8 3 83 0 3 3 21 3 68
ELSE[ ]	/* Else */
MPPEM[ ]	/* MeasurePixelPerEm */
PUSHB[ ]	/* 1 value pushed */
45
LT[ ]	/* LessThan */
IF[ ]	/* If */
NPUSHB[ ]	/* 54 values pushed */
0 2 4 2 106 1 10 2 0 4 5 4 0 5 104 0 9 6 8 6 9 8 104 0 7 7 4 83 0 4 4 20 67 0 6 6 5 83 0 5 5 12 67 0 8 8 3 83 0 3 3 21 3 68
ELSE[ ]	/* Else */
NPUSHB[ ]	/* 50 values pushed */
0 2 4 2 106 1 10 2 0 4 5 4 0 5 104 0 9 6 8 6 9 8 104 0 4 0 7 6 4 7 92 0 5 0 6 9 5 6 91 0 8 8 3 83 0 3 3 21 3 68
EIF[ ]	/* EndIf */
EIF[ ]	/* EndIf */
EIF[ ]	/* EndIf */
NPUSHB[ ]	/* 26 values pushed */
1 0 89 87 81 79 71 69 63 61 49 47 38 36 28 26 15 13 7 5 0 21 1 21 11 15
CALL[ ]	/* CallFunction */";
};
width = 661;
},
{
layerId = "62092E79-60F6-4D0B-8A38-B9DDC6B60A9E";
shapes = (
{
closed = 1;
nodes = (
(469,847,o),
(472,854.667,o),
(472,864,cs),
(472,900.28,o),
(364.728,972,o),
(341,972,cs),
(319.04,972,o),
(211,901.46,o),
(211,860,cs),
(211,851.333,o),
(214.667,847,o),
(222,847,cs),
(239.679,847,o),
(301.008,874.475,o),
(341,898,c),
(404.994,860.357,o),
(452.663,847,o),
(461,847,cs)
);
},
{
closed = 1;
nodes = (
(610,239,o),
(600.333,249,o),
(581,249,cs),
(557,249,o),
(554.333,229.667,o),
(549,203,cs),
(532.918,114.549,o),
(454.789,48,o),
(340,48,cs),
(188.119,48,o),
(112,205.847,o),
(112,404,cs),
(112,599.762,o),
(208.445,777,o),
(346,777,cs),
(476.991,777,o),
(525,658.755,o),
(525,527,cs),
(525,477.667,o),
(537,468,o),
(561,468,cs),
(590.333,468,o),
(595,490,o),
(595,502,cs),
(595,523.333,o),
(594.667,545.333,o),
(594,568,cs),
(593.333,590.667,o),
(593,612.667,o),
(593,634,cs),
(593,658,o),
(593.667,684.167,o),
(595,712.5,cs),
(596.333,740.833,o),
(597,766.667,o),
(597,790,cs),
(597,801.348,o),
(592.534,823,o),
(561,823,cs),
(537,823,o),
(528,804,o),
(528,788,c),
(528,788,o),
(529.838,751.014,o),
(533,702,c),
(510.42,761.273,o),
(453.72,838,o),
(345,838,cs),
(177.23,838,o),
(37,648.519,o),
(37,405,cs),
(37,103.938,o),
(188.838,-14,o),
(332,-14,cs),
(432,-14,o),
(502,23,o),
(546,71,cs),
(590,119,o),
(610,176.333,o),
(610,219,cs)
);
}
);
userData = {
assembly = "NPUSHB[ ]	/* 14 values pushed */
5 1 0 2 50 1 7 5 45 1 6 7 3 66
MPPEM[ ]	/* MeasurePixelPerEm */
PUSHB[ ]	/* 1 value pushed */
9
LT[ ]	/* LessThan */
IF[ ]	/* If */
NPUSHB[ ]	/* 52 values pushed */
0 2 0 4 2 94 1 10 2 0 4 0 106 0 9 6 8 6 9 8 104 0 7 7 4 83 0 4 4 20 67 0 6 6 5 83 0 5 5 12 67 0 8 8 3 83 0 3 3 21 3 68
ELSE[ ]	/* Else */
MPPEM[ ]	/* MeasurePixelPerEm */
PUSHB[ ]	/* 1 value pushed */
45
LT[ ]	/* LessThan */
IF[ ]	/* If */
NPUSHB[ ]	/* 51 values pushed */
0 2 0 2 106 1 10 2 0 4 0 106 0 9 6 8 6 9 8 104 0 7 7 4 83 0 4 4 20 67 0 6 6 5 83 0 5 5 12 67 0 8 8 3 83 0 3 3 21 3 68
ELSE[ ]	/* Else */
NPUSHB[ ]	/* 49 values pushed */
0 2 0 2 106 1 10 2 0 4 0 106 0 9 6 8 6 9 8 104 0 4 0 7 6 4 7 92 0 6 6 5 83 0 5 5 14 67 0 8 8 3 83 0 3 3 21 3 68
EIF[ ]	/* EndIf */
EIF[ ]	/* EndIf */
NPUSHB[ ]	/* 26 values pushed */
1 0 94 92 86 84 76 74 68 66 54 52 41 39 31 29 18 16 11 9 0 24 1 24 11 15
CALL[ ]	/* CallFunction */";
};
width = 646;
},
{
layerId = "E59D8378-1062-4241-9A8F-EEB295F00E05";
shapes = (
{
closed = 1;
nodes = (
(511.384,-14,o),
(584,126.287,o),
(584,214,cs),
(584,233.333,o),
(579.333,243,o),
(570,243,cs),
(556.445,243,o),
(555.648,212.886,o),
(553,197,cs),
(529.47,95.035,o),
(463.662,18,o),
(344,18,cs),
(170.674,18,o),
(86,191.986,o),
(86,404,cs),
(86,615.248,o),
(195.156,807,o),
(350,807,cs),
(481.215,807,o),
(529,677.106,o),
(529,532,cs),
(529,502.667,o),
(531.333,473,o),
(550,473,cs),
(567.333,473,o),
(569,488.333,o),
(569,507,cs),
(569,528.333,o),
(568.667,549.5,o),
(568,570.5,cs),
(567.333,591.5,o),
(567,612.667,o),
(567,634,cs),
(567,658,o),
(567.667,684.167,o),
(569,712.5,cs),
(570.333,740.833,o),
(571,766.667,o),
(571,790,cs),
(571,799.333,o),
(564.333,813,o),
(551,813,cs),
(538.333,813,o),
(532,804.667,o),
(532,788,c),
(532,788,o),
(533.838,751.014,o),
(537,702,c),
(514.42,761.273,o),
(457.72,838,o),
(349,838,cs),
(181.23,838,o),
(41,648.519,o),
(41,405,cs),
(41,103.938,o),
(192.838,-14,o),
(336,-14,cs)
);
},
{
closed = 1;
nodes = (
(244.501,875,o),
(316.211,908.207,o),
(347,928,c),
(401.215,890.467,o),
(468.669,875,o),
(467,875,cs),
(472.333,875,o),
(475,878.667,o),
(475,886,cs),
(475,910.708,o),
(372.596,972,o),
(347,972,cs),
(323.629,972,o),
(220,910.79,o),
(220,886,cs),
(220,878.667,o),
(222.667,875,o),
(228,875,cs)
);
}
);
userData = {
assembly = "NPUSHB[ ]	/* 11 values pushed */
5 1 0 2 49 44 2 6 7 2 66
MPPEM[ ]	/* MeasurePixelPerEm */
PUSHB[ ]	/* 1 value pushed */
9
LT[ ]	/* LessThan */
IF[ ]	/* If */
NPUSHB[ ]	/* 52 values pushed */
0 2 0 4 2 94 1 10 2 0 4 0 106 0 9 6 8 6 9 8 104 0 7 7 4 83 0 4 4 20 67 0 6 6 5 83 0 5 5 14 67 0 8 8 3 83 0 3 3 21 3 68
ELSE[ ]	/* Else */
MPPEM[ ]	/* MeasurePixelPerEm */
PUSHB[ ]	/* 1 value pushed */
45
LT[ ]	/* LessThan */
IF[ ]	/* If */
NPUSHB[ ]	/* 51 values pushed */
0 2 0 2 106 1 10 2 0 4 0 106 0 9 6 8 6 9 8 104 0 7 7 4 83 0 4 4 20 67 0 6 6 5 83 0 5 5 14 67 0 8 8 3 83 0 3 3 21 3 68
ELSE[ ]	/* Else */
NPUSHB[ ]	/* 49 values pushed */
0 2 0 2 106 1 10 2 0 4 0 106 0 9 6 8 6 9 8 104 0 4 0 7 6 4 7 92 0 6 6 5 83 0 5 5 14 67 0 8 8 3 83 0 3 3 21 3 68
EIF[ ]	/* EndIf */
EIF[ ]	/* EndIf */
NPUSHB[ ]	/* 26 values pushed */
1 0 92 90 82 80 72 70 64 62 52 50 40 38 30 28 18 16 11 9 0 23 1 23 11 15
CALL[ ]	/* CallFunction */";
};
width = 625;
}
);
note = Ccircumflex;
unicode = 264;
},
{
glyphname = Cdotaccent;
kernLeft = C;
kernRight = C;
lastChange = "2024-06-13 14:31:17 +0000";
layers = (
{
layerId = m01;
shapes = (
{
closed = 1;
nodes = (
(628,242.667,o),
(616,253,o),
(592,253,cs),
(566.667,253,o),
(558,244.333,o),
(546,207,cs),
(511.83,104.49,o),
(453.139,66,o),
(337,66,cs),
(267.667,66,o),
(215.5,104.667,o),
(181.5,166,cs),
(147.5,227.333,o),
(130,312,o),
(130,404,cs),
(130,584.788,o),
(215.962,759,o),
(343,759,cs),
(472.134,759,o),
(519.355,637.72,o),
(522,524,cs),
(523.333,473.333,o),
(538,465,o),
(570,465,cs),
(603.333,465,o),
(613,481,o),
(613,513,cs),
(613,534.333,o),
(612.667,554.5,o),
(612,573.5,cs),
(611.333,592.5,o),
(611,612.667,o),
(611,634,cs),
(611,658,o),
(611.667,683.667,o),
(613,711,cs),
(614.333,738.333,o),
(615,763.667,o),
(615,787,cs),
(615,802.882,o),
(610.309,829,o),
(570,829,cs),
(538,829,o),
(532,811.667,o),
(532,793,cs),
(532,791.667,o),
(532.167,785.667,o),
(532.5,775,cs),
(532.833,764.333,o),
(534,741.667,o),
(536,707,c),
(513.207,766.831,o),
(450.112,838,o),
(342,838,cs),
(174.23,838,o),
(34,648.519,o),
(34,405,cs),
(34,103.938,o),
(185.838,-14,o),
(329,-14,cs),
(437,-14,o),
(512.167,23.833,o),
(559.5,72.5,cs),
(606.833,121.167,o),
(628,179.333,o),
(628,222,cs)
);
},
{
closed = 1;
nodes = (
(284,863.333,o),
(309.667,840,o),
(343,840,cs),
(372.675,840,o),
(410,854.646,o),
(410,910,cs),
(410,946,o),
(382,971,o),
(350,971,cs),
(302.488,971,o),
(284,933.161,o),
(284,906,cs)
);
}
);
userData = {
assembly = "PUSHB[ ]	/* 6 values pushed */
20 1 3 4 1 66
MPPEM[ ]	/* MeasurePixelPerEm */
PUSHB[ ]	/* 1 value pushed */
27
LT[ ]	/* LessThan */
IF[ ]	/* If */
NPUSHB[ ]	/* 49 values pushed */
0 6 3 5 3 6 5 104 0 7 0 8 1 7 8 91 0 4 4 1 83 2 1 1 1 20 67 0 3 3 1 83 2 1 1 1 20 67 0 5 5 0 83 0 0 0 21 0 68
ELSE[ ]	/* Else */
MPPEM[ ]	/* MeasurePixelPerEm */
PUSHB[ ]	/* 1 value pushed */
45
LT[ ]	/* LessThan */
IF[ ]	/* If */
NPUSHB[ ]	/* 47 values pushed */
0 6 3 5 3 6 5 104 0 7 0 8 1 7 8 91 0 4 4 1 83 0 1 1 20 67 0 3 3 2 83 0 2 2 12 67 0 5 5 0 83 0 0 0 21 0 68
ELSE[ ]	/* Else */
NPUSHB[ ]	/* 43 values pushed */
0 6 3 5 3 6 5 104 0 7 0 8 1 7 8 91 0 1 0 4 3 1 4 91 0 2 0 3 6 2 3 91 0 5 5 0 83 0 0 0 21 0 68
EIF[ ]	/* EndIf */
EIF[ ]	/* EndIf */
NPUSHB[ ]	/* 11 values pushed */
38 37 38 40 38 44 41 40 36 9 24
CALL[ ]	/* CallFunction */";
};
width = 661;
},
{
layerId = "62092E79-60F6-4D0B-8A38-B9DDC6B60A9E";
shapes = (
{
closed = 1;
nodes = (
(610,239,o),
(600.333,249,o),
(581,249,cs),
(557,249,o),
(554.333,229.667,o),
(549,203,cs),
(532.918,114.549,o),
(454.789,48,o),
(340,48,cs),
(188.119,48,o),
(112,205.847,o),
(112,404,cs),
(112,599.762,o),
(208.445,777,o),
(346,777,cs),
(476.991,777,o),
(525,658.755,o),
(525,527,cs),
(525,477.667,o),
(537,468,o),
(561,468,cs),
(590.333,468,o),
(595,490,o),
(595,502,cs),
(595,523.333,o),
(594.667,545.333,o),
(594,568,cs),
(593.333,590.667,o),
(593,612.667,o),
(593,634,cs),
(593,658,o),
(593.667,684.167,o),
(595,712.5,cs),
(596.333,740.833,o),
(597,766.667,o),
(597,790,cs),
(597,801.348,o),
(592.534,823,o),
(561,823,cs),
(537,823,o),
(528,804,o),
(528,788,c),
(528,788,o),
(529.838,751.014,o),
(533,702,c),
(510.42,761.273,o),
(453.72,838,o),
(345,838,cs),
(177.23,838,o),
(37,648.519,o),
(37,405,cs),
(37,103.938,o),
(188.838,-14,o),
(332,-14,cs),
(432,-14,o),
(502,23,o),
(546,71,cs),
(590,119,o),
(610,176.333,o),
(610,219,cs)
);
},
{
closed = 1;
nodes = (
(296,880,o),
(318,859,o),
(345,859,cs),
(370,859,o),
(401,872,o),
(401,920,cs),
(401,951,o),
(379,972,o),
(352,972,cs),
(310,972,o),
(296,936,o),
(296,916,cs)
);
}
);
userData = {
assembly = "NPUSHB[ ]	/* 10 values pushed */
26 1 4 2 21 1 3 4 2 66
MPPEM[ ]	/* MeasurePixelPerEm */
PUSHB[ ]	/* 1 value pushed */
45
LT[ ]	/* LessThan */
IF[ ]	/* If */
NPUSHB[ ]	/* 47 values pushed */
0 6 3 5 3 6 5 104 0 7 0 8 1 7 8 91 0 4 4 1 83 0 1 1 20 67 0 3 3 2 83 0 2 2 12 67 0 5 5 0 83 0 0 0 21 0 68
ELSE[ ]	/* Else */
NPUSHB[ ]	/* 45 values pushed */
0 6 3 5 3 6 5 104 0 7 0 8 1 7 8 91 0 1 0 4 3 1 4 91 0 3 3 2 83 0 2 2 14 67 0 5 5 0 83 0 0 0 21 0 68
EIF[ ]	/* EndIf */
NPUSHB[ ]	/* 11 values pushed */
36 37 38 40 38 44 43 40 37 9 35
CALL[ ]	/* CallFunction */";
};
width = 646;
},
{
layerId = "E59D8378-1062-4241-9A8F-EEB295F00E05";
shapes = (
{
closed = 1;
nodes = (
(511.384,-14,o),
(584,126.287,o),
(584,214,cs),
(584,233.333,o),
(579.333,243,o),
(570,243,cs),
(556.445,243,o),
(555.648,212.886,o),
(553,197,cs),
(529.47,95.035,o),
(463.662,18,o),
(344,18,cs),
(170.674,18,o),
(86,191.986,o),
(86,404,cs),
(86,615.248,o),
(195.156,807,o),
(350,807,cs),
(481.215,807,o),
(529,677.106,o),
(529,532,cs),
(529,502.667,o),
(531.333,473,o),
(550,473,cs),
(567.333,473,o),
(569,488.333,o),
(569,507,cs),
(569,528.333,o),
(568.667,549.5,o),
(568,570.5,cs),
(567.333,591.5,o),
(567,612.667,o),
(567,634,cs),
(567,658,o),
(567.667,684.167,o),
(569,712.5,cs),
(570.333,740.833,o),
(571,766.667,o),
(571,790,cs),
(571,799.333,o),
(564.333,813,o),
(551,813,cs),
(538.333,813,o),
(532,804.667,o),
(532,788,c),
(532,788,o),
(533.838,751.014,o),
(537,702,c),
(514.42,761.273,o),
(457.72,838,o),
(349,838,cs),
(181.23,838,o),
(41,648.519,o),
(41,405,cs),
(41,103.938,o),
(192.838,-14,o),
(336,-14,cs)
);
},
{
closed = 1;
nodes = (
(366.667,889,o),
(389,899,o),
(389,935,cs),
(389,957.667,o),
(373.667,972,o),
(355,972,cs),
(327.258,972,o),
(314,944.895,o),
(314,931,cs),
(314,907,o),
(329.333,889,o),
(348,889,cs)
);
}
);
userData = {
assembly = "PUSHB[ ]	/* 7 values pushed */
25 20 2 3 4 1 66
MPPEM[ ]	/* MeasurePixelPerEm */
PUSHB[ ]	/* 1 value pushed */
45
LT[ ]	/* LessThan */
IF[ ]	/* If */
NPUSHB[ ]	/* 47 values pushed */
0 6 3 5 3 6 5 104 0 7 0 8 1 7 8 91 0 4 4 1 83 0 1 1 20 67 0 3 3 2 83 0 2 2 14 67 0 5 5 0 83 0 0 0 21 0 68
ELSE[ ]	/* Else */
NPUSHB[ ]	/* 45 values pushed */
0 6 3 5 3 6 5 104 0 7 0 8 1 7 8 91 0 1 0 4 3 1 4 91 0 3 3 2 83 0 2 2 14 67 0 5 5 0 83 0 0 0 21 0 68
EIF[ ]	/* EndIf */
NPUSHB[ ]	/* 11 values pushed */
36 37 40 40 38 42 42 40 36 9 24
CALL[ ]	/* CallFunction */";
};
width = 625;
}
);
note = Cdotaccent;
unicode = 266;
},
{
glyphname = D;
kernLeft = B;
kernRight = D;
lastChange = "2024-06-13 14:31:09 +0000";
layers = (
{
layerId = m01;
shapes = (
{
closed = 1;
nodes = (
(41,750.667,o),
(53.333,738,o),
(78,738,cs),
(107.333,738,o),
(132,730.667,o),
(132,696,cs),
(132,633.779,o),
(139,488.095,o),
(139,437,cs),
(139,364.21,o),
(139.224,303.213,o),
(138.5,254,cs),
(137.755,203.336,o),
(138,151.007,o),
(138,97,cs),
(138,89,o),
(133.5,83.333,o),
(124.5,80,cs),
(115.5,76.667,o),
(101.667,74.333,o),
(83,73,cs),
(56.333,70.333,o),
(41,61.667,o),
(41,31,cs),
(41,10.333,o),
(53.333,0,o),
(78,0,cs),
(289,0,ls),
(551.878,0,o),
(682,199.666,o),
(682,439,cs),
(682,580.333,o),
(628.667,676,o),
(554,736,cs),
(479.333,796,o),
(383,821,o),
(299,821,cs),
(217.667,821,o),
(142.667,820.667,o),
(76,818,cs),
(53.333,816.667,o),
(41,800,o),
(41,776,cs)
);
},
{
closed = 1;
nodes = (
(498.848,738,o),
(586,600.881,o),
(586,439,cs),
(586,235.22,o),
(498.602,82,o),
(293,82,cs),
(251.781,82,o),
(231,83.753,o),
(231,92,cs),
(231,734,l),
(241,734.667,o),
(251.333,735.5,o),
(262,736.5,cs),
(272.667,737.5,o),
(283,738,o),
(293,738,cs)
);
}
);
userData = {
assembly = "MPPEM[ ]	/* MeasurePixelPerEm */
PUSHB[ ]	/* 1 value pushed */
45
LT[ ]	/* LessThan */
IF[ ]	/* If */
NPUSHB[ ]	/* 24 values pushed */
4 6 3 3 2 2 0 83 0 0 0 12 67 0 5 5 1 83 0 1 1 13 1 68
ELSE[ ]	/* Else */
NPUSHB[ ]	/* 24 values pushed */
4 6 3 3 2 2 0 83 0 0 0 14 67 0 5 5 1 83 0 1 1 13 1 68
EIF[ ]	/* EndIf */
NPUSHB[ ]	/* 16 values pushed */
41 40 50 47 43 42 40 58 41 58 39 37 56 82 7 17
CALL[ ]	/* CallFunction */";
};
width = 715;
},
{
layerId = "62092E79-60F6-4D0B-8A38-B9DDC6B60A9E";
shapes = (
{
closed = 1;
nodes = (
(48.333,816.667,o),
(42,804.667,o),
(42,794,cs),
(42,780.667,o),
(49,769,o),
(65,769,cs),
(102.805,769,o),
(133,766.267,o),
(133,727,cs),
(133,668.696,o),
(140,487.082,o),
(140,437,cs),
(140,360.854,o),
(140.217,295.523,o),
(139.5,241,cs),
(138.759,184.671,o),
(139,128.341,o),
(139,72,cs),
(139,48.278,o),
(94.208,48,o),
(70,48,cs),
(47.333,48,o),
(39,41.333,o),
(39,24,cs),
(39,6.667,o),
(52.333,0,o),
(75,0,cs),
(269,0,ls),
(531.878,0,o),
(662,199.666,o),
(662,439,cs),
(662,580.333,o),
(608.667,676,o),
(534,736,cs),
(459.333,796,o),
(363,821,o),
(279,821,cs),
(197.667,821,o),
(129.667,820.667,o),
(63,818,cs)
);
},
{
closed = 1;
nodes = (
(490.403,756,o),
(587,613.33,o),
(587,439,cs),
(587,222.99,o),
(490.859,64,o),
(273,64,cs),
(231.781,64,o),
(211,65.753,o),
(211,74,cs),
(211,752,l),
(221,752.667,o),
(231.333,753.5,o),
(242,754.5,cs),
(252.667,755.5,o),
(263,756,o),
(273,756,cs)
);
}
);
userData = {
assembly = "MPPEM[ ]	/* MeasurePixelPerEm */
PUSHB[ ]	/* 1 value pushed */
45
LT[ ]	/* LessThan */
IF[ ]	/* If */
NPUSHB[ ]	/* 37 values pushed */
0 3 0 4 4 3 96 0 2 6 1 6 2 96 5 7 2 4 4 0 84 0 0 0 12 67 0 6 6 1 83 0 1 1 13 1 68
ELSE[ ]	/* Else */
NPUSHB[ ]	/* 37 values pushed */
0 3 0 4 4 3 96 0 2 6 1 6 2 96 5 7 2 4 4 0 84 0 0 0 14 67 0 6 6 1 83 0 1 1 13 1 68
EIF[ ]	/* EndIf */
NPUSHB[ ]	/* 17 values pushed */
47 46 56 53 49 48 46 64 47 64 41 39 52 56 64 8 18
CALL[ ]	/* CallFunction */";
};
width = 698;
},
{
layerId = "E59D8378-1062-4241-9A8F-EEB295F00E05";
shapes = (
{
closed = 1;
nodes = (
(241,0,ls),
(503.878,0,o),
(634,199.666,o),
(634,439,cs),
(634,580.333,o),
(580.667,676,o),
(506,736,cs),
(431.333,796,o),
(335,821,o),
(251,821,cs),
(169.667,821,o),
(111.667,820.667,o),
(45,818,cs),
(31,817.333,o),
(24,813,o),
(24,805,cs),
(24,798.333,o),
(29.667,789,o),
(47,789,cs),
(103.125,789,o),
(135,786.513,o),
(135,747,cs),
(135,676.462,o),
(142,505.895,o),
(142,437,cs),
(142,356.408,o),
(142.218,287.41,o),
(141.5,230,cs),
(140.758,170.67,o),
(141,111.341,o),
(141,52,cs),
(141,28.179,o),
(86.958,28,o),
(52,28,cs),
(40.667,28,o),
(32.667,26.5,o),
(28,23.5,cs),
(23.333,20.5,o),
(21,16.667,o),
(21,12,cs),
(21,6.667,o),
(24.167,3.333,o),
(30.5,2,cs),
(36.833,0.667,o),
(45.667,0,o),
(57,0,cs)
);
},
{
closed = 1;
nodes = (
(203.781,34,o),
(183,35.753,o),
(183,44,cs),
(183,782,l),
(193,782.667,o),
(203.333,783.5,o),
(214,784.5,cs),
(224.667,785.5,o),
(235,786,o),
(245,786,cs),
(484.403,786,o),
(589,630.397,o),
(589,439,cs),
(589,208.827,o),
(484.653,34,o),
(245,34,cs)
);
}
);
userData = {
assembly = "MPPEM[ ]	/* MeasurePixelPerEm */
PUSHB[ ]	/* 1 value pushed */
45
LT[ ]	/* LessThan */
IF[ ]	/* If */
NPUSHB[ ]	/* 38 values pushed */
0 5 3 6 3 5 96 0 2 6 1 6 2 96 8 4 2 3 3 0 83 7 1 0 0 12 67 0 6 6 1 83 0 1 1 13 1 68
ELSE[ ]	/* Else */
NPUSHB[ ]	/* 38 values pushed */
0 5 3 6 3 5 96 0 2 6 1 6 2 96 8 4 2 3 3 0 83 7 1 0 0 14 67 0 6 6 1 83 0 1 1 13 1 68
EIF[ ]	/* EndIf */
NPUSHB[ ]	/* 24 values pushed */
46 45 4 0 55 52 48 47 45 63 46 63 41 38 22 19 15 12 0 44 4 44 9 15
CALL[ ]	/* CallFunction */";
};
width = 674;
}
);
note = D;
unicode = 68;
},
{
glyphname = Dcaron;
kernLeft = B;
kernRight = D;
lastChange = "2024-06-13 14:31:09 +0000";
layers = (
{
layerId = m01;
shapes = (
{
closed = 1;
nodes = (
(426.325,972,o),
(363.763,951.893,o),
(323,922,c),
(285.937,949.179,o),
(223.248,972,o),
(204,972,cs),
(194.667,972,o),
(191,964.667,o),
(191,958,cs),
(191,931.333,o),
(219.333,900.5,o),
(250,874.5,cs),
(277.066,851.553,o),
(311.906,830,o),
(323,830,cs),
(346.27,830,o),
(456,908.718,o),
(456,951,cs),
(456,960.333,o),
(453.667,972,o),
(443,972,cs)
);
},
{
closed = 1;
nodes = (
(41,750.667,o),
(53.333,738,o),
(78,738,cs),
(107.333,738,o),
(132,730.667,o),
(132,696,cs),
(132,633.779,o),
(139,488.095,o),
(139,437,cs),
(139,364.21,o),
(139.224,303.213,o),
(138.5,254,cs),
(137.755,203.336,o),
(138,151.007,o),
(138,97,cs),
(138,89,o),
(133.5,83.333,o),
(124.5,80,cs),
(115.5,76.667,o),
(101.667,74.333,o),
(83,73,cs),
(56.333,70.333,o),
(41,61.667,o),
(41,31,cs),
(41,10.333,o),
(53.333,0,o),
(78,0,cs),
(289,0,ls),
(551.878,0,o),
(682,199.666,o),
(682,439,cs),
(682,580.333,o),
(628.667,676,o),
(554,736,cs),
(479.333,796,o),
(383,821,o),
(299,821,cs),
(217.667,821,o),
(142.667,820.667,o),
(76,818,cs),
(53.333,816.667,o),
(41,800,o),
(41,776,cs)
);
},
{
closed = 1;
nodes = (
(498.848,738,o),
(586,600.881,o),
(586,439,cs),
(586,235.22,o),
(498.602,82,o),
(293,82,cs),
(251.781,82,o),
(231,83.753,o),
(231,92,cs),
(231,734,l),
(241,734.667,o),
(251.333,735.5,o),
(262,736.5,cs),
(272.667,737.5,o),
(283,738,o),
(293,738,cs)
);
}
);
userData = {
assembly = "PUSHB[ ]	/* 6 values pushed */
21 1 1 0 1 66
MPPEM[ ]	/* MeasurePixelPerEm */
PUSHB[ ]	/* 1 value pushed */
45
LT[ ]	/* LessThan */
IF[ ]	/* If */
NPUSHB[ ]	/* 36 values pushed */
2 9 2 0 1 0 106 0 1 3 1 106 7 10 6 3 5 5 3 83 0 3 3 12 67 0 8 8 4 84 0 4 4 13 4 68
ELSE[ ]	/* Else */
NPUSHB[ ]	/* 36 values pushed */
2 9 2 0 1 0 106 0 1 3 1 106 7 10 6 3 5 5 3 83 0 3 3 14 67 0 8 8 4 84 0 4 4 13 4 68
EIF[ ]	/* EndIf */
NPUSHB[ ]	/* 28 values pushed */
67 66 1 0 76 73 69 68 66 84 67 84 65 63 44 41 33 28 17 15 9 7 0 25 1 25 11 15
CALL[ ]	/* CallFunction */";
};
width = 715;
},
{
layerId = "62092E79-60F6-4D0B-8A38-B9DDC6B60A9E";
shapes = (
{
closed = 1;
nodes = (
(414.663,972,o),
(366.994,958.643,o),
(303,921,c),
(263.008,944.525,o),
(201.679,972,o),
(184,972,cs),
(176.667,972,o),
(173,967.667,o),
(173,959,cs),
(173,917.54,o),
(281.04,847,o),
(303,847,cs),
(328.107,847,o),
(434,919.046,o),
(434,955,cs),
(434,964.333,o),
(431,972,o),
(423,972,cs)
);
},
{
closed = 1;
nodes = (
(48.333,816.667,o),
(42,804.667,o),
(42,794,cs),
(42,780.667,o),
(49,769,o),
(65,769,cs),
(102.805,769,o),
(133,766.267,o),
(133,727,cs),
(133,668.696,o),
(140,487.082,o),
(140,437,cs),
(140,360.854,o),
(140.217,295.523,o),
(139.5,241,cs),
(138.759,184.671,o),
(139,128.341,o),
(139,72,cs),
(139,48.278,o),
(94.208,48,o),
(70,48,cs),
(47.333,48,o),
(39,41.333,o),
(39,24,cs),
(39,6.667,o),
(52.333,0,o),
(75,0,cs),
(269,0,ls),
(531.878,0,o),
(662,199.666,o),
(662,439,cs),
(662,580.333,o),
(608.667,676,o),
(534,736,cs),
(459.333,796,o),
(363,821,o),
(279,821,cs),
(197.667,821,o),
(129.667,820.667,o),
(63,818,cs)
);
},
{
closed = 1;
nodes = (
(490.403,756,o),
(587,613.33,o),
(587,439,cs),
(587,222.99,o),
(490.859,64,o),
(273,64,cs),
(231.781,64,o),
(211,65.753,o),
(211,74,cs),
(211,752,l),
(221,752.667,o),
(231.333,753.5,o),
(242,754.5,cs),
(252.667,755.5,o),
(263,756,o),
(273,756,cs)
);
}
);
userData = {
assembly = "PUSHB[ ]	/* 6 values pushed */
20 1 1 0 1 66
MPPEM[ ]	/* MeasurePixelPerEm */
PUSHB[ ]	/* 1 value pushed */
45
LT[ ]	/* LessThan */
IF[ ]	/* If */
NPUSHB[ ]	/* 49 values pushed */
2 10 2 0 1 0 106 0 1 3 1 106 0 6 3 7 7 6 96 0 5 9 4 9 5 96 8 11 2 7 7 3 84 0 3 3 12 67 0 9 9 4 84 0 4 4 13 4 68
ELSE[ ]	/* Else */
NPUSHB[ ]	/* 49 values pushed */
2 10 2 0 1 0 106 0 1 3 1 106 0 6 3 7 7 6 96 0 5 9 4 9 5 96 8 11 2 7 7 3 84 0 3 3 14 67 0 9 9 4 84 0 4 4 13 4 68
EIF[ ]	/* EndIf */
NPUSHB[ ]	/* 30 values pushed */
72 71 1 0 81 78 74 73 71 89 72 89 66 64 47 44 40 37 29 25 16 14 9 7 0 24 1 24 12 15
CALL[ ]	/* CallFunction */";
};
width = 698;
},
{
layerId = "E59D8378-1062-4241-9A8F-EEB295F00E05";
shapes = (
{
closed = 1;
nodes = (
(241,0,ls),
(503.878,0,o),
(634,199.666,o),
(634,439,cs),
(634,580.333,o),
(580.667,676,o),
(506,736,cs),
(431.333,796,o),
(335,821,o),
(251,821,cs),
(169.667,821,o),
(111.667,820.667,o),
(45,818,cs),
(31,817.333,o),
(24,813,o),
(24,805,cs),
(24,798.333,o),
(29.667,789,o),
(47,789,cs),
(103.125,789,o),
(135,786.513,o),
(135,747,cs),
(135,676.462,o),
(142,505.895,o),
(142,437,cs),
(142,356.408,o),
(142.218,287.41,o),
(141.5,230,cs),
(140.758,170.67,o),
(141,111.341,o),
(141,52,cs),
(141,28.179,o),
(86.958,28,o),
(52,28,cs),
(40.667,28,o),
(32.667,26.5,o),
(28,23.5,cs),
(23.333,20.5,o),
(21,16.667,o),
(21,12,cs),
(21,6.667,o),
(24.167,3.333,o),
(30.5,2,cs),
(36.833,0.667,o),
(45.667,0,o),
(57,0,cs)
);
},
{
closed = 1;
nodes = (
(203.781,34,o),
(183,35.753,o),
(183,44,cs),
(183,782,l),
(193,782.667,o),
(203.333,783.5,o),
(214,784.5,cs),
(224.667,785.5,o),
(235,786,o),
(245,786,cs),
(484.403,786,o),
(589,630.397,o),
(589,439,cs),
(589,208.827,o),
(484.653,34,o),
(245,34,cs)
);
},
{
closed = 1;
nodes = (
(300.596,875,o),
(403,936.292,o),
(403,961,cs),
(403,968.333,o),
(400.333,972,o),
(395,972,cs),
(383.436,972,o),
(326.362,941.012,o),
(275,919,c),
(220.598,942.315,o),
(167.911,972,o),
(156,972,cs),
(150.667,972,o),
(148,968.333,o),
(148,961,cs),
(148,936.21,o),
(251.629,875,o),
(275,875,cs)
);
}
);
userData = {
assembly = "PUSHB[ ]	/* 6 values pushed */
19 1 1 0 1 66
MPPEM[ ]	/* MeasurePixelPerEm */
PUSHB[ ]	/* 1 value pushed */
45
LT[ ]	/* LessThan */
IF[ ]	/* If */
NPUSHB[ ]	/* 50 values pushed */
2 10 2 0 1 0 106 0 1 3 1 106 0 8 6 9 6 8 96 0 5 9 4 9 5 96 12 7 2 6 6 3 83 11 1 3 3 12 67 0 9 9 4 84 0 4 4 13 4 68
ELSE[ ]	/* Else */
NPUSHB[ ]	/* 50 values pushed */
2 10 2 0 1 0 106 0 1 3 1 106 0 8 6 9 6 8 96 0 5 9 4 9 5 96 12 7 2 6 6 3 83 11 1 3 3 14 67 0 9 9 4 84 0 4 4 13 4 68
EIF[ ]	/* EndIf */
NPUSHB[ ]	/* 34 values pushed */
70 69 28 24 1 0 79 76 72 71 69 87 70 87 65 62 46 43 39 36 24 68 28 68 15 13 8 6 0 23 1 23 13 15
CALL[ ]	/* CallFunction */";
};
width = 674;
}
);
note = Dcaron;
unicode = 270;
},
{
glyphname = Dcroat;
kernLeft = B;
kernRight = D;
lastChange = "2024-06-13 14:31:52 +0000";
layers = (
{
layerId = m01;
shapes = (
{
closed = 1;
nodes = (
(292,0,ls),
(555,0,o),
(685,200,o),
(685,439,cs),
(685,580,o),
(632,676,o),
(557,736,cs),
(482,796,o),
(386,821,o),
(302,821,cs),
(221,821,o),
(146,821,o),
(79,818,cs),
(56,817,o),
(44,800,o),
(44,776,cs),
(44,751,o),
(56,738,o),
(81,738,cs),
(110,738,o),
(135,731,o),
(135,696,cs),
(135,652,o),
(142,570,o),
(142,451,c),
(116,452,l),
(98,452,ls),
(75,452,o),
(65,426,o),
(65,409,cs),
(65,394,o),
(80,365,o),
(98,365,cs),
(142,365,l),
(141,97,ls),
(141,89,o),
(137,83,o),
(128,80,cs),
(119,77,o),
(105,74,o),
(86,73,cs),
(59,70,o),
(44,62,o),
(44,31,cs),
(44,10,o),
(56,0,o),
(81,0,cs)
);
},
{
closed = 1;
nodes = (
(255,82,o),
(234,84,o),
(234,92,cs),
(234,365,l),
(294,366,l),
(339,366,ls),
(367,366,o),
(375,398,o),
(375,412,cs),
(375,429,o),
(362,453,o),
(347,453,cs),
(297,452,l),
(234,450,l),
(234,734,l),
(265,737,l),
(296,738,ls),
(502,738,o),
(589,601,o),
(589,439,cs),
(589,235,o),
(502,82,o),
(296,82,cs)
);
}
);
userData = {
assembly = "MPPEM[ ]	/* MeasurePixelPerEm */
PUSHB[ ]	/* 1 value pushed */
20
LT[ ]	/* LessThan */
IF[ ]	/* If */
NPUSHB[ ]	/* 36 values pushed */
6 10 5 3 4 4 0 83 0 0 0 12 67 8 1 2 2 3 83 7 1 3 3 15 67 0 9 9 1 83 0 1 1 13 1 68
ELSE[ ]	/* Else */
MPPEM[ ]	/* MeasurePixelPerEm */
PUSHB[ ]	/* 1 value pushed */
45
LT[ ]	/* LessThan */
IF[ ]	/* If */
NPUSHB[ ]	/* 34 values pushed */
7 1 3 8 1 2 9 3 2 91 6 10 5 3 4 4 0 83 0 0 0 12 67 0 9 9 1 83 0 1 1 13 1 68
ELSE[ ]	/* Else */
NPUSHB[ ]	/* 34 values pushed */
7 1 3 8 1 2 9 3 2 91 6 10 5 3 4 4 0 83 0 0 0 14 67 0 9 9 1 83 0 1 1 13 1 68
EIF[ ]	/* EndIf */
EIF[ ]	/* EndIf */
NPUSHB[ ]	/* 21 values pushed */
53 52 77 74 70 66 60 56 55 54 52 85 53 85 39 70 44 56 82 11 20
CALL[ ]	/* CallFunction */";
};
width = 718;
},
{
layerId = "62092E79-60F6-4D0B-8A38-B9DDC6B60A9E";
shapes = (
{
closed = 1;
nodes = (
(271,0,ls),
(534,0,o),
(664,200,o),
(664,439,cs),
(664,580,o),
(611,676,o),
(536,736,cs),
(461,796,o),
(365,821,o),
(281,821,cs),
(200,821,o),
(132,821,o),
(65,818,cs),
(50,817,o),
(44,805,o),
(44,794,cs),
(44,781,o),
(51,769,o),
(67,769,cs),
(105,769,o),
(135,766,o),
(135,727,cs),
(135,670,o),
(142,498,o),
(142,442,c),
(77,443,ls),
(58,443,o),
(51,422,o),
(51,409,cs),
(51,397,o),
(62,374,o),
(77,374,cs),
(142,374,l),
(142,241,l),
(141,72,ls),
(141,48,o),
(96,48,o),
(72,48,cs),
(49,48,o),
(41,41,o),
(41,24,cs),
(41,7,o),
(54,0,o),
(77,0,cs)
);
},
{
closed = 1;
nodes = (
(234,64,o),
(213,66,o),
(213,74,cs),
(213,375,l),
(318,375,ls),
(339,375,o),
(347,400,o),
(347,412,cs),
(347,425,o),
(337,444,o),
(326,444,cs),
(271,443,l),
(213,441,l),
(213,752,l),
(244,755,l),
(275,756,ls),
(492,756,o),
(589,613,o),
(589,439,cs),
(589,223,o),
(493,64,o),
(275,64,cs)
);
}
);
userData = {
assembly = "MPPEM[ ]	/* MeasurePixelPerEm */
PUSHB[ ]	/* 1 value pushed */
20
LT[ ]	/* LessThan */
IF[ ]	/* If */
NPUSHB[ ]	/* 48 values pushed */
0 5 2 6 6 5 96 0 4 8 3 8 4 96 7 10 2 6 6 2 84 0 2 2 12 67 0 1 1 0 83 9 1 0 0 15 67 0 8 8 3 83 0 3 3 13 3 68
ELSE[ ]	/* Else */
MPPEM[ ]	/* MeasurePixelPerEm */
PUSHB[ ]	/* 1 value pushed */
45
LT[ ]	/* LessThan */
IF[ ]	/* If */
NPUSHB[ ]	/* 46 values pushed */
0 5 2 6 6 5 96 0 4 8 3 8 4 96 9 1 0 0 1 8 0 1 91 7 10 2 6 6 2 84 0 2 2 12 67 0 8 8 3 83 0 3 3 13 3 68
ELSE[ ]	/* Else */
NPUSHB[ ]	/* 46 values pushed */
0 5 2 6 6 5 96 0 4 8 3 8 4 96 9 1 0 0 1 8 0 1 91 7 10 2 6 6 2 84 0 2 2 14 67 0 8 8 3 83 0 3 3 13 3 68
EIF[ ]	/* EndIf */
EIF[ ]	/* EndIf */
NPUSHB[ ]	/* 28 values pushed */
74 73 1 0 83 80 76 75 73 91 74 91 68 66 49 46 42 39 31 27 14 7 0 26 1 18 11 15
CALL[ ]	/* CallFunction */";
};
width = 700;
},
{
layerId = "E59D8378-1062-4241-9A8F-EEB295F00E05";
shapes = (
{
closed = 1;
nodes = (
(241,0,ls),
(504,0,o),
(634,200,o),
(634,439,cs),
(634,580,o),
(581,676,o),
(506,736,cs),
(431,796,o),
(335,821,o),
(251,821,cs),
(170,821,o),
(112,821,o),
(45,818,cs),
(31,817,o),
(24,813,o),
(24,805,cs),
(24,798,o),
(30,789,o),
(47,789,cs),
(103,789,o),
(135,787,o),
(135,747,cs),
(135,676,o),
(142,506,o),
(142,437,cs),
(142,426,l),
(87,427,l),
(47,428,ls),
(36,428,o),
(31,416,o),
(31,409,cs),
(31,402,o),
(38,389,o),
(47,389,cs),
(142,389,l),
(141,52,ls),
(141,28,o),
(87,28,o),
(52,28,cs),
(41,28,o),
(33,27,o),
(28,24,cs),
(23,21,o),
(21,17,o),
(21,12,cs),
(21,7,o),
(24,3,o),
(31,2,cs),
(37,1,o),
(46,0,o),
(57,0,cs)
);
},
{
closed = 1;
nodes = (
(204,34,o),
(183,36,o),
(183,44,cs),
(183,389,l),
(243,390,l),
(288,390,ls),
(303,390,o),
(307,405,o),
(307,412,cs),
(307,419,o),
(301,429,o),
(296,429,cs),
(246,428,l),
(183,426,l),
(183,782,l),
(214,785,l),
(245,786,ls),
(484,786,o),
(589,630,o),
(589,439,cs),
(589,209,o),
(485,34,o),
(245,34,cs)
);
}
);
userData = {
assembly = "MPPEM[ ]	/* MeasurePixelPerEm */
PUSHB[ ]	/* 1 value pushed */
20
LT[ ]	/* LessThan */
IF[ ]	/* If */
NPUSHB[ ]	/* 50 values pushed */
0 7 5 4 5 7 96 0 2 10 1 10 2 96 12 6 2 5 5 0 83 11 1 0 0 12 67 9 1 3 3 4 83 8 1 4 4 15 67 0 10 10 1 83 0 1 1 13 1 68
ELSE[ ]	/* Else */
MPPEM[ ]	/* MeasurePixelPerEm */
PUSHB[ ]	/* 1 value pushed */
45
LT[ ]	/* LessThan */
IF[ ]	/* If */
NPUSHB[ ]	/* 48 values pushed */
0 7 5 4 5 7 96 0 2 10 1 10 2 96 8 1 4 9 1 3 10 4 3 91 12 6 2 5 5 0 83 11 1 0 0 12 67 0 10 10 1 83 0 1 1 13 1 68
ELSE[ ]	/* Else */
NPUSHB[ ]	/* 48 values pushed */
0 7 5 4 5 7 96 0 2 10 1 10 2 96 8 1 4 9 1 3 10 4 3 91 12 6 2 5 5 0 83 11 1 0 0 14 67 0 10 10 1 83 0 1 1 13 1 68
EIF[ ]	/* EndIf */
EIF[ ]	/* EndIf */
NPUSHB[ ]	/* 32 values pushed */
57 56 4 0 79 76 72 68 64 60 59 58 56 87 57 87 52 49 40 36 32 30 22 19 15 12 0 55 4 55 13 15
CALL[ ]	/* CallFunction */";
};
width = 674;
}
);
note = Dcroat;
unicode = 272;
},
{
glyphname = Eth;
kernLeft = B;
kernRight = D;
lastChange = "2024-06-13 14:32:02 +0000";
layers = (
{
layerId = m01;
shapes = (
{
closed = 1;
nodes = (
(292,0,ls),
(555,0,o),
(685,200,o),
(685,439,cs),
(685,580,o),
(632,676,o),
(557,736,cs),
(482,796,o),
(386,821,o),
(302,821,cs),
(221,821,o),
(146,821,o),
(79,818,cs),
(56,817,o),
(44,800,o),
(44,776,cs),
(44,751,o),
(56,738,o),
(81,738,cs),
(110,738,o),
(135,731,o),
(135,696,cs),
(135,652,o),
(142,570,o),
(142,451,c),
(116,452,l),
(98,452,ls),
(75,452,o),
(65,426,o),
(65,409,cs),
(65,394,o),
(80,365,o),
(98,365,cs),
(142,365,l),
(141,97,ls),
(141,89,o),
(137,83,o),
(128,80,cs),
(119,77,o),
(105,74,o),
(86,73,cs),
(59,70,o),
(44,62,o),
(44,31,cs),
(44,10,o),
(56,0,o),
(81,0,cs)
);
},
{
closed = 1;
nodes = (
(255,82,o),
(234,84,o),
(234,92,cs),
(234,365,l),
(294,366,l),
(339,366,ls),
(367,366,o),
(375,398,o),
(375,412,cs),
(375,429,o),
(362,453,o),
(347,453,cs),
(297,452,l),
(234,450,l),
(234,734,l),
(265,737,l),
(296,738,ls),
(502,738,o),
(589,601,o),
(589,439,cs),
(589,235,o),
(502,82,o),
(296,82,cs)
);
}
);
userData = {
assembly = "MPPEM[ ]	/* MeasurePixelPerEm */
PUSHB[ ]	/* 1 value pushed */
20
LT[ ]	/* LessThan */
IF[ ]	/* If */
NPUSHB[ ]	/* 36 values pushed */
6 10 5 3 4 4 0 83 0 0 0 12 67 8 1 2 2 3 83 7 1 3 3 15 67 0 9 9 1 83 0 1 1 13 1 68
ELSE[ ]	/* Else */
MPPEM[ ]	/* MeasurePixelPerEm */
PUSHB[ ]	/* 1 value pushed */
45
LT[ ]	/* LessThan */
IF[ ]	/* If */
NPUSHB[ ]	/* 34 values pushed */
7 1 3 8 1 2 9 3 2 91 6 10 5 3 4 4 0 83 0 0 0 12 67 0 9 9 1 83 0 1 1 13 1 68
ELSE[ ]	/* Else */
NPUSHB[ ]	/* 34 values pushed */
7 1 3 8 1 2 9 3 2 91 6 10 5 3 4 4 0 83 0 0 0 14 67 0 9 9 1 83 0 1 1 13 1 68
EIF[ ]	/* EndIf */
EIF[ ]	/* EndIf */
NPUSHB[ ]	/* 21 values pushed */
53 52 77 74 70 66 60 56 55 54 52 85 53 85 39 70 44 56 82 11 20
CALL[ ]	/* CallFunction */";
};
width = 718;
},
{
layerId = "62092E79-60F6-4D0B-8A38-B9DDC6B60A9E";
shapes = (
{
closed = 1;
nodes = (
(271,0,ls),
(534,0,o),
(664,200,o),
(664,439,cs),
(664,580,o),
(611,676,o),
(536,736,cs),
(461,796,o),
(365,821,o),
(281,821,cs),
(200,821,o),
(132,821,o),
(65,818,cs),
(50,817,o),
(44,805,o),
(44,794,cs),
(44,781,o),
(51,769,o),
(67,769,cs),
(105,769,o),
(135,766,o),
(135,727,cs),
(135,670,o),
(142,498,o),
(142,442,c),
(77,443,ls),
(58,443,o),
(51,422,o),
(51,409,cs),
(51,397,o),
(62,374,o),
(77,374,cs),
(142,374,l),
(142,241,l),
(141,72,ls),
(141,48,o),
(96,48,o),
(72,48,cs),
(49,48,o),
(41,41,o),
(41,24,cs),
(41,7,o),
(54,0,o),
(77,0,cs)
);
},
{
closed = 1;
nodes = (
(234,64,o),
(213,66,o),
(213,74,cs),
(213,375,l),
(318,375,ls),
(339,375,o),
(347,400,o),
(347,412,cs),
(347,425,o),
(337,444,o),
(326,444,cs),
(271,443,l),
(213,441,l),
(213,752,l),
(244,755,l),
(275,756,ls),
(492,756,o),
(589,613,o),
(589,439,cs),
(589,223,o),
(493,64,o),
(275,64,cs)
);
}
);
userData = {
assembly = "MPPEM[ ]	/* MeasurePixelPerEm */
PUSHB[ ]	/* 1 value pushed */
20
LT[ ]	/* LessThan */
IF[ ]	/* If */
NPUSHB[ ]	/* 48 values pushed */
0 5 2 6 6 5 96 0 4 8 3 8 4 96 7 10 2 6 6 2 84 0 2 2 12 67 0 1 1 0 83 9 1 0 0 15 67 0 8 8 3 83 0 3 3 13 3 68
ELSE[ ]	/* Else */
MPPEM[ ]	/* MeasurePixelPerEm */
PUSHB[ ]	/* 1 value pushed */
45
LT[ ]	/* LessThan */
IF[ ]	/* If */
NPUSHB[ ]	/* 46 values pushed */
0 5 2 6 6 5 96 0 4 8 3 8 4 96 9 1 0 0 1 8 0 1 91 7 10 2 6 6 2 84 0 2 2 12 67 0 8 8 3 83 0 3 3 13 3 68
ELSE[ ]	/* Else */
NPUSHB[ ]	/* 46 values pushed */
0 5 2 6 6 5 96 0 4 8 3 8 4 96 9 1 0 0 1 8 0 1 91 7 10 2 6 6 2 84 0 2 2 14 67 0 8 8 3 83 0 3 3 13 3 68
EIF[ ]	/* EndIf */
EIF[ ]	/* EndIf */
NPUSHB[ ]	/* 28 values pushed */
74 73 1 0 83 80 76 75 73 91 74 91 68 66 49 46 42 39 31 27 14 7 0 26 1 18 11 15
CALL[ ]	/* CallFunction */";
};
width = 700;
},
{
layerId = "E59D8378-1062-4241-9A8F-EEB295F00E05";
shapes = (
{
closed = 1;
nodes = (
(241,0,ls),
(504,0,o),
(634,200,o),
(634,439,cs),
(634,580,o),
(581,676,o),
(506,736,cs),
(431,796,o),
(335,821,o),
(251,821,cs),
(170,821,o),
(112,821,o),
(45,818,cs),
(31,817,o),
(24,813,o),
(24,805,cs),
(24,798,o),
(30,789,o),
(47,789,cs),
(103,789,o),
(135,787,o),
(135,747,cs),
(135,676,o),
(142,506,o),
(142,437,cs),
(142,426,l),
(87,427,l),
(47,428,ls),
(36,428,o),
(31,416,o),
(31,409,cs),
(31,402,o),
(38,389,o),
(47,389,cs),
(142,389,l),
(141,52,ls),
(141,28,o),
(87,28,o),
(52,28,cs),
(41,28,o),
(33,27,o),
(28,24,cs),
(23,21,o),
(21,17,o),
(21,12,cs),
(21,7,o),
(24,3,o),
(31,2,cs),
(37,1,o),
(46,0,o),
(57,0,cs)
);
},
{
closed = 1;
nodes = (
(204,34,o),
(183,36,o),
(183,44,cs),
(183,389,l),
(243,390,l),
(288,390,ls),
(303,390,o),
(307,405,o),
(307,412,cs),
(307,419,o),
(301,429,o),
(296,429,cs),
(246,428,l),
(183,426,l),
(183,782,l),
(214,785,l),
(245,786,ls),
(484,786,o),
(589,630,o),
(589,439,cs),
(589,209,o),
(485,34,o),
(245,34,cs)
);
}
);
userData = {
assembly = "MPPEM[ ]	/* MeasurePixelPerEm */
PUSHB[ ]	/* 1 value pushed */
20
LT[ ]	/* LessThan */
IF[ ]	/* If */
NPUSHB[ ]	/* 50 values pushed */
0 7 5 4 5 7 96 0 2 10 1 10 2 96 12 6 2 5 5 0 83 11 1 0 0 12 67 9 1 3 3 4 83 8 1 4 4 15 67 0 10 10 1 83 0 1 1 13 1 68
ELSE[ ]	/* Else */
MPPEM[ ]	/* MeasurePixelPerEm */
PUSHB[ ]	/* 1 value pushed */
45
LT[ ]	/* LessThan */
IF[ ]	/* If */
NPUSHB[ ]	/* 48 values pushed */
0 7 5 4 5 7 96 0 2 10 1 10 2 96 8 1 4 9 1 3 10 4 3 91 12 6 2 5 5 0 83 11 1 0 0 12 67 0 10 10 1 83 0 1 1 13 1 68
ELSE[ ]	/* Else */
NPUSHB[ ]	/* 48 values pushed */
0 7 5 4 5 7 96 0 2 10 1 10 2 96 8 1 4 9 1 3 10 4 3 91 12 6 2 5 5 0 83 11 1 0 0 14 67 0 10 10 1 83 0 1 1 13 1 68
EIF[ ]	/* EndIf */
EIF[ ]	/* EndIf */
NPUSHB[ ]	/* 32 values pushed */
57 56 4 0 79 76 72 68 64 60 59 58 56 87 57 87 52 49 40 36 32 30 22 19 15 12 0 55 4 55 13 15
CALL[ ]	/* CallFunction */";
};
width = 674;
}
);
note = Eth;
unicode = 208;
},
{
glyphname = E;
kernLeft = B;
kernRight = AE;
lastChange = "2024-06-13 14:31:09 +0000";
layers = (
{
layerId = m01;
shapes = (
{
closed = 1;
nodes = (
(589,318,o),
(565.333,310.333,o),
(564,281,cs),
(559.317,201.39,o),
(555.143,183.141,o),
(551,121,cs),
(548.388,87.044,o),
(529.049,84,o),
(508,84,cs),
(230,84,l),
(230,377,l),
(279.731,377,o),
(266.898,379,o),
(318,379,cs),
(331.333,379,o),
(342.333,378.833,o),
(351,378.5,cs),
(359.667,378.167,o),
(366.667,378,o),
(372,378,cs),
(407.168,378,o),
(420,337.774,o),
(420,310,cs),
(420,292.667,o),
(426.333,275,o),
(461,275,cs),
(489,275,o),
(503,286,o),
(503,308,cs),
(503,323.333,o),
(502.667,341,o),
(502,361,cs),
(501.333,381,o),
(501,400.667,o),
(501,420,cs),
(501,439.333,o),
(501.333,457.833,o),
(502,475.5,cs),
(502.667,493.167,o),
(503,511.667,o),
(503,531,cs),
(503,563,o),
(482.667,570,o),
(460,570,cs),
(432,570,o),
(418,553,o),
(418,533,cs),
(418,512.353,o),
(416.681,464,o),
(401,464,cs),
(402.208,464,o),
(355.001,461,o),
(318,461,cs),
(283.754,461,o),
(264.584,461.53,o),
(230,464,c),
(230,737,l),
(482,737,ls),
(504.667,737,o),
(519,733,o),
(519,709,cs),
(519,637,ls),
(519,618.333,o),
(531.333,597,o),
(566,597,cs),
(595.333,597,o),
(607,607,o),
(607,643,cs),
(607,785,ls),
(607,813,o),
(597.667,821,o),
(579,821,cs),
(499.449,821,o),
(415.039,819,o),
(352,819,cs),
(296.166,819,o),
(199.784,821,o),
(94,821,cs),
(51.333,821,o),
(37,815.667,o),
(37,781,cs),
(37,758.333,o),
(59.667,747,o),
(93,747,cs),
(121,747,o),
(132,746.667,o),
(132,708,cs),
(132,605.687,o),
(138,543.101,o),
(138,425,cs),
(138,348.925,o),
(137,287.269,o),
(137,246.5,cs),
(137,204.532,o),
(136,158.173,o),
(136,109,cs),
(136,86.333,o),
(127.667,75.667,o),
(89,73,cs),
(61,71.667,o),
(38,62.333,o),
(38,33,cs),
(38,10.333,o),
(51.333,0,o),
(86,0,cs),
(163.885,0,o),
(257.939,2,o),
(356,2,cs),
(396.667,2,o),
(436.167,1.667,o),
(474.5,1,cs),
(512.833,0.333,o),
(552.333,0,o),
(593,0,cs),
(626.333,0,o),
(632.333,5,o),
(635,33,cs),
(648.126,164.265,o),
(651,274.421,o),
(651,285,cs),
(651,307.667,o),
(631.667,318,o),
(613,318,cs)
);
}
);
userData = {
assembly = "MPPEM[ ]	/* MeasurePixelPerEm */
PUSHB[ ]	/* 1 value pushed */
22
LT[ ]	/* LessThan */
IF[ ]	/* If */
NPUSHB[ ]	/* 10 values pushed */
75 1 7 8 127 1 2 9 2 66
ELSE[ ]	/* Else */
NPUSHB[ ]	/* 10 values pushed */
75 1 7 8 127 1 11 9 2 66
EIF[ ]	/* EndIf */
MPPEM[ ]	/* MeasurePixelPerEm */
PUSHB[ ]	/* 1 value pushed */
20
LT[ ]	/* LessThan */
IF[ ]	/* If */
NPUSHB[ ]	/* 58 values pushed */
0 5 3 8 3 5 8 104 12 1 0 10 9 10 0 9 104 0 8 0 9 2 8 9 91 6 1 3 3 4 83 0 4 4 12 67 0 10 10 7 83 0 7 7 23 67 11 1 2 2 1 84 0 1 1 13 1 68
ELSE[ ]	/* Else */
MPPEM[ ]	/* MeasurePixelPerEm */
PUSHB[ ]	/* 1 value pushed */
22
LT[ ]	/* LessThan */
IF[ ]	/* If */
NPUSHB[ ]	/* 56 values pushed */
0 5 3 8 3 5 8 104 12 1 0 10 9 10 0 9 104 0 7 0 10 0 7 10 91 0 8 0 9 2 8 9 91 6 1 3 3 4 83 0 4 4 12 67 11 1 2 2 1 84 0 1 1 13 1 68
ELSE[ ]	/* Else */
MPPEM[ ]	/* MeasurePixelPerEm */
PUSHB[ ]	/* 1 value pushed */
24
LT[ ]	/* LessThan */
IF[ ]	/* If */
NPUSHB[ ]	/* 62 values pushed */
0 5 3 8 3 5 8 104 12 1 0 10 9 10 0 9 104 0 2 11 1 11 2 96 0 7 0 10 0 7 10 91 0 8 0 9 11 8 9 91 6 1 3 3 4 83 0 4 4 12 67 0 11 11 1 84 0 1 1 13 1 68
ELSE[ ]	/* Else */
MPPEM[ ]	/* MeasurePixelPerEm */
PUSHB[ ]	/* 1 value pushed */
45
LT[ ]	/* LessThan */
IF[ ]	/* If */
NPUSHB[ ]	/* 68 values pushed */
0 3 4 6 6 3 96 0 5 6 8 6 5 8 104 12 1 0 10 9 10 0 9 104 0 2 11 1 11 2 96 0 7 0 10 0 7 10 91 0 8 0 9 11 8 9 91 0 6 6 4 84 0 4 4 12 67 0 11 11 1 84 0 1 1 13 1 68
ELSE[ ]	/* Else */
NPUSHB[ ]	/* 68 values pushed */
0 3 4 6 6 3 96 0 5 6 8 6 5 8 104 12 1 0 10 9 10 0 9 104 0 2 11 1 11 2 96 0 7 0 10 0 7 10 91 0 8 0 9 11 8 9 91 0 6 6 4 84 0 4 4 14 67 0 11 11 1 84 0 1 1 13 1 68
EIF[ ]	/* EndIf */
EIF[ ]	/* EndIf */
EIF[ ]	/* EndIf */
EIF[ ]	/* EndIf */
NPUSHB[ ]	/* 30 values pushed */
1 0 123 121 120 111 105 103 94 92 86 76 74 72 67 65 60 48 44 42 26 24 20 10 0 134 1 134 13 15
CALL[ ]	/* CallFunction */";
};
width = 684;
},
{
layerId = "62092E79-60F6-4D0B-8A38-B9DDC6B60A9E";
shapes = (
{
closed = 1;
nodes = (
(584.667,315,o),
(567.333,306,o),
(566,278,cs),
(560.867,185.6,o),
(555.166,128.988,o),
(553,103,cs),
(550.388,69.044,o),
(531.049,66,o),
(510,66,cs),
(211,66,l),
(211,386,l),
(249.667,387.333,o),
(271.333,388,o),
(310,388,cs),
(325.333,388,o),
(338,387.833,o),
(348,387.5,cs),
(358,387.167,o),
(366.667,387,o),
(374,387,cs),
(413.224,387,o),
(422,334.438,o),
(422,306,cs),
(422,288.667,o),
(427.667,277,o),
(453,277,cs),
(470.333,277,o),
(484,281.333,o),
(484,304,cs),
(484,322.667,o),
(483.667,341.833,o),
(483,361.5,cs),
(482.333,381.167,o),
(482,400.667,o),
(482,420,cs),
(482,439.333,o),
(482.333,458.5,o),
(483,477.5,cs),
(483.667,496.5,o),
(484,515.667,o),
(484,535,cs),
(484,557.667,o),
(470.667,566,o),
(452,566,cs),
(428,566,o),
(420,546.667,o),
(420,532,cs),
(420,510.355,o),
(418.839,455,o),
(403,455,cs),
(404.428,455,o),
(353.48,452,o),
(310,452,cs),
(290.667,452,o),
(274,452.333,o),
(260,453,cs),
(246,453.667,o),
(229.667,454.333,o),
(211,455,c),
(211,755,l),
(484,755,ls),
(498.861,755,o),
(521,754.133,o),
(521,727,cs),
(521,640,ls),
(521,621.333,o),
(527.667,600,o),
(557,600,cs),
(579.667,600,o),
(588,614,o),
(588,646,cs),
(588,785,ls),
(588,813,o),
(578.667,821,o),
(560,821,cs),
(480.449,821,o),
(396.039,819,o),
(333,819,cs),
(278.904,819,o),
(184.97,821,o),
(82,821,cs),
(62,821,o),
(41,818,o),
(41,794,cs),
(41,776.667,o),
(58.333,769,o),
(81,769,cs),
(95.58,769,o),
(134,769.432,o),
(134,730,cs),
(134,618.008,o),
(140,561.059,o),
(140,425,cs),
(140,344.921,o),
(139,278.739,o),
(139,233,cs),
(139,185.69,o),
(138,135.649,o),
(138,84,cs),
(138,56,o),
(115.667,48,o),
(77,48,cs),
(50.333,48,o),
(38,42.333,o),
(38,21,cs),
(38,2.333,o),
(61.333,0,o),
(84,0,cs),
(124.667,0,o),
(166.833,0.333,o),
(210.5,1,cs),
(254.167,1.667,o),
(296.333,2,o),
(337,2,cs),
(377.667,2,o),
(417.167,1.667,o),
(455.5,1,cs),
(493.833,0.333,o),
(533.333,0,o),
(574,0,cs),
(600.667,0,o),
(613.333,-0.333,o),
(616,33,cs),
(626.877,141.766,o),
(632,292.348,o),
(632,282,cs),
(632,302,o),
(620.667,315,o),
(602,315,cs)
);
}
);
userData = {
assembly = "MPPEM[ ]	/* MeasurePixelPerEm */
PUSHB[ ]	/* 1 value pushed */
20
LT[ ]	/* LessThan */
IF[ ]	/* If */
NPUSHB[ ]	/* 70 values pushed */
0 3 4 6 6 3 96 0 5 6 8 6 5 8 104 12 1 0 10 9 10 0 9 104 0 2 11 1 11 2 96 0 8 0 9 11 8 9 91 0 6 6 4 84 0 4 4 12 67 0 10 10 7 83 0 7 7 15 67 0 11 11 1 84 0 1 1 13 1 68
ELSE[ ]	/* Else */
MPPEM[ ]	/* MeasurePixelPerEm */
PUSHB[ ]	/* 1 value pushed */
45
LT[ ]	/* LessThan */
IF[ ]	/* If */
NPUSHB[ ]	/* 68 values pushed */
0 3 4 6 6 3 96 0 5 6 8 6 5 8 104 12 1 0 10 9 10 0 9 104 0 2 11 1 11 2 96 0 7 0 10 0 7 10 91 0 8 0 9 11 8 9 91 0 6 6 4 84 0 4 4 12 67 0 11 11 1 84 0 1 1 13 1 68
ELSE[ ]	/* Else */
NPUSHB[ ]	/* 68 values pushed */
0 3 4 6 6 3 96 0 5 6 8 6 5 8 104 12 1 0 10 9 10 0 9 104 0 2 11 1 11 2 96 0 7 0 10 0 7 10 91 0 8 0 9 11 8 9 91 0 6 6 4 84 0 4 4 14 67 0 11 11 1 84 0 1 1 13 1 68
EIF[ ]	/* EndIf */
EIF[ ]	/* EndIf */
NPUSHB[ ]	/* 30 values pushed */
1 0 122 120 119 112 106 104 94 92 86 77 76 74 67 65 60 48 44 41 24 22 18 10 0 133 1 133 13 15
CALL[ ]	/* CallFunction */";
};
width = 667;
},
{
layerId = "E59D8378-1062-4241-9A8F-EEB295F00E05";
shapes = (
{
closed = 1;
nodes = (
(148.333,1.333,o),
(228.667,2,o),
(310,2,cs),
(350.667,2,o),
(390.167,1.667,o),
(428.5,1,cs),
(466.833,0.333,o),
(506.333,0,o),
(547,0,cs),
(573.667,0,o),
(586.333,-0.333,o),
(589,33,cs),
(599.644,139.44,o),
(605,285.132,o),
(605,277,cs),
(605,293,o),
(604.667,310,o),
(586,310,cs),
(582.667,310,o),
(579.167,307.167,o),
(575.5,301.5,cs),
(571.833,295.833,o),
(569.667,286.333,o),
(569,273,cs),
(563.922,166.353,o),
(558.061,99.79,o),
(556,73,cs),
(553.388,39.044,o),
(534.049,36,o),
(513,36,cs),
(184,36,l),
(184,401,l),
(222.667,402.333,o),
(259.333,403,o),
(298,403,cs),
(317.333,403,o),
(333,402.833,o),
(345,402.5,cs),
(357,402.167,o),
(367.667,402,o),
(377,402,cs),
(416.501,402,o),
(425,345.97,o),
(425,309,cs),
(425,291.667,o),
(432.667,280,o),
(442,280,cs),
(444.667,280,o),
(447.833,281.667,o),
(451.5,285,cs),
(455.167,288.333,o),
(457,295.667,o),
(457,307,cs),
(457,325.667,o),
(456.667,344.333,o),
(456,363,cs),
(455.333,381.667,o),
(455,400.667,o),
(455,420,cs),
(455,439.333,o),
(455.333,458.167,o),
(456,476.5,cs),
(456.667,494.833,o),
(457,513.667,o),
(457,533,cs),
(457,547.667,o),
(456,560,o),
(440,560,cs),
(426.277,560,o),
(423,541.121,o),
(423,530,cs),
(423,471.034,o),
(417.262,440,o),
(406,440,cs),
(407.48,440,o),
(346.73,437,o),
(298,437,cs),
(278.667,437,o),
(259.667,437.333,o),
(241,438,cs),
(222.333,438.667,o),
(203.333,439.333,o),
(184,440,c),
(184,785,l),
(487,785,ls),
(500.333,785,o),
(524,782.333,o),
(524,757,cs),
(524,645,ls),
(524,626.333,o),
(524,605,o),
(544,605,cs),
(558.667,605,o),
(561,625.667,o),
(561,651,cs),
(561,785,ls),
(561,813,o),
(551.667,821,o),
(533,821,cs),
(453.449,821,o),
(369.039,819,o),
(306,819,cs),
(253.771,819,o),
(163.591,821,o),
(65,821,cs),
(45,821,o),
(24,818.667,o),
(24,804,cs),
(24,789.333,o),
(41.333,789,o),
(64,789,cs),
(92.603,789,o),
(137,788.308,o),
(137,750,cs),
(137,632.98,o),
(143,567.873,o),
(143,425,cs),
(143,339.646,o),
(142,269.59,o),
(142,222,cs),
(142,173.136,o),
(141,119.911,o),
(141,64,cs),
(141,50,o),
(135.333,40.5,o),
(124,35.5,cs),
(112.667,30.5,o),
(91.333,28,o),
(60,28,cs),
(46.667,28,o),
(36.833,27,o),
(30.5,25,cs),
(24.167,23,o),
(21,18.333,o),
(21,11,cs),
(21,0.333,o),
(47,0,o),
(67,0,cs)
);
}
);
userData = {
assembly = "MPPEM[ ]	/* MeasurePixelPerEm */
PUSHB[ ]	/* 1 value pushed */
20
LT[ ]	/* LessThan */
IF[ ]	/* If */
NPUSHB[ ]	/* 64 values pushed */
0 5 3 8 3 5 8 104 12 1 0 10 9 10 0 9 104 0 2 11 1 11 2 96 0 8 0 9 11 8 9 91 6 1 3 3 4 83 0 4 4 12 67 0 10 10 7 83 0 7 7 15 67 0 11 11 1 83 0 1 1 13 1 68
ELSE[ ]	/* Else */
MPPEM[ ]	/* MeasurePixelPerEm */
PUSHB[ ]	/* 1 value pushed */
45
LT[ ]	/* LessThan */
IF[ ]	/* If */
NPUSHB[ ]	/* 62 values pushed */
0 5 3 8 3 5 8 104 12 1 0 10 9 10 0 9 104 0 2 11 1 11 2 96 0 7 0 10 0 7 10 91 0 8 0 9 11 8 9 91 6 1 3 3 4 83 0 4 4 12 67 0 11 11 1 83 0 1 1 13 1 68
ELSE[ ]	/* Else */
NPUSHB[ ]	/* 62 values pushed */
0 5 3 8 3 5 8 104 12 1 0 10 9 10 0 9 104 0 2 11 1 11 2 96 0 7 0 10 0 7 10 91 0 8 0 9 11 8 9 91 6 1 3 3 4 83 0 4 4 14 67 0 11 11 1 83 0 1 1 13 1 68
EIF[ ]	/* EndIf */
EIF[ ]	/* EndIf */
NPUSHB[ ]	/* 30 values pushed */
1 0 122 120 119 112 106 104 94 92 84 75 74 72 67 65 60 48 44 41 24 22 18 10 0 133 1 133 13 15
CALL[ ]	/* CallFunction */";
};
width = 643;
}
);
note = E;
unicode = 69;
},
